<svg width="24" height="24" viewBox="0 0 24 24" fill="none" xmlns="http://www.w3.org/2000/svg">
<path d="M19.9331 7.04719C20.1487 6.27878 20.2081 5.47496 20.1078 4.68321C20.0075 3.89146 19.7495 3.12785 19.3491 2.4375C19.2503 2.26651 19.1084 2.12451 18.9374 2.02578C18.7664 1.92704 18.5724 1.87504 18.375 1.875C17.4746 1.87247 16.5853 2.07353 15.7736 2.46316C14.9618 2.85279 14.2487 3.4209 13.6875 4.125H11.8125C11.2513 3.4209 10.5382 2.85279 9.72643 2.46316C8.91471 2.07353 8.02539 1.87247 7.125 1.875C6.92756 1.87504 6.7336 1.92704 6.56262 2.02578C6.39164 2.12451 6.24966 2.26651 6.15094 2.4375C5.7505 3.12785 5.49251 3.89146 5.39219 4.68321C5.29187 5.47496 5.35127 6.27878 5.56687 7.04719C5.11846 7.8779 4.88088 8.80601 4.875 9.75V10.5C4.87676 11.7591 5.30022 12.9813 6.0778 13.9717C6.85537 14.962 7.94225 15.6633 9.165 15.9637C8.81042 16.5838 8.62426 17.2858 8.625 18V18.375H7.125C6.62772 18.375 6.15081 18.1775 5.79917 17.8258C5.44754 17.4742 5.25 16.9973 5.25 16.5C5.24876 15.4064 4.81376 14.3579 4.04045 13.5846C3.26713 12.8112 2.21864 12.3762 1.125 12.375C0.826631 12.375 0.540483 12.4935 0.329505 12.7045C0.118526 12.9155 0 13.2016 0 13.5C0 13.7984 0.118526 14.0845 0.329505 14.2955C0.540483 14.5065 0.826631 14.625 1.125 14.625C1.62228 14.625 2.09919 14.8225 2.45083 15.1742C2.80246 15.5258 3 16.0027 3 16.5C3.00124 17.5936 3.43624 18.6421 4.20955 19.4154C4.98287 20.1888 6.03136 20.6238 7.125 20.625H8.625V21.75C8.625 22.0484 8.74353 22.3345 8.9545 22.5455C9.16548 22.7565 9.45163 22.875 9.75 22.875C10.0484 22.875 10.3345 22.7565 10.5455 22.5455C10.7565 22.3345 10.875 22.0484 10.875 21.75V18C10.875 17.5027 11.0725 17.0258 11.4242 16.6742C11.7758 16.3225 12.2527 16.125 12.75 16.125C13.2473 16.125 13.7242 16.3225 14.0758 16.6742C14.4275 17.0258 14.625 17.5027 14.625 18V21.75C14.625 22.0484 14.7435 22.3345 14.9545 22.5455C15.1655 22.7565 15.4516 22.875 15.75 22.875C16.0484 22.875 16.3345 22.7565 16.5455 22.5455C16.7565 22.3345 16.875 22.0484 16.875 21.75V18C16.8757 17.2858 16.6896 16.5838 16.335 15.9637C17.5577 15.6633 18.6446 14.962 19.4222 13.9717C20.1998 12.9813 20.6232 11.7591 20.625 10.5V9.75C20.6191 8.80601 20.3815 7.8779 19.9331 7.04719ZM18.375 10.5C18.375 11.3951 18.0194 12.2535 17.3865 12.8865C16.7535 13.5194 15.8951 13.875 15 13.875H10.5C9.60489 13.875 8.74645 13.5194 8.11351 12.8865C7.48058 12.2535 7.125 11.3951 7.125 10.5V9.75C7.13461 9.0796 7.33386 8.42562 7.69969 7.86375C7.8163 7.71277 7.89134 7.53389 7.91732 7.3449C7.94331 7.15591 7.91935 6.96341 7.84781 6.78656C7.5251 5.95264 7.5118 5.0307 7.81031 4.18781C8.31553 4.28089 8.79614 4.47711 9.22214 4.76423C9.64814 5.05135 10.0104 5.42319 10.2863 5.85656C10.388 6.01543 10.528 6.14618 10.6934 6.23677C10.8589 6.32737 11.0445 6.3749 11.2331 6.375H14.2659C14.4547 6.37506 14.6405 6.3276 14.8061 6.237C14.9718 6.1464 15.112 6.01557 15.2137 5.85656C15.4895 5.42308 15.8517 5.05115 16.2777 4.76402C16.7037 4.47688 17.1844 4.28073 17.6897 4.18781C17.9882 5.0307 17.9749 5.95264 17.6522 6.78656C17.5835 6.96474 17.5614 7.15745 17.5878 7.34656C17.6142 7.53567 17.6883 7.71494 17.8031 7.8675C18.1674 8.42855 18.3656 9.08114 18.375 9.75V10.5Z" fill="#D1D5DB"/>
</svg>
