<svg width="36" height="36" viewBox="0 0 36 36" fill="none" xmlns="http://www.w3.org/2000/svg">
<path d="M18 13.5C17.11 13.5 16.24 13.7639 15.4999 14.2584C14.7599 14.7529 14.1831 15.4557 13.8425 16.2779C13.5019 17.1002 13.4128 18.005 13.5865 18.8779C13.7601 19.7508 14.1887 20.5526 14.818 21.182C15.4474 21.8113 16.2492 22.2399 17.1221 22.4135C17.995 22.5872 18.8998 22.4981 19.7221 22.1575C20.5443 21.8169 21.2471 21.2401 21.7416 20.5001C22.2361 19.76 22.5 18.89 22.5 18C22.4988 16.8069 22.0243 15.663 21.1806 14.8194C20.337 13.9757 19.1931 13.5012 18 13.5ZM18 20.25C17.555 20.25 17.12 20.118 16.75 19.8708C16.38 19.6236 16.0916 19.2722 15.9213 18.861C15.751 18.4499 15.7064 17.9975 15.7932 17.561C15.88 17.1246 16.0943 16.7237 16.409 16.409C16.7237 16.0943 17.1246 15.88 17.561 15.7932C17.9975 15.7064 18.4499 15.751 18.861 15.9213C19.2722 16.0916 19.6236 16.38 19.8708 16.75C20.118 17.12 20.25 17.555 20.25 18C20.25 18.5967 20.0129 19.169 19.591 19.591C19.169 20.0129 18.5967 20.25 18 20.25ZM22.5 7.875H13.5C12.0087 7.87674 10.579 8.46993 9.52444 9.52444C8.46993 10.579 7.87674 12.0087 7.875 13.5V22.5C7.87674 23.9913 8.46993 25.421 9.52444 26.4756C10.579 27.5301 12.0087 28.1233 13.5 28.125H22.5C23.9913 28.1233 25.421 27.5301 26.4756 26.4756C27.5301 25.421 28.1233 23.9913 28.125 22.5V13.5C28.1233 12.0087 27.5301 10.579 26.4756 9.52444C25.421 8.46993 23.9913 7.87674 22.5 7.875ZM25.875 22.5C25.875 23.3951 25.5194 24.2535 24.8865 24.8865C24.2535 25.5194 23.3951 25.875 22.5 25.875H13.5C12.6049 25.875 11.7464 25.5194 11.1135 24.8865C10.4806 24.2535 10.125 23.3951 10.125 22.5V13.5C10.125 12.6049 10.4806 11.7464 11.1135 11.1135C11.7464 10.4806 12.6049 10.125 13.5 10.125H22.5C23.3951 10.125 24.2535 10.4806 24.8865 11.1135C25.5194 11.7464 25.875 12.6049 25.875 13.5V22.5ZM24.375 13.125C24.375 13.4217 24.287 13.7117 24.1222 13.9584C23.9574 14.205 23.7231 14.3973 23.449 14.5108C23.1749 14.6244 22.8733 14.6541 22.5824 14.5962C22.2914 14.5383 22.0241 14.3954 21.8143 14.1857C21.6046 13.9759 21.4617 13.7086 21.4038 13.4176C21.3459 13.1267 21.3756 12.8251 21.4892 12.551C21.6027 12.2769 21.795 12.0426 22.0416 11.8778C22.2883 11.713 22.5783 11.625 22.875 11.625C23.2728 11.625 23.6544 11.783 23.9357 12.0643C24.217 12.3456 24.375 12.7272 24.375 13.125Z" fill="#4B5563"/>
</svg>
