<svg width="36" height="36" viewBox="0 0 36 36" fill="none" xmlns="http://www.w3.org/2000/svg">
<path d="M26.25 7.875H9.75C9.25272 7.875 8.77581 8.07254 8.42417 8.42417C8.07254 8.77581 7.875 9.25272 7.875 9.75V26.25C7.875 26.7473 8.07254 27.2242 8.42417 27.5758C8.77581 27.9275 9.25272 28.125 9.75 28.125H26.25C26.7473 28.125 27.2242 27.9275 27.5758 27.5758C27.9275 27.2242 28.125 26.7473 28.125 26.25V9.75C28.125 9.25272 27.9275 8.77581 27.5758 8.42417C27.2242 8.07254 26.7473 7.875 26.25 7.875ZM25.875 25.875H10.125V10.125H25.875V25.875ZM16.5 22.5V17.25C16.5002 17.0162 16.5733 16.7883 16.709 16.5979C16.8447 16.4076 17.0364 16.2642 17.2574 16.1878C17.4783 16.1114 17.7176 16.1058 17.9419 16.1716C18.1662 16.2375 18.3645 16.3716 18.5091 16.5553C19.0805 16.2558 19.7195 16.1088 20.3643 16.1284C21.0092 16.1481 21.6381 16.3338 22.1901 16.6676C22.7422 17.0014 23.1989 17.472 23.5159 18.0338C23.833 18.5957 23.9997 19.2299 24 19.875V22.5C24 22.7984 23.8815 23.0845 23.6705 23.2955C23.4595 23.5065 23.1734 23.625 22.875 23.625C22.5766 23.625 22.2905 23.5065 22.0795 23.2955C21.8685 23.0845 21.75 22.7984 21.75 22.5V19.875C21.75 19.4772 21.592 19.0956 21.3107 18.8143C21.0294 18.533 20.6478 18.375 20.25 18.375C19.8522 18.375 19.4706 18.533 19.1893 18.8143C18.908 19.0956 18.75 19.4772 18.75 19.875V22.5C18.75 22.7984 18.6315 23.0845 18.4205 23.2955C18.2095 23.5065 17.9234 23.625 17.625 23.625C17.3266 23.625 17.0405 23.5065 16.8295 23.2955C16.6185 23.0845 16.5 22.7984 16.5 22.5ZM15 17.25V22.5C15 22.7984 14.8815 23.0845 14.6705 23.2955C14.4595 23.5065 14.1734 23.625 13.875 23.625C13.5766 23.625 13.2905 23.5065 13.0795 23.2955C12.8685 23.0845 12.75 22.7984 12.75 22.5V17.25C12.75 16.9516 12.8685 16.6655 13.0795 16.4545C13.2905 16.2435 13.5766 16.125 13.875 16.125C14.1734 16.125 14.4595 16.2435 14.6705 16.4545C14.8815 16.6655 15 16.9516 15 17.25ZM12.375 13.5C12.375 13.2033 12.463 12.9133 12.6278 12.6666C12.7926 12.42 13.0269 12.2277 13.301 12.1142C13.5751 12.0006 13.8767 11.9709 14.1676 12.0288C14.4586 12.0867 14.7259 12.2296 14.9357 12.4393C15.1454 12.6491 15.2883 12.9164 15.3462 13.2074C15.4041 13.4983 15.3744 13.7999 15.2608 14.074C15.1473 14.3481 14.955 14.5824 14.7084 14.7472C14.4617 14.912 14.1717 15 13.875 15C13.4772 15 13.0956 14.842 12.8143 14.5607C12.533 14.2794 12.375 13.8978 12.375 13.5Z" fill="#4B5563"/>
</svg>
