<svg width="36" height="36" viewBox="0 0 36 36" fill="none" xmlns="http://www.w3.org/2000/svg">
<path d="M26.4488 25.6463L20.73 16.665L26.3288 10.5066C26.5252 10.2851 26.6265 9.99515 26.6106 9.69955C26.5947 9.40394 26.4629 9.12652 26.2438 8.92742C26.0248 8.72833 25.736 8.62361 25.4403 8.63596C25.1445 8.64832 24.8655 8.77676 24.6638 8.99344L19.4822 14.6972L15.9488 9.14625C15.8472 8.98659 15.7071 8.85512 15.5412 8.76401C15.3754 8.6729 15.1893 8.62509 15 8.625H10.5C10.2985 8.62509 10.1007 8.67932 9.92731 8.78201C9.75391 8.88469 9.61128 9.03208 9.51432 9.20874C9.41736 9.38541 9.36964 9.58488 9.37614 9.78631C9.38265 9.98773 9.44314 10.1837 9.55129 10.3537L15.27 19.335L9.66754 25.4934C9.5661 25.6024 9.4873 25.7304 9.4357 25.8701C9.3841 26.0097 9.36073 26.1582 9.36695 26.3069C9.37316 26.4557 9.40884 26.6017 9.4719 26.7366C9.53497 26.8714 9.62418 26.9924 9.73435 27.0925C9.84452 27.1927 9.97347 27.2699 10.1137 27.3198C10.254 27.3698 10.4027 27.3914 10.5514 27.3834C10.7001 27.3754 10.8457 27.3379 10.9797 27.2733C11.1138 27.2086 11.2337 27.1179 11.3325 27.0066L16.5179 21.3028L20.0513 26.8538C20.1528 27.0134 20.293 27.1449 20.4588 27.236C20.6247 27.3271 20.8108 27.3749 21 27.375H25.5C25.7016 27.3749 25.8994 27.3207 26.0728 27.218C26.2462 27.1153 26.3888 26.9679 26.4858 26.7913C26.5827 26.6146 26.6304 26.4151 26.6239 26.2137C26.6174 26.0123 26.5569 25.8163 26.4488 25.6463ZM21.6179 25.125L12.5494 10.875H14.3822L23.4507 25.125H21.6179Z" fill="#4B5563"/>
</svg>
