<svg width="33" height="34" viewBox="0 0 33 34" fill="currentColor" xmlns="http://www.w3.org/2000/svg">
<path d="M21.9772 15.6993L14.7585 11.0587C14.5248 10.9085 14.2551 10.8239 13.9775 10.814C13.6999 10.804 13.4247 10.8689 13.1809 11.002C12.9371 11.135 12.7336 11.3313 12.5918 11.5701C12.45 11.809 12.3751 12.0816 12.375 12.3594V21.6406C12.3751 21.9184 12.45 22.191 12.5918 22.4299C12.7336 22.6687 12.9371 22.865 13.1809 22.998C13.4247 23.1311 13.6999 23.196 13.9775 23.186C14.2551 23.1761 14.5248 23.0915 14.7585 22.9413L21.9772 18.3007C22.1949 18.1605 22.3739 17.9681 22.4979 17.7408C22.6218 17.5136 22.6868 17.2589 22.6868 17C22.6868 16.7411 22.6218 16.4864 22.4979 16.2592C22.3739 16.0319 22.1949 15.8395 21.9772 15.6993ZM15.4688 18.8047V15.1953L18.2802 17L15.4688 18.8047ZM30.7068 9.33008C30.5644 8.77539 30.2923 8.26245 29.9128 7.8335C29.5334 7.40455 29.0575 7.07186 28.5244 6.86281C24.0281 5.12902 16.9241 5.14063 16.5 5.14063C16.0759 5.14063 8.97188 5.12902 4.47563 6.86539C3.94247 7.07443 3.46658 7.40713 3.08716 7.83608C2.70774 8.26503 2.43563 8.77796 2.29324 9.33266C1.95293 10.6475 1.54688 13.0452 1.54688 17C1.54688 20.9548 1.95293 23.3525 2.29324 24.6673C2.43563 25.222 2.70774 25.735 3.08716 26.1639C3.46658 26.5929 3.94247 26.9256 4.47563 27.1346C8.7927 28.8014 15.5152 28.8594 16.4188 28.8594H16.5812C17.4836 28.8594 24.2073 28.8014 28.5244 27.1346C29.0575 26.9256 29.5334 26.5929 29.9128 26.1639C30.2923 25.735 30.5644 25.222 30.7068 24.6673C31.0471 23.3525 31.4531 20.9548 31.4531 17C31.4531 13.0452 31.0471 10.6475 30.7068 9.33266V9.33008ZM27.7148 23.8913C27.6962 23.9704 27.6592 24.044 27.6068 24.106C27.5544 24.1681 27.4881 24.2168 27.4132 24.2484C23.5615 25.7347 17.0504 25.7656 16.5413 25.7656H16.491C16.4227 25.7656 9.57645 25.7875 5.59066 24.2484C5.51509 24.2173 5.44798 24.1688 5.39487 24.1067C5.34175 24.0446 5.30415 23.9708 5.28516 23.8913C5.04281 22.958 4.64062 20.8208 4.64062 17C4.64062 13.1792 5.04668 11.042 5.28516 10.1087C5.30376 10.0296 5.34077 9.95604 5.39319 9.89399C5.44561 9.83194 5.51195 9.78315 5.5868 9.7516C9.57645 8.21246 16.4214 8.23438 16.4897 8.23438H16.509C16.5786 8.23438 23.4236 8.21246 27.4093 9.7516C27.4849 9.78266 27.552 9.83123 27.6051 9.89331C27.6582 9.95539 27.6959 10.0292 27.7148 10.1087C27.9572 11.042 28.3594 13.1792 28.3594 17C28.3594 20.8208 27.9533 22.958 27.7148 23.8913Z" />
</svg>
