<svg width="64" height="64" viewBox="0 0 64 64" fill="none" xmlns="http://www.w3.org/2000/svg">
<path d="M13.401 0C20.802 0 26.802 5.99802 26.802 13.3976C26.802 20.6702 21.0047 26.5851 13.7787 26.7857C13.7787 27.4011 13.8059 28.5636 14.1541 29.2655C14.6372 30.2391 17.5351 32.0518 20.3771 32.0518H21.3981C22.0397 27.484 25.9622 23.9687 30.708 23.9687C35.4345 23.9687 39.3455 27.4553 40.0108 31.9961H45.2931C45.9585 27.4553 49.8693 23.9687 54.5959 23.9687C59.7895 23.9687 63.9999 28.1779 63.9999 33.3705C63.9999 38.5628 59.7895 42.7719 54.5959 42.7719C49.8693 42.7719 45.9583 39.2851 45.2931 34.7443H40.011C39.3458 39.2851 35.4347 42.7719 30.708 42.7719C25.9904 42.7719 22.0846 39.2986 21.4084 34.7702L20.2795 34.8039C18.4208 34.7899 16.4571 34.2936 14.8799 33.222C14.4499 32.9298 14.0264 32.6227 13.5845 32.3319L13.5844 32.9423C13.5819 33.1397 13.5463 36.1065 13.5435 39.4006L13.5434 40.0981C13.5447 42.2584 13.5618 44.4843 13.6127 46.1078C13.7242 49.6696 16.6214 52.5442 19.8183 53.2171C20.2339 53.3043 20.9484 53.3155 21.3985 53.2766C22.0413 48.7104 25.9633 45.1966 30.708 45.1966C35.9016 45.1966 40.112 49.406 40.112 54.5983C40.112 59.7906 35.9016 64 30.708 64C26.0158 64 22.1272 60.564 21.4198 56.0716H20.6064C14.4974 55.7381 10.6993 50.1349 10.7655 45.5907C10.8491 39.8714 10.7861 34.1498 10.7852 28.4291V26.5381C4.63651 25.3216 0 19.9016 0 13.3976C0 5.99802 5.99975 0 13.401 0ZM30.708 47.9448C27.0327 47.9448 24.0531 50.9237 24.0531 54.5983C24.0531 58.2729 27.0327 61.2518 30.708 61.2518C34.3835 61.2518 37.3631 58.2729 37.3631 54.5983C37.3631 50.9237 34.3835 47.9448 30.708 47.9448ZM30.708 26.717C27.0327 26.717 24.0531 29.6958 24.0531 33.3705C24.0531 37.0448 27.0327 40.0237 30.708 40.0237C34.3835 40.0237 37.3631 37.0448 37.3631 33.3705C37.3631 29.6958 34.3835 26.717 30.708 26.717ZM54.5959 26.717C50.9203 26.717 47.941 29.6958 47.941 33.3705C47.941 37.0448 50.9203 40.0237 54.5959 40.0237C58.2714 40.0237 61.251 37.0448 61.251 33.3705C61.251 29.6958 58.2714 26.717 54.5959 26.717ZM58.386 30.5691C58.9097 31.0915 58.9241 31.9309 58.4286 32.4704L58.3885 32.5126L54.3112 36.5987C53.7916 37.1195 52.9576 37.1369 52.417 36.6482L52.3739 36.6074L50.3777 34.6425C49.8369 34.11 49.83 33.2399 50.3626 32.6992C50.8817 32.1722 51.721 32.1523 52.2642 32.6443L52.3063 32.6843L53.3294 33.6911L56.4423 30.5716C56.9783 30.0341 57.8486 30.0332 58.386 30.5691ZM34.3885 30.549C34.9122 31.0714 34.9267 31.9107 34.4312 32.4505L34.3911 32.4924L30.3137 36.5786C29.7942 37.0994 28.9601 37.1168 28.4195 36.6281L28.3764 36.5873L26.3803 34.6223C25.8394 34.0899 25.8325 33.2198 26.3651 32.6791C26.884 32.1521 27.7236 32.1322 28.2667 32.6244L28.3089 32.6642L29.3319 33.671L32.4448 30.5515C32.9809 30.0142 33.8511 30.0131 34.3885 30.549ZM13.401 2.74824C7.51807 2.74824 2.74892 7.51597 2.74892 13.3976C2.74892 19.2791 7.51807 24.0471 13.401 24.0471C19.2839 24.0471 24.0531 19.2791 24.0531 13.3976C24.0531 7.51597 19.2839 2.74824 13.401 2.74824ZM12.2927 7.0326C14.5337 8.379 16.7445 9.77167 18.9253 11.2104C20.7522 12.4155 20.7476 14.601 18.9004 15.8089C16.6806 17.2613 14.4256 18.654 12.1357 19.9869C10.272 21.0717 8.18576 19.8243 8.13514 17.6509C8.10261 16.2502 8.12918 14.8481 8.12735 13.4465C8.12574 12.0829 8.09894 10.7187 8.13193 9.35577C8.18759 7.04382 10.3159 5.83918 12.2927 7.0326ZM10.8153 9.25042V10.2176C10.8151 10.6965 10.8151 11.1689 10.8149 11.6361L10.8146 12.5637V13.9339C10.8149 14.9915 10.8153 16.0324 10.8172 17.0733C10.8181 17.5632 11.073 17.5432 11.4029 17.3389C13.3043 16.1604 15.2065 14.9832 17.1097 13.8072C17.4242 13.6132 17.4331 13.4106 17.1246 13.2159C15.0862 11.9313 13.0452 10.6511 10.8153 9.25042Z" fill="#4A7EBF"/>
<path d="M33.3068 55.9698C34.0658 55.9698 34.6813 55.3546 34.6813 54.5957C34.6813 53.8369 34.0658 53.2216 33.3068 53.2216C32.5479 53.2216 31.9324 53.8369 31.9324 54.5957C31.9324 55.3546 32.5479 55.9698 33.3068 55.9698Z" fill="#85B3DF"/>
<path d="M28.0449 55.9698C28.8038 55.9698 29.4193 55.3546 29.4193 54.5957C29.4193 53.8369 28.8038 53.2216 28.0449 53.2216C27.2859 53.2216 26.6704 53.8369 26.6704 54.5957C26.6704 55.3546 27.2859 55.9698 28.0449 55.9698Z" fill="#85B3DF"/>
<path d="M54.5961 61.2517C50.9205 61.2517 47.9412 58.2729 47.9412 54.5982C47.9412 50.9236 50.9205 47.9448 54.5961 47.9448C58.2714 47.9448 61.2512 50.9236 61.2512 54.5982C61.2512 58.2729 58.2714 61.2517 54.5961 61.2517ZM54.5961 45.1965C49.8695 45.1965 45.9585 48.6834 45.2933 53.2241H43.7552C43.0838 53.2241 42.5391 53.8395 42.5391 54.5982C42.5391 55.3572 43.0838 55.9724 43.7552 55.9724H45.2933C45.9585 60.5131 49.8695 64 54.5961 64C59.7897 64 64.0001 59.7906 64.0001 54.5982C64.0001 49.4059 59.7897 45.1965 54.5961 45.1965Z" fill="#85B3DF"/>
</svg>
