<svg width="65" height="64" viewBox="0 0 65 64" fill="none" xmlns="http://www.w3.org/2000/svg">
<path d="M64.5 46.309V60.5787H28.6524C18.2083 60.5787 9.08935 54.8398 4.21047 46.309C3.5012 45.0689 2.88044 43.7678 2.35973 42.4173C1.33752 39.771 0.69495 36.9312 0.5 33.9684V30.1104C0.542325 29.45 0.609018 28.7949 0.696233 28.1476C0.87451 26.8193 1.14385 25.5195 1.49784 24.2559C4.84662 12.2771 15.7356 3.5 28.6524 3.5C41.5691 3.5 52.4568 12.2771 55.8055 24.2559H40.4777C37.9612 20.3512 33.6056 17.7697 28.6524 17.7697C23.6991 17.7697 19.3435 20.3512 16.8271 24.2559C16.0601 25.4429 15.465 26.7518 15.0751 28.1476C14.7288 29.3852 14.5441 30.6903 14.5441 32.0395C14.5441 36.1296 16.2448 39.8163 18.9715 42.4173C21.4981 44.8315 24.9046 46.309 28.6524 46.309H64.5Z" fill="#FD366E"/>
<path d="M64.4997 28.1476V42.4173H38.3328C41.0594 39.8163 42.7602 36.1296 42.7602 32.0393C42.7602 30.6902 42.5755 29.3851 42.2291 28.1476H64.4997Z" fill="#FD366E"/>
</svg>
