<svg width="65" height="64" viewBox="0 0 65 64" fill="none" xmlns="http://www.w3.org/2000/svg">
<path fill-rule="evenodd" clip-rule="evenodd" d="M6.18809 57.602L0.36377 0H64.3638L58.5332 57.5926L32.3251 64L6.18809 57.602Z" fill="#0071BC"/>
<path fill-rule="evenodd" clip-rule="evenodd" d="M32.4175 59.0993L53.5687 53.9685L58.5244 4.797H32.4175V59.0993Z" fill="#29ABE2"/>
<path fill-rule="evenodd" clip-rule="evenodd" d="M13.6956 25.9598L14.3972 33.014L32.4175 25.9598V18.894L13.6956 25.9598Z" fill="#B3B3B3"/>
<path fill-rule="evenodd" clip-rule="evenodd" d="M52.3756 11.3518L32.4175 18.8941V25.9598L51.6874 18.4061L52.3756 11.3518Z" fill="#E6E6E6"/>
<path fill-rule="evenodd" clip-rule="evenodd" d="M32.4176 44.4171L32.3557 44.4253L23.4189 42.309L22.835 36.6823H14.792L15.9144 47.7674L32.3539 51.7811L32.4176 51.7678V44.4171Z" fill="#E6E6E6"/>
<path fill-rule="evenodd" clip-rule="evenodd" d="M32.4175 25.9597V33.014H42.2018L41.3125 42.2369L32.4175 44.4232V51.7733L48.8024 47.7596L50.96 25.9597H32.4175Z" fill="white"/>
<path fill-rule="evenodd" clip-rule="evenodd" d="M32.4175 25.9597H13.6956L14.3972 33.014H32.4175V25.9597Z" fill="#E6E6E6"/>
<path fill-rule="evenodd" clip-rule="evenodd" d="M32.4175 18.4061V11.3518H32.3362H12.2732L12.9831 18.4061H32.4175Z" fill="#E6E6E6"/>
<path fill-rule="evenodd" clip-rule="evenodd" d="M32.4175 11.3518V18.3176V18.4061H51.6874L52.3756 11.3518H32.4175Z" fill="white"/>
</svg>
