<svg width="64" height="64" viewBox="0 0 64 64" fill="none" xmlns="http://www.w3.org/2000/svg">
<path d="M49.8886 12.6441L51.2697 14.0298C53.6717 16.7145 55.0528 19.7456 55.353 23.2097C57.9351 22.5169 61.2378 23.0365 62.6789 24.4222L64 25.548L63.7598 26.2409C63.3395 27.5399 63.2194 27.8863 63.1593 28.0595C60.8174 34.5548 56.1937 34.6414 54.032 34.5548C48.5676 53.521 36.9182 64 21.1855 64C13.9197 64 8.39522 60.7957 4.67222 54.4736C-0.251743 46.1597 -0.251743 35.3342 0.168596 31.8701L0.288692 31.1773H43.7037C45.9855 31.1773 47.7269 30.3112 48.5676 29.6184C47.6668 27.7131 47.3666 25.548 47.3066 24.3356C47.1264 20.8714 47.7269 17.2341 48.9279 14.636L49.8886 12.6441ZM11.5778 20.7848V29.4452H4.97246V20.7848H11.5778ZM19.3841 20.7848V29.4452H12.7788V20.7848H19.3841ZM27.1904 20.7848V29.4452H20.585V20.7848H27.1904ZM34.9966 20.7848V29.4452H28.3913V20.7848H34.9966ZM42.8029 20.7848V29.4452H36.1976V20.7848H42.8029ZM34.9966 10.3924V19.0528H28.3913V10.3924H34.9966ZM27.1904 10.3924V19.0528H20.585V10.3924H27.1904ZM19.3841 10.3924V19.0528H12.7788V10.3924H19.3841ZM34.9966 0V8.66035H28.3913V0H34.9966Z" fill="#2396ED"/>
</svg>
