<svg width="65" height="64" viewBox="0 0 65 64" fill="none" xmlns="http://www.w3.org/2000/svg">
<g clip-path="url(#clip0_2429_2171)">
<path d="M64.2903 49.59C61.9623 50.182 60.5223 49.616 59.2303 47.676L50.0423 34.964L48.7143 33.204L37.9843 47.718C36.7583 49.464 35.4723 50.224 33.1843 49.606L46.9243 31.162L34.1323 14.502C36.3323 14.074 37.8523 14.292 39.2023 16.262L48.7323 29.132L58.3323 16.332C59.5623 14.586 60.8843 13.922 63.0923 14.566L58.1323 21.142L51.4123 29.892C50.6123 30.892 50.7223 31.576 51.4583 32.542L64.2903 49.59ZM0.306283 30.854L1.43028 25.326C4.49028 14.386 17.0303 9.84002 25.6783 16.6C30.7323 20.576 31.9883 26.2 31.7383 32.5H3.25028C2.82228 43.84 10.9843 50.684 21.3903 47.192C25.0403 45.966 27.1903 43.108 28.2663 39.532C28.8123 37.74 29.7163 37.46 31.4003 37.972C30.5403 42.444 28.6003 46.18 24.5003 48.518C18.3743 52.018 9.63028 50.886 5.03028 46.022C2.29028 43.2 1.15828 39.624 0.650283 35.8C0.570283 35.168 0.410283 34.566 0.290283 33.96C0.30095 32.9254 0.306283 31.8907 0.306283 30.856V30.854ZM3.30228 30.094H29.0463C28.8783 21.894 23.7723 16.07 16.7943 16.02C9.13428 15.96 3.63428 21.646 3.30228 30.094Z" fill="black"/>
</g>
<defs>
<clipPath id="clip0_2429_2171">
<rect width="64" height="64" fill="white" transform="translate(0.290283)"/>
</clipPath>
</defs>
</svg>
