<svg width="64" height="64" viewBox="0 0 64 64" fill="none" xmlns="http://www.w3.org/2000/svg">
<path d="M0 51.6586L0.531883 51.1161L25.6925 16.3396L25.7456 15.9714L14.6543 0.795535C13.7251 -0.47572 11.1091 -0.154303 10.8041 1.26877L0 51.6586Z" fill="#FFC24A"/>
<path d="M0.313721 51.245L0.716073 50.6735L25.6131 16.2613L14.5495 1.02372C13.63 -0.234213 11.295 0.08646 10.9932 1.49462L0.313721 51.245Z" fill="#FFA712"/>
<path d="M33.8313 27.4506L42.0896 21.2896L33.8289 9.80229C33.0447 8.71493 30.8552 8.7118 30.0793 9.80229L25.666 15.9336V16.4558L33.8313 27.4506Z" fill="#F4BD62"/>
<path d="M33.684 27.1939L41.7126 21.2042L33.684 10.068C32.9216 9.01085 31.0695 8.90009 30.3152 9.96025L25.8785 16.1866L25.7458 16.5049L33.684 27.1939Z" fill="#FFA50E"/>
<path d="M0 51.6587L0.241093 51.4821L1.11706 51.2228L33.3125 27.8576L33.7204 27.0487L25.6889 15.9003L0 51.6587Z" fill="#F6820C"/>
<path d="M34.8625 63.4423L64 51.605L55.6793 14.2764C55.419 13.1085 53.452 12.6467 52.3045 13.4842L0 51.6587L28.9704 63.4412C30.8013 64.1859 33.0311 64.1863 34.8625 63.4423Z" fill="#FDE068"/>
<path d="M63.7389 51.5057L55.4813 14.4605C55.223 13.3015 53.5873 12.8219 52.4485 13.6529L0.322998 51.5862L28.9752 63.2522C30.7922 63.9912 33.0051 63.9915 34.8225 63.2532L63.7389 51.5057Z" fill="#FCCA3F"/>
<path d="M34.8625 63.0935C33.0311 63.8375 30.8013 63.8372 28.9704 63.0925L0.23334 51.4792L0 51.6586L28.9704 63.4412C30.8013 64.1859 33.0311 64.1863 34.8625 63.4423L64 51.6049L63.9287 51.2852L34.8625 63.0935Z" fill="#EEAB37"/>
</svg>
