<svg width="64" height="64" viewBox="0 0 64 64" fill="none" xmlns="http://www.w3.org/2000/svg">
<path fill-rule="evenodd" clip-rule="evenodd" d="M5.82439 57.6023L0 0H64L58.1694 57.5933L31.9608 64L5.82439 57.6023Z" fill="#E44D26"/>
<path fill-rule="evenodd" clip-rule="evenodd" d="M32 59.103L53.1778 53.926L58.1604 4.70984H32V59.103Z" fill="#F16529"/>
<path d="M21.3979 26.0738H32V33.1384H14.0704L11.9094 11.7747H32V18.8394H20.6657L21.3979 26.0738Z" fill="#EBEBEB"/>
<path d="M31.9649 44.4298L32 44.4215V51.7718L31.9632 51.7808L15.5509 47.7634L14.4284 36.6708H22.4713L23.0418 42.3053L31.9649 44.4298Z" fill="#EBEBEB"/>
<path d="M31.9722 11.7747H52.0427L51.3253 18.8394H31.9722V11.7747Z" fill="white"/>
<path d="M31.9722 33.1384V26.0738H50.5962L50.4007 27.9708L48.3975 47.7634L31.9722 51.7774V44.4274L40.9082 42.3008L41.8382 33.1384H31.9722Z" fill="white"/>
</svg>
