<svg width="65" height="64" viewBox="0 0 65 64" fill="none" xmlns="http://www.w3.org/2000/svg">
<path d="M43.9015 6.63208V18.677L63.5306 53.4409C63.5306 53.4409 69.5232 61.9311 52.3837 64H13.2836C13.2836 64 -2.6914 62.8505 1.13836 54.1284L21.7665 18.6774V6.63208H43.9015Z" fill="#009688"/>
<path d="M44.3158 5.23154H20.7687C18.8616 5.23154 17.3103 4.06166 17.3103 2.61624C17.3103 1.16988 18.8609 0 20.7687 0H44.3158C46.2316 0 47.7802 1.16988 47.7802 2.61624C47.7802 4.06166 46.231 5.23154 44.3158 5.23154Z" fill="#004D40"/>
<path d="M38.1041 26.2988C40.6308 26.2988 42.6913 28.0012 42.6913 30.1095C42.6913 32.2086 40.6295 33.9151 38.1041 33.9151C35.5713 33.9151 33.5168 32.2086 33.5168 30.1095C33.5168 28.0003 35.5713 26.2988 38.1041 26.2988Z" fill="white"/>
<path d="M24.022 36.1842C26.1576 36.1842 27.8888 34.7454 27.8888 32.9705C27.8888 31.1957 26.1576 29.7568 24.022 29.7568C21.8865 29.7568 20.1553 31.1957 20.1553 32.9705C20.1553 34.7454 21.8865 36.1842 24.022 36.1842Z" fill="white"/>
<path d="M45.6472 17.8787V12.1499C45.6472 12.1499 56.1826 10.5481 61.4479 18.998C61.4479 18.998 53.2422 23.1204 45.6472 17.8787Z" fill="#004D40"/>
<path d="M19.8433 17.8787V12.1499C19.8433 12.1499 9.30659 10.5481 4.04395 18.998C4.04395 18.998 12.2416 23.1204 19.8433 17.8787Z" fill="#004D40"/>
<path d="M51.9813 41.5861C34.8493 37.9215 20.4458 39.8888 13.4058 41.3759L6.30666 53.1587C3.11059 60.1929 16.4559 61.1174 16.4559 61.1174H49.1128C63.4275 59.4498 58.4245 52.6067 58.4245 52.6067L51.9813 41.5861Z" fill="white"/>
<path d="M27.2914 45.964C27.2914 47.2346 24.8151 48.2681 21.765 48.2681C18.715 48.2681 16.2461 47.2341 16.2461 45.964C16.2461 44.6884 18.715 43.6586 21.765 43.6586C24.8165 43.6595 27.2914 44.6884 27.2914 45.964Z" fill="#004D40"/>
<path d="M46.9442 45.964C46.9442 47.2346 44.468 48.2681 41.4253 48.2681C38.3664 48.2681 35.8989 47.2341 35.8989 45.964C35.8989 44.6884 38.3664 43.6586 41.4253 43.6586C44.4693 43.6595 46.9442 44.6884 46.9442 45.964Z" fill="#004D40"/>
</svg>
