<svg width="65" height="64" viewBox="0 0 65 64" fill="none" xmlns="http://www.w3.org/2000/svg">
<path d="M0.727295 64V0H64.7273V64H0.727295Z" fill="#FFD600"/>
<path d="M42.5727 47.9058C43.8029 49.904 45.1398 51.8187 47.9718 51.8187C50.3504 51.8187 51.5984 50.6365 51.5984 49.0009C51.5984 47.0436 50.3078 46.3485 47.6909 45.2089L46.2562 44.5973C42.1158 42.8409 39.362 40.64 39.362 35.9911C39.362 31.7067 42.642 28.4462 47.7673 28.4462C51.4171 28.4462 54.0393 29.7102 55.9309 33.0205L51.4616 35.8773C50.4784 34.1209 49.4153 33.4293 47.7673 33.4293C46.0856 33.4293 45.0207 34.4907 45.0207 35.8773C45.0207 37.5911 46.0873 38.2845 48.5496 39.3458L49.9842 39.9573C54.8642 42.0356 57.6162 44.1582 57.6162 48.9298C57.6162 54.0711 53.5558 56.8889 48.1051 56.8889C42.7736 56.8889 39.746 54.2133 38.0607 50.9013L42.5727 47.9058ZM21.9753 48.0516C22.8749 49.6622 24.242 50.9013 26.2082 50.9013C28.0891 50.9013 29.1718 50.1582 29.1718 47.2693V28.4445H35.0971V48.1796C35.0971 54.1653 31.6251 56.8889 26.5549 56.8889C21.9736 56.8889 18.6669 53.7849 17.3193 50.9013L21.9753 48.0516Z" fill="#000001"/>
</svg>
