<svg width="65" height="64" viewBox="0 0 65 64" fill="none" xmlns="http://www.w3.org/2000/svg">
<path d="M64.0547 14.4785C64.0785 14.5638 64.0906 14.6518 64.0908 14.7402V28.4776C64.0908 28.6539 64.0429 28.8271 63.9519 28.9797C63.861 29.1322 63.7301 29.2588 63.5727 29.3465L51.703 35.9848V49.1426C51.703 49.5007 51.5071 49.8312 51.1875 50.0115L26.4106 63.8666C26.3538 63.8979 26.292 63.9179 26.2301 63.9392C26.2069 63.9467 26.185 63.9605 26.1605 63.9668C25.9873 64.0111 25.8052 64.0111 25.632 63.9668C25.6037 63.9593 25.5779 63.9442 25.5508 63.9342C25.4941 63.9142 25.4348 63.8967 25.3807 63.8666L0.608966 50.0115C0.451598 49.9237 0.320842 49.7971 0.229875 49.6446C0.138908 49.492 0.090945 49.3189 0.0908203 49.1426L0.0908203 7.93029C0.0908203 7.84014 0.10371 7.7525 0.12691 7.66736C0.134644 7.63856 0.152688 7.61227 0.163 7.58347C0.182334 7.53088 0.200378 7.47705 0.228735 7.42822C0.248068 7.39566 0.276425 7.36937 0.299625 7.33932C0.32927 7.29926 0.356338 7.25794 0.391139 7.22288C0.420784 7.19408 0.459451 7.1728 0.492963 7.14776C0.530342 7.11771 0.563854 7.08516 0.606388 7.06137H0.607677L12.9942 0.133807C13.151 0.04614 13.3288 0 13.5098 0C13.6907 0 13.8685 0.04614 14.0253 0.133807L26.4118 7.06137H26.4144C26.4557 7.08641 26.4905 7.11771 26.5278 7.14651C26.5614 7.17155 26.5987 7.19408 26.6284 7.22163C26.6645 7.25794 26.6902 7.29926 26.7212 7.33932C26.7431 7.36937 26.7727 7.39566 26.7908 7.42822C26.8204 7.4783 26.8372 7.53088 26.8578 7.58347C26.8681 7.61227 26.8862 7.63856 26.8939 7.66861C26.9176 7.75393 26.9298 7.8419 26.93 7.93029V33.6711L37.2517 27.8979V14.7389C37.2517 14.6513 37.2645 14.5624 37.2877 14.4785C37.2968 14.4484 37.3135 14.4221 37.3238 14.3933C37.3445 14.3408 37.3625 14.2869 37.3909 14.2381C37.4102 14.2055 37.4385 14.1792 37.4605 14.1492C37.4914 14.1091 37.5172 14.0678 37.5533 14.0327C37.5829 14.004 37.6203 13.9827 37.6538 13.9576C37.6925 13.9276 37.726 13.895 37.7672 13.8712H37.7685L50.1563 6.94368C50.3131 6.85589 50.4909 6.80968 50.6719 6.80968C50.8529 6.80968 51.0307 6.85589 51.1875 6.94368L63.574 13.8712C63.6178 13.8963 63.6513 13.9276 63.69 13.9564C63.7222 13.9814 63.7596 14.004 63.7892 14.0315C63.8253 14.0678 63.8511 14.1091 63.882 14.1492C63.9052 14.1792 63.9336 14.2055 63.9516 14.2381C63.9813 14.2869 63.998 14.3408 64.0186 14.3933C64.0302 14.4221 64.047 14.4484 64.0547 14.4785ZM62.026 27.8979V16.4742L57.6913 18.8982L51.703 22.2474V33.6711L62.0273 27.8979H62.026ZM49.6395 48.5629V37.1317L43.7491 40.3995L26.9287 49.7248V61.2636L49.6395 48.5629ZM2.15567 9.66437V48.5629L24.8638 61.2624V49.726L13.0006 43.2041L12.9968 43.2016L12.9916 43.1991C12.9517 43.1766 12.9181 43.144 12.8808 43.1165C12.8485 43.0914 12.8112 43.0714 12.7828 43.0439L12.7802 43.0401C12.7467 43.0088 12.7235 42.97 12.6952 42.9349C12.6694 42.9011 12.6384 42.8723 12.6178 42.8373L12.6165 42.8335C12.5933 42.796 12.5792 42.7509 12.5624 42.7083C12.5456 42.6708 12.5237 42.6357 12.5134 42.5956V42.5944C12.5005 42.5468 12.498 42.4967 12.4928 42.4479C12.4876 42.4103 12.4773 42.3728 12.4773 42.3352V15.4375L6.4903 12.0871L2.15567 9.66562V9.66437ZM13.511 2.15961L3.19067 7.93029L13.5085 13.701L23.8276 7.92903L13.5085 2.15961H13.511ZM18.8781 38.1734L24.8651 34.8254V9.66437L20.5305 12.0883L14.5422 15.4375V40.5986L18.8781 38.1734ZM50.6719 8.96948L40.3528 14.7402L50.6719 20.5108L60.9897 14.7389L50.6719 8.96948ZM49.6395 22.2474L43.6511 18.8982L39.3165 16.4742V27.8979L45.3035 31.2458L49.6395 33.6711V22.2474ZM25.895 47.9907L41.0308 39.597L48.5967 35.4026L38.2854 29.6357L26.4131 36.2753L15.5927 42.3264L25.895 47.9907Z" fill="#FF2D20"/>
</svg>
