<svg width="57" height="64" viewBox="0 0 57 64" fill="none" xmlns="http://www.w3.org/2000/svg">
<g clip-path="url(#clip0_2429_2166)">
<path d="M28.5673 64C27.7093 64 26.9085 63.7668 26.1649 63.3586L18.5576 58.7517C17.4137 58.1102 17.9856 57.877 18.3288 57.7603C19.8732 57.2355 20.1592 57.1189 21.7607 56.1859C21.9323 56.0692 22.1611 56.1275 22.3326 56.2442L28.1668 59.8014C28.3957 59.918 28.6816 59.918 28.8532 59.8014L51.6752 46.3307C51.904 46.214 52.0184 45.9808 52.0184 45.6892V18.806C52.0184 18.5145 51.904 18.2812 51.6752 18.1646L28.8532 4.75223C28.6245 4.63561 28.3384 4.63561 28.1668 4.75223L5.3449 18.1646C5.11612 18.2812 5.00172 18.5728 5.00172 18.806V45.6892C5.00172 45.9224 5.11612 46.214 5.3449 46.3307L11.5795 50.0045C14.9542 51.7539 17.0704 49.7129 17.0704 47.6719V21.1386C17.0704 20.7888 17.3565 20.4389 17.7568 20.4389H20.674C21.0171 20.4389 21.3603 20.7305 21.3603 21.1386V47.6719C21.3603 52.2788 18.9008 54.9613 14.6109 54.9613C13.2954 54.9613 12.2659 54.9613 9.34873 53.5034L3.34298 50.0045C1.85584 49.1297 0.940674 47.4969 0.940674 45.7475V18.8644C0.940674 17.115 1.85584 15.4822 3.34298 14.6074L26.1649 1.13672C27.5949 0.320313 29.5396 0.320313 30.9696 1.13672L53.7915 14.6074C55.2787 15.4822 56.1938 17.115 56.1938 18.8644V45.7475C56.1938 47.4969 55.2787 49.1297 53.7915 50.0045L30.9696 63.4752C30.2832 63.7668 29.4252 64 28.5673 64Z" fill="#539E43"/>
<path d="M35.6598 45.5143C25.6502 45.5143 23.5911 40.8491 23.5911 36.8837C23.5911 36.5339 23.877 36.184 24.2774 36.184H27.2517C27.5949 36.184 27.8809 36.4172 27.8809 36.7671C28.3384 39.8577 29.654 41.374 35.717 41.374C40.5216 41.374 42.5807 40.266 42.5807 37.6418C42.5807 36.1256 42.0087 35.0176 34.5158 34.2595C28.2813 33.6181 24.3918 32.2186 24.3918 27.1451C24.3918 22.4216 28.2813 19.6226 34.8018 19.6226C42.1231 19.6226 45.7266 22.1884 46.1842 27.7866C46.1842 27.9616 46.127 28.1365 46.0126 28.3115C45.8982 28.4281 45.7266 28.5447 45.555 28.5447H42.5235C42.2375 28.5447 41.9515 28.3115 41.8944 28.0198C41.208 24.8126 39.4348 23.7629 34.7446 23.7629C29.4824 23.7629 28.8533 25.629 28.8533 27.0285C28.8533 28.7196 29.5968 29.2445 36.6894 30.1775C43.7247 31.1106 47.0422 32.4518 47.0422 37.4669C47.0422 42.5986 42.8667 45.5143 35.6598 45.5143Z" fill="#539E43"/>
</g>
<defs>
<clipPath id="clip0_2429_2166">
<rect width="56.32" height="64" fill="white" transform="translate(0.307861)"/>
</clipPath>
</defs>
</svg>
