<svg width="65" height="64" viewBox="0 0 65 64" fill="none" xmlns="http://www.w3.org/2000/svg">
<rect x="2.625" y="2.625" width="40.5" height="38.5" fill="white"/>
<rect x="22.875" y="21.875" width="40" height="39.625" fill="white"/>
<path d="M15.6573 32C15.436 32.0004 15.2169 31.957 15.0124 31.8724C14.8079 31.7878 14.6221 31.6636 14.4658 31.507C14.3094 31.3504 14.1855 31.1644 14.1013 30.9598C14.017 30.7552 13.974 30.536 13.9747 30.3147V11.7893C13.9747 10.8587 14.7267 10.104 15.6573 10.104H21.9773C23.204 10.104 24.348 10.2276 25.4093 10.4747C26.4938 10.6969 27.4298 11.088 28.2173 11.648C29.0244 12.1867 29.66 12.9156 30.124 13.8347C30.5862 14.7271 30.8173 15.8347 30.8173 17.1573C30.8173 18.4338 30.5747 19.5422 30.0893 20.4827C29.6464 21.3953 28.9929 22.1896 28.1827 22.8C27.34 23.4208 26.3871 23.876 25.3747 24.1413C24.3116 24.4347 23.18 24.5804 21.98 24.5787H20.7533C20.5318 24.578 20.3123 24.6211 20.1076 24.7055C19.9028 24.79 19.7167 24.9141 19.5601 25.0707C19.4034 25.2274 19.2793 25.4134 19.1949 25.6182C19.1104 25.823 19.0673 26.0425 19.068 26.264V30.3173C19.0684 30.5386 19.025 30.7578 18.9404 30.9623C18.8558 31.1668 18.7316 31.3525 18.575 31.5089C18.4184 31.6652 18.2324 31.7891 18.0278 31.8734C17.8232 31.9577 17.604 32.0007 17.3827 32H15.6573ZM19.068 18.9653C19.068 19.896 19.8227 20.6507 20.7533 20.6507H21.668C24.4413 20.6507 25.828 19.4862 25.828 17.1573C25.828 16.016 25.4689 15.2098 24.7507 14.7387C24.0573 14.2693 23.0298 14.0347 21.668 14.0347H20.7533C20.532 14.034 20.3128 14.077 20.1082 14.1613C19.9036 14.2455 19.7176 14.3694 19.561 14.5258C19.4044 14.6821 19.2802 14.8679 19.1956 15.0724C19.111 15.2769 19.0676 15.496 19.068 15.7173V18.9653ZM35.868 53.8933C35.6469 53.8937 35.428 53.8504 35.2237 53.766C35.0193 53.6815 34.8337 53.5576 34.6774 53.4013C34.5211 53.245 34.3971 53.0593 34.3127 52.855C34.2283 52.6507 34.185 52.4317 34.1853 52.2107V33.6853C34.1846 33.464 34.2277 33.2448 34.3119 33.0402C34.3962 32.8356 34.5201 32.6496 34.6764 32.493C34.8328 32.3364 35.0186 32.2122 35.223 32.1276C35.4275 32.043 35.6467 31.9996 35.868 32H41.7427C42.916 32 43.9969 32.0889 44.9853 32.2667C45.9987 32.4267 46.8733 32.7182 47.6093 33.1413C48.3453 33.568 48.9204 34.128 49.3347 34.8213C49.772 35.5147 49.9907 36.3876 49.9907 37.44C49.9907 37.9342 49.9107 38.4267 49.7507 38.9173C49.6109 39.4166 49.3754 39.8839 49.0573 40.2933C48.3527 41.2363 47.3357 41.898 46.188 42.16C46.1702 42.1643 46.1543 42.1746 46.1432 42.1891C46.132 42.2037 46.1262 42.2217 46.1267 42.24C46.1267 42.28 46.1533 42.3147 46.1933 42.32C47.7702 42.6169 48.9667 43.1733 49.7827 43.9893C50.6111 44.816 51.0253 45.9689 51.0253 47.448C51.0253 48.568 50.8067 49.5307 50.3693 50.336C49.9307 51.1438 49.3042 51.8344 48.5427 52.3493C47.6935 52.8922 46.7598 53.2896 45.78 53.5253C44.6711 53.7796 43.5363 53.904 42.3987 53.896L35.868 53.8933ZM39.2573 39.1147C39.2573 40.0453 40.012 40.7973 40.9427 40.7973H41.5027C42.7436 40.7973 43.6404 40.5627 44.1933 40.0933C44.7462 39.624 45.0218 38.9636 45.02 38.112C45.02 37.3067 44.7329 36.736 44.1587 36.4C43.6076 36.0409 42.7329 35.8613 41.5347 35.8613H40.9427C40.7211 35.8606 40.5017 35.9037 40.2969 35.9882C40.0921 36.0726 39.906 36.1968 39.7494 36.3534C39.5927 36.51 39.4686 36.6961 39.3842 36.9009C39.2997 37.1057 39.2566 37.3251 39.2573 37.5467V39.1147ZM39.2573 48.3493C39.2573 49.28 40.012 50.032 40.9427 50.032H41.9827C44.6991 50.032 46.0573 49.0471 46.0573 47.0773C46.0573 46.1173 45.7231 45.424 45.0547 44.9973C44.4129 44.5707 43.3889 44.3573 41.9827 44.3573H40.9427C40.7211 44.3566 40.5017 44.3997 40.2969 44.4842C40.0921 44.5686 39.906 44.6927 39.7494 44.8494C39.5927 45.006 39.4686 45.1921 39.3842 45.3969C39.2997 45.6017 39.2566 45.8212 39.2573 46.0427V48.3493ZM4.204 0C2.17733 0 0.5 1.67733 0.5 3.704V40.08C0.506973 41.0605 0.89937 41.9988 1.59242 42.6924C2.28548 43.3859 3.22355 43.779 4.204 43.7867H22.3933C22.6144 43.7867 22.8333 43.743 23.0375 43.6583C23.2417 43.5735 23.4271 43.4493 23.5832 43.2927C23.7392 43.1362 23.8629 42.9503 23.947 42.7459C24.0311 42.5414 24.074 42.3224 24.0733 42.1013C24.0733 41.6558 23.8963 41.2285 23.5813 40.9134C23.2662 40.5983 22.8389 40.4213 22.3933 40.4213H4.204C3.996 40.4213 3.87067 40.288 3.87067 40.08V3.70667C3.87067 3.49867 3.996 3.37333 4.204 3.37333H40.58C40.788 3.37333 40.9187 3.49867 40.9187 3.70667V21.8933C40.9187 22.1142 40.9622 22.3329 41.0468 22.5369C41.1314 22.7409 41.2554 22.9262 41.4117 23.0822C41.568 23.2383 41.7535 23.3619 41.9576 23.4462C42.1617 23.5305 42.3805 23.5737 42.6013 23.5733C42.8226 23.5744 43.042 23.5317 43.2467 23.4478C43.4515 23.3638 43.6376 23.2402 43.7944 23.0841C43.9513 22.928 44.0758 22.7424 44.1607 22.5381C44.2456 22.3337 44.2893 22.1146 44.2893 21.8933V3.704C44.2817 2.72401 43.889 1.78633 43.196 1.09335C42.503 0.400375 41.5653 0.00767014 40.5853 0L4.204 0ZM42.6067 20.208C42.3849 20.2073 42.1652 20.2505 41.9603 20.3351C41.7553 20.4197 41.5691 20.5441 41.4124 20.701C41.2558 20.8579 41.1317 21.0443 41.0474 21.2494C40.9631 21.4545 40.9203 21.6743 40.9213 21.896C40.9213 22.1168 40.9649 22.3355 41.0495 22.5395C41.1341 22.7435 41.2581 22.9288 41.4143 23.0849C41.5706 23.2409 41.7561 23.3646 41.9603 23.4489C42.1644 23.5332 42.3832 23.5763 42.604 23.576H60.796C61.004 23.576 61.1293 23.7093 61.1293 23.9173V60.2933C61.1293 60.5013 61.004 60.6267 60.796 60.6267H24.42C24.2147 60.6267 24.0813 60.5013 24.0813 60.2933V42.1067C24.0813 41.8858 24.0378 41.6671 23.9532 41.4631C23.8686 41.2591 23.7446 41.0738 23.5883 40.9178C23.432 40.7617 23.2465 40.6381 23.0424 40.5538C22.8383 40.4695 22.6195 40.4263 22.3987 40.4267C22.1774 40.4256 21.9581 40.4683 21.7533 40.5522C21.5485 40.6362 21.3624 40.7598 21.2056 40.9159C21.0487 41.072 20.9242 41.2576 20.8393 41.4619C20.7544 41.6663 20.7107 41.8854 20.7107 42.1067V60.2987C20.719 61.2782 21.112 62.2152 21.805 62.9076C22.4979 63.6 23.4351 63.9923 24.4147 64H60.796C62.8227 64 64.5 62.3227 64.5 60.296V23.92C64.493 22.9395 64.1006 22.0012 63.4076 21.3076C62.7145 20.6141 61.7765 20.221 60.796 20.2133L42.6067 20.208Z" fill="black"/>
</svg>
