<svg width="65" height="64" viewBox="0 0 65 64" fill="none" xmlns="http://www.w3.org/2000/svg">
<path d="M51.3928 12.1904H47.7976C47.1073 12.1904 46.5476 12.7501 46.5476 13.4404V13.988C46.5476 14.6784 47.1073 15.238 47.7976 15.238H51.3928C52.0832 15.238 52.6428 14.6784 52.6428 13.988V13.4404C52.6428 12.7501 52.0832 12.1904 51.3928 12.1904Z" fill="#56B3B4"/>
<path d="M17.869 60.9524H2.08325C1.3929 60.9524 0.833252 61.512 0.833252 62.2024V62.75C0.833252 63.4404 1.3929 64 2.08325 64H17.869C18.5593 64 19.119 63.4404 19.119 62.75V62.2024C19.119 61.512 18.5593 60.9524 17.869 60.9524Z" fill="#EA5E5E"/>
<path d="M48.3453 36.5714H38.6548C37.9644 36.5714 37.4048 37.1311 37.4048 37.8214V38.369C37.4048 39.0594 37.9644 39.619 38.6548 39.619H48.3453C49.0356 39.619 49.5953 39.0594 49.5953 38.369V37.8214C49.5953 37.1311 49.0356 36.5714 48.3453 36.5714Z" fill="#BF85BF"/>
<path d="M33.107 36.5714H20.3689C19.6785 36.5714 19.1189 37.1311 19.1189 37.8214V38.369C19.1189 39.0594 19.6785 39.619 20.3689 39.619H33.107C33.7973 39.619 34.357 39.0594 34.357 38.369V37.8214C34.357 37.1311 33.7973 36.5714 33.107 36.5714Z" fill="#EA5E5E"/>
<path d="M14.8213 36.5714H2.08325C1.3929 36.5714 0.833252 37.1311 0.833252 37.8214V38.369C0.833252 39.0594 1.3929 39.619 2.08325 39.619H14.8213C15.5117 39.619 16.0713 39.0594 16.0713 38.369V37.8214C16.0713 37.1311 15.5117 36.5714 14.8213 36.5714Z" fill="#56B3B4"/>
<path d="M17.869 48.762H2.08325C1.3929 48.762 0.833252 49.3216 0.833252 50.012V50.5596C0.833252 51.2499 1.3929 51.8096 2.08325 51.8096H17.869C18.5593 51.8096 19.119 51.2499 19.119 50.5596V50.012C19.119 49.3216 18.5593 48.762 17.869 48.762Z" fill="#BF85BF"/>
<path d="M17.869 24.381H2.08325C1.3929 24.381 0.833252 24.9406 0.833252 25.631V26.1786C0.833252 26.869 1.3929 27.4286 2.08325 27.4286H17.869C18.5593 27.4286 19.119 26.869 19.119 26.1786V25.631C19.119 24.9406 18.5593 24.381 17.869 24.381Z" fill="#BF85BF"/>
<path d="M48.3451 6.09521H17.3213C16.6309 6.09521 16.0713 6.65486 16.0713 7.34521V7.89283C16.0713 8.58319 16.6309 9.14283 17.3213 9.14283H48.3451C49.0355 9.14283 49.5951 8.58319 49.5951 7.89283V7.34521C49.5951 6.65486 49.0355 6.09521 48.3451 6.09521Z" fill="#F7BA3E"/>
<path d="M11.7737 6.09521H2.08325C1.3929 6.09521 0.833252 6.65486 0.833252 7.34521V7.89283C0.833252 8.58319 1.3929 9.14283 2.08325 9.14283H11.7737C12.4641 9.14283 13.0237 8.58319 13.0237 7.89283V7.34521C13.0237 6.65486 12.4641 6.09521 11.7737 6.09521Z" fill="#EA5E5E"/>
<path d="M17.8689 54.8572H14.2737C13.5833 54.8572 13.0237 55.4168 13.0237 56.1072V56.6548C13.0237 57.3452 13.5833 57.9048 14.2737 57.9048H17.8689C18.5593 57.9048 19.1189 57.3452 19.1189 56.6548V56.1072C19.1189 55.4168 18.5593 54.8572 17.8689 54.8572Z" fill="#F7BA3E"/>
<path d="M17.8689 18.2858H14.2737C13.5833 18.2858 13.0237 18.8454 13.0237 19.5358V20.0834C13.0237 20.7737 13.5833 21.3334 14.2737 21.3334H17.8689C18.5593 21.3334 19.1189 20.7737 19.1189 20.0834V19.5358C19.1189 18.8454 18.5593 18.2858 17.8689 18.2858Z" fill="#56B3B4"/>
<path d="M8.72611 54.8572H2.08325C1.3929 54.8572 0.833252 55.4168 0.833252 56.1072V56.6548C0.833252 57.3452 1.3929 57.9048 2.08325 57.9048H8.72611C9.41646 57.9048 9.97611 57.3452 9.97611 56.6548V56.1072C9.97611 55.4168 9.41646 54.8572 8.72611 54.8572Z" fill="#56B3B4"/>
<path d="M8.72611 18.2858H2.08325C1.3929 18.2858 0.833252 18.8454 0.833252 19.5358V20.0834C0.833252 20.7737 1.3929 21.3334 2.08325 21.3334H8.72611C9.41646 21.3334 9.97611 20.7737 9.97611 20.0834V19.5358C9.97611 18.8454 9.41646 18.2858 8.72611 18.2858Z" fill="#F7BA3E"/>
<path opacity="0.5" d="M45.2974 54.8572H41.7021C41.0118 54.8572 40.4521 55.4168 40.4521 56.1072V56.6548C40.4521 57.3452 41.0118 57.9048 41.7021 57.9048H45.2974C45.9877 57.9048 46.5474 57.3452 46.5474 56.6548V56.1072C46.5474 55.4168 45.9877 54.8572 45.2974 54.8572Z" fill="#D0D4D8"/>
<path opacity="0.5" d="M36.1546 54.8572H23.4165C22.7261 54.8572 22.1665 55.4168 22.1665 56.1072V56.6548C22.1665 57.3452 22.7261 57.9048 23.4165 57.9048H36.1546C36.845 57.9048 37.4046 57.3452 37.4046 56.6548V56.1072C37.4046 55.4168 36.845 54.8572 36.1546 54.8572Z" fill="#D0D4D8"/>
<path opacity="0.5" d="M63.5833 54.8572H50.8452C50.1549 54.8572 49.5952 55.4168 49.5952 56.1072V56.6548C49.5952 57.3452 50.1549 57.9048 50.8452 57.9048H63.5833C64.2737 57.9048 64.8333 57.3452 64.8333 56.6548V56.1072C64.8333 55.4168 64.2737 54.8572 63.5833 54.8572Z" fill="#D0D4D8"/>
<path d="M51.3929 30.4762H26.4644C25.774 30.4762 25.2144 31.0358 25.2144 31.7262V32.2738C25.2144 32.9642 25.774 33.5238 26.4644 33.5238H51.3929C52.0833 33.5238 52.6429 32.9642 52.6429 32.2738V31.7262C52.6429 31.0358 52.0833 30.4762 51.3929 30.4762Z" fill="#56B3B4"/>
<path d="M20.9166 30.4762H11.2261C10.5357 30.4762 9.97607 31.0358 9.97607 31.7262V32.2738C9.97607 32.9642 10.5357 33.5238 11.2261 33.5238H20.9166C21.6069 33.5238 22.1666 32.9642 22.1666 32.2738V31.7262C22.1666 31.0358 21.6069 30.4762 20.9166 30.4762Z" fill="#F7BA3E"/>
<path d="M5.67849 30.4762H2.08325C1.3929 30.4762 0.833252 31.0358 0.833252 31.7262V32.2738C0.833252 32.9642 1.3929 33.5238 2.08325 33.5238H5.67849C6.36885 33.5238 6.92849 32.9642 6.92849 32.2738V31.7262C6.92849 31.0358 6.36885 30.4762 5.67849 30.4762Z" fill="#EA5E5E"/>
<path d="M42.2498 12.1904H29.5117C28.8214 12.1904 28.2617 12.7501 28.2617 13.4404V13.988C28.2617 14.6784 28.8214 15.238 29.5117 15.238H42.2498C42.9402 15.238 43.4998 14.6784 43.4998 13.988V13.4404C43.4998 12.7501 42.9402 12.1904 42.2498 12.1904Z" fill="#BF85BF"/>
<path d="M23.9642 12.1904H2.08325C1.3929 12.1904 0.833252 12.7501 0.833252 13.4404V13.988C0.833252 14.6784 1.3929 15.238 2.08325 15.238H23.9642C24.6546 15.238 25.2142 14.6784 25.2142 13.988V13.4404C25.2142 12.7501 24.6546 12.1904 23.9642 12.1904Z" fill="#56B3B4"/>
<path d="M39.2023 42.6666H11.2261C10.5357 42.6666 9.97607 43.2263 9.97607 43.9166V44.4642C9.97607 45.1546 10.5357 45.7142 11.2261 45.7142H39.2023C39.8926 45.7142 40.4523 45.1546 40.4523 44.4642V43.9166C40.4523 43.2263 39.8926 42.6666 39.2023 42.6666Z" fill="#F7BA3E"/>
<path d="M5.67849 42.6666H2.08325C1.3929 42.6666 0.833252 43.2263 0.833252 43.9166V44.4642C0.833252 45.1546 1.3929 45.7142 2.08325 45.7142H5.67849C6.36885 45.7142 6.92849 45.1546 6.92849 44.4642V43.9166C6.92849 43.2263 6.36885 42.6666 5.67849 42.6666Z" fill="#BF85BF"/>
<path d="M54.4405 18.2858H38.6548C37.9644 18.2858 37.4048 18.8454 37.4048 19.5358V20.0834C37.4048 20.7737 37.9644 21.3334 38.6548 21.3334H54.4405C55.1309 21.3334 55.6905 20.7737 55.6905 20.0834V19.5358C55.6905 18.8454 55.1309 18.2858 54.4405 18.2858Z" fill="#EA5E5E"/>
<path d="M54.4405 24.381H38.6548C37.9644 24.381 37.4048 24.9406 37.4048 25.631V26.1786C37.4048 26.869 37.9644 27.4286 38.6548 27.4286H54.4405C55.1309 27.4286 55.6905 26.869 55.6905 26.1786V25.631C55.6905 24.9406 55.1309 24.381 54.4405 24.381Z" fill="#F7BA3E"/>
<path d="M39.2023 0H2.08325C1.3929 0 0.833252 0.559644 0.833252 1.25V1.79762C0.833252 2.48798 1.3929 3.04762 2.08325 3.04762H39.2023C39.8927 3.04762 40.4523 2.48798 40.4523 1.79762V1.25C40.4523 0.559644 39.8927 0 39.2023 0Z" fill="#56B3B4"/>
<path opacity="0.5" d="M63.5833 0H44.75C44.0596 0 43.5 0.559644 43.5 1.25V1.79762C43.5 2.48798 44.0596 3.04762 44.75 3.04762H63.5833C64.2737 3.04762 64.8333 2.48798 64.8333 1.79762V1.25C64.8333 0.559644 64.2737 0 63.5833 0Z" fill="#D0D4D8"/>
<path opacity="0.5" d="M51.3929 42.6666H44.75C44.0596 42.6666 43.5 43.2263 43.5 43.9166V44.4642C43.5 45.1546 44.0596 45.7142 44.75 45.7142H51.3929C52.0832 45.7142 52.6429 45.1546 52.6429 44.4642V43.9166C52.6429 43.2263 52.0832 42.6666 51.3929 42.6666Z" fill="#D0D4D8"/>
<path opacity="0.5" d="M63.5833 42.6666H56.9404C56.2501 42.6666 55.6904 43.2263 55.6904 43.9166V44.4642C55.6904 45.1546 56.2501 45.7142 56.9404 45.7142H63.5833C64.2736 45.7142 64.8333 45.1546 64.8333 44.4642V43.9166C64.8333 43.2263 64.2736 42.6666 63.5833 42.6666Z" fill="#D0D4D8"/>
<path opacity="0.5" d="M63.5833 36.5714H53.8928C53.2025 36.5714 52.6428 37.1311 52.6428 37.8214V38.369C52.6428 39.0594 53.2025 39.619 53.8928 39.619H63.5833C64.2737 39.619 64.8333 39.0594 64.8333 38.369V37.8214C64.8333 37.1311 64.2737 36.5714 63.5833 36.5714Z" fill="#D0D4D8"/>
<path opacity="0.5" d="M63.5833 6.09521H53.8928C53.2025 6.09521 52.6428 6.65486 52.6428 7.34521V7.89283C52.6428 8.58319 53.2025 9.14283 53.8928 9.14283H63.5833C64.2737 9.14283 64.8333 8.58319 64.8333 7.89283V7.34521C64.8333 6.65486 64.2737 6.09521 63.5833 6.09521Z" fill="#D0D4D8"/>
<path opacity="0.5" d="M63.5833 30.4762H56.9404C56.2501 30.4762 55.6904 31.0358 55.6904 31.7262V32.2738C55.6904 32.9642 56.2501 33.5238 56.9404 33.5238H63.5833C64.2736 33.5238 64.8333 32.9642 64.8333 32.2738V31.7262C64.8333 31.0358 64.2736 30.4762 63.5833 30.4762Z" fill="#D0D4D8"/>
<path opacity="0.5" d="M63.5833 12.1904H56.9404C56.2501 12.1904 55.6904 12.7501 55.6904 13.4404V13.988C55.6904 14.6784 56.2501 15.238 56.9404 15.238H63.5833C64.2736 15.238 64.8333 14.6784 64.8333 13.988V13.4404C64.8333 12.7501 64.2736 12.1904 63.5833 12.1904Z" fill="#D0D4D8"/>
<path opacity="0.5" d="M63.5833 18.2858H59.988C59.2977 18.2858 58.738 18.8454 58.738 19.5358V20.0834C58.738 20.7737 59.2977 21.3334 59.988 21.3334H63.5833C64.2736 21.3334 64.8333 20.7737 64.8333 20.0834V19.5358C64.8333 18.8454 64.2736 18.2858 63.5833 18.2858Z" fill="#D0D4D8"/>
<path opacity="0.5" d="M63.5833 24.381H59.988C59.2977 24.381 58.738 24.9406 58.738 25.631V26.1786C58.738 26.869 59.2977 27.4286 59.988 27.4286H63.5833C64.2736 27.4286 64.8333 26.869 64.8333 26.1786V25.631C64.8333 24.9406 64.2736 24.381 63.5833 24.381Z" fill="#D0D4D8"/>
<path opacity="0.5" d="M63.5831 48.762H35.6069C34.9166 48.762 34.3569 49.3216 34.3569 50.012V50.5596C34.3569 51.2499 34.9166 51.8096 35.6069 51.8096H63.5831C64.2735 51.8096 64.8331 51.2499 64.8331 50.5596V50.012C64.8331 49.3216 64.2735 48.762 63.5831 48.762Z" fill="#D0D4D8"/>
<path opacity="0.5" d="M30.0594 48.762H23.4165C22.7261 48.762 22.1665 49.3216 22.1665 50.012V50.5596C22.1665 51.2499 22.7261 51.8096 23.4165 51.8096H30.0594C30.7497 51.8096 31.3094 51.2499 31.3094 50.5596V50.012C31.3094 49.3216 30.7497 48.762 30.0594 48.762Z" fill="#D0D4D8"/>
<path opacity="0.5" d="M63.5833 60.9524H47.7976C47.1073 60.9524 46.5476 61.512 46.5476 62.2024V62.75C46.5476 63.4404 47.1073 64 47.7976 64H63.5833C64.2737 64 64.8333 63.4404 64.8333 62.75V62.2024C64.8333 61.512 64.2737 60.9524 63.5833 60.9524Z" fill="#D0D4D8"/>
<path opacity="0.5" d="M42.2498 60.9524H23.4165C22.7261 60.9524 22.1665 61.512 22.1665 62.2024V62.75C22.1665 63.4404 22.7261 64 23.4165 64H42.2498C42.9402 64 43.4998 63.4404 43.4998 62.75V62.2024C43.4998 61.512 42.9402 60.9524 42.2498 60.9524Z" fill="#D0D4D8"/>
<path opacity="0.5" d="M33.107 18.2858H23.4165C22.7261 18.2858 22.1665 18.8454 22.1665 19.5358V20.0834C22.1665 20.7737 22.7261 21.3334 23.4165 21.3334H33.107C33.7973 21.3334 34.357 20.7737 34.357 20.0834V19.5358C34.357 18.8454 33.7973 18.2858 33.107 18.2858Z" fill="#D0D4D8"/>
<path opacity="0.5" d="M33.107 24.381H23.4165C22.7261 24.381 22.1665 24.9406 22.1665 25.631V26.1786C22.1665 26.869 22.7261 27.4286 23.4165 27.4286H33.107C33.7973 27.4286 34.357 26.869 34.357 26.1786V25.631C34.357 24.9406 33.7973 24.381 33.107 24.381Z" fill="#D0D4D8"/>
</svg>
