<svg width="65" height="64" viewBox="0 0 65 64" fill="none" xmlns="http://www.w3.org/2000/svg">
<path d="M32.4055 0C16.1583 1.1649e-06 17.1729 7.08263 17.1729 7.08263L17.191 14.4202H32.6953V16.6233H11.0328C11.0328 16.6233 0.63623 15.438 0.63623 31.9174C0.636229 48.3967 9.71058 47.8123 9.71058 47.8123H15.1262V40.1653C15.1262 40.1653 14.8343 31.0434 24.0557 31.0434H39.4332C39.4332 31.0434 48.0728 31.1838 48.0728 22.6499V8.53922C48.0728 8.53922 49.3845 0 32.4055 0ZM23.8564 4.93417C25.399 4.93417 26.6457 6.18746 26.6457 7.7381C26.6457 9.28873 25.399 10.542 23.8564 10.542C22.3139 10.542 21.0671 9.28873 21.0671 7.7381C21.0671 6.18746 22.3139 4.93417 23.8564 4.93417Z" fill="url(#paint0_linear_2427_1638)"/>
<path d="M32.8671 64C49.1142 64 48.0996 56.9173 48.0996 56.9173L48.0815 49.5798H32.5773V47.3767H54.2398C54.2398 47.3767 64.6363 48.5619 64.6363 32.0826C64.6363 15.6032 55.562 16.1876 55.562 16.1876H50.1464V23.8347C50.1464 23.8347 50.4383 32.9565 41.2169 32.9565H25.8394C25.8394 32.9565 17.1998 32.8161 17.1998 41.3501V55.4607C17.1998 55.4607 15.888 64 32.8671 64ZM41.4161 59.0658C39.8736 59.0658 38.6268 57.8125 38.6268 56.2619C38.6268 54.7112 39.8736 53.4579 41.4161 53.4579C42.9587 53.4579 44.2055 54.7112 44.2055 56.2619C44.2055 57.8125 42.9587 59.0658 41.4161 59.0658Z" fill="url(#paint1_linear_2427_1638)"/>
<defs>
<linearGradient id="paint0_linear_2427_1638" x1="6.78675" y1="5.75662" x2="38.6667" y2="37.1542" gradientUnits="userSpaceOnUse">
<stop stop-color="#387EB8"/>
<stop offset="1" stop-color="#366994"/>
</linearGradient>
<linearGradient id="paint1_linear_2427_1638" x1="26.2542" y1="26.025" x2="60.4817" y2="58.2127" gradientUnits="userSpaceOnUse">
<stop stop-color="#FFE052"/>
<stop offset="1" stop-color="#FFC331"/>
</linearGradient>
</defs>
</svg>
