<svg width="65" height="64" viewBox="0 0 65 64" fill="none" xmlns="http://www.w3.org/2000/svg">
<path d="M16.4613 0.441981C16.9663 0.130122 17.4113 0.0105081 17.8245 0.000523893C18.7514 0.000523893 19.668 0.357996 20.0105 0.536732C21.7898 0.0817678 22.195 0.704897 23.0688 0.958808C25.0078 0.637944 25.5968 1.33644 26.5275 2.07371L27.6088 2.05687C30.5328 3.4063 31.9823 6.15449 32.4975 7.56754C33.0125 6.15468 34.4655 3.40649 37.39 2.05687L38.4713 2.07371C39.4008 1.33644 39.99 0.637944 41.929 0.958808C42.8025 0.704897 43.2093 0.0817678 44.987 0.536732C46.097 0.261678 47.0688 -0.4656 48.5373 0.441785C49.774 0.0682596 50.973 -0.0613386 52.0453 0.698828C53.701 0.530664 54.239 0.87776 54.6465 1.2828C55.011 1.27693 57.3668 0.990326 58.447 2.25264C61.1635 2.00088 62.0213 3.5034 61.0493 4.90451L61.0687 4.92805C61.6164 5.59237 62.1636 6.25597 60.8815 7.52212C61.3403 8.23609 61.056 9.01055 59.975 9.94769C60.2603 10.9512 59.6995 11.6593 58.694 12.2112C58.882 13.5845 57.0858 14.383 56.5493 14.6675C56.3435 15.4676 55.914 16.2226 53.8623 16.6402C53.524 17.8328 52.2908 18.0388 51.0968 18.289C55.0435 20.0859 58.428 22.4496 58.405 28.2487L58.984 29.0562C63.5095 31.2112 67.5808 38.1381 61.2143 43.7686C60.7983 45.5309 60.1008 46.7967 59.4798 48.1976C58.551 53.8428 52.4893 56.4862 50.8905 56.7989C48.5475 58.1963 46.0523 59.5222 42.6758 60.4511C39.4925 63.0219 32.4743 64 32.4233 64C28.956 64.0016 25.5075 63.0217 22.3245 60.4511C18.9478 59.5222 16.4525 58.1963 14.1098 56.7989C12.5108 56.4862 6.44903 53.8428 5.52028 48.1976C4.89928 46.7967 4.20178 45.5309 3.78603 43.7686C-2.58097 38.1387 1.49053 31.212 6.01603 29.057L6.59428 28.2494C6.57128 22.4498 9.95578 20.0863 13.9025 18.2898C12.7083 18.0396 11.4753 17.8336 11.1368 16.641C9.08503 16.2236 8.65578 15.4683 8.44978 14.6682C7.91353 14.3838 6.11703 13.5853 6.30528 12.2119C5.29953 11.6601 4.73878 10.9522 5.02403 9.94847C3.94328 9.01133 3.65878 8.23687 4.11753 7.5231C2.82053 6.24121 3.39528 5.57697 3.95003 4.90471C2.97753 3.50359 3.83578 2.00127 6.55128 2.25283C7.63203 0.990522 9.98828 1.27732 10.3518 1.2832C10.7595 0.877956 11.2975 0.530859 12.9533 0.699024C14.0255 -0.0611429 15.2248 0.0686513 16.4613 0.441981Z" fill="black"/>
<path d="M12.0023 5.93797C19.7613 9.07045 24.272 11.6045 26.7433 13.7626C25.4778 17.7346 18.8758 17.9158 16.4618 17.8044C16.956 17.6243 17.3685 17.4084 17.5148 17.077C16.909 16.7399 14.7613 17.0413 13.2618 16.3818C13.8378 16.2882 14.1073 16.1972 14.3765 15.8644C12.96 15.5106 11.434 15.2056 10.5365 14.6195C11.0208 14.6242 11.473 14.7045 12.1055 14.3609C10.8368 13.8255 9.48277 13.401 8.43077 12.5825C9.08677 12.57 9.79402 12.5774 9.99977 12.3885C8.83852 11.8251 7.85852 11.1986 7.04752 10.5133C7.96552 10.6 8.35327 10.5254 8.57527 10.4001C7.69727 9.69593 6.58627 9.10138 6.05652 8.23374C6.73802 8.41776 7.36177 8.48824 7.81127 8.21769C7.51302 7.69068 6.23502 7.3798 5.49902 6.14822C6.21677 6.20284 6.97777 6.27078 7.13002 6.14822C6.79702 5.0856 6.22552 4.48811 5.66502 3.86909C7.20077 3.85128 9.52777 3.87379 9.42252 3.77219L8.47277 3.01241C9.97302 2.69605 11.508 3.06312 12.6225 3.33563C13.1228 3.02651 12.6135 2.63556 12.003 2.23639C13.278 2.36971 14.43 2.59915 15.4715 2.91531C16.0278 2.52202 15.1103 2.12852 14.6663 1.73522C16.636 2.0277 17.4705 2.43901 18.2998 2.85071C18.9015 2.39907 18.3343 2.01517 17.9283 1.62207C19.4135 2.05276 20.1785 2.60894 20.9838 3.15787C21.2568 2.86931 21.6775 2.65768 21.1695 1.96153C22.224 2.43744 23.0183 2.99832 23.6058 3.62673C24.2583 3.30137 23.9945 2.85658 23.998 2.44645C25.094 3.14456 25.7895 3.8875 26.6408 4.61282C26.8123 4.51493 26.9623 4.1835 27.095 3.65904C29.7093 5.6451 33.4035 10.6479 28.0445 12.6315C23.4838 9.68595 18.0368 7.54483 12.0005 5.93875L12.0023 5.93797Z" fill="#75A928"/>
<path d="M53.1711 5.93787C45.4131 9.07075 40.9024 11.604 38.4314 13.7625C39.6969 17.7345 46.2986 17.9157 48.7126 17.8043C48.2184 17.6242 47.8059 17.4083 47.6599 17.0769C48.2656 16.7398 50.4134 17.0412 51.9126 16.3817C51.3366 16.2881 51.0674 16.1971 50.7979 15.8643C52.2146 15.5105 53.7406 15.2055 54.6379 14.6194C54.1536 14.6241 53.7014 14.7044 53.0689 14.3608C54.3379 13.8254 55.6919 13.4009 56.7439 12.5824C56.0876 12.5699 55.3804 12.5773 55.1749 12.3884C56.3361 11.825 57.3161 11.1985 58.1271 10.5132C57.2089 10.5999 56.8214 10.5253 56.5994 10.4C57.4771 9.69583 58.5884 9.10129 59.1181 8.23364C58.4364 8.41767 57.8126 8.48814 57.3631 8.21759C57.6614 7.69058 58.9396 7.3797 59.6754 6.14813C58.9579 6.20275 58.1966 6.27068 58.0444 6.14813C58.3781 5.08511 58.9496 4.48762 59.5101 3.86861C57.9744 3.85079 55.6474 3.8733 55.7526 3.7717L56.7024 3.01173C55.2021 2.69556 53.6671 3.06263 52.5526 3.33514C52.0524 3.02602 52.5614 2.63507 53.1719 2.2359C51.8971 2.36902 50.7449 2.59866 49.7036 2.91482C49.1471 2.52153 50.0649 2.12803 50.5089 1.73474C48.5391 2.02721 47.7046 2.43852 46.8751 2.85022C46.2734 2.39858 46.8409 2.01468 47.2469 1.62158C45.7616 2.05227 44.9966 2.60845 44.1914 3.15738C43.9181 2.86882 43.4976 2.65719 44.0054 1.96104C42.9511 2.43696 42.1569 2.99783 41.5694 3.62625C40.9169 3.30088 41.1806 2.8559 41.1771 2.44596C40.0811 3.14407 39.3856 3.88681 38.5344 4.61233C38.3629 4.51444 38.2129 4.18301 38.0801 3.65835C35.4659 5.64461 31.7716 10.6475 37.1306 12.631C41.6889 9.68468 47.1356 7.54395 53.1721 5.93787H53.1711Z" fill="#75A928"/>
<path d="M41.9837 46.3834C42.0107 50.0899 37.8714 53.1104 32.7387 53.1298C27.6057 53.1494 23.4227 50.1606 23.3957 46.4541C23.3954 46.4306 23.3954 46.4071 23.3957 46.3834C23.3687 42.6771 27.5077 39.6566 32.6407 39.6371C37.7737 39.6175 41.9564 42.6063 41.9837 46.3127V46.3834Z" fill="#BC1142"/>
<path d="M27.3114 27.2121C31.1624 29.188 31.8567 33.6664 28.8619 37.2149C25.8672 40.7636 20.3177 42.0388 16.4667 40.0631C12.6157 38.0872 11.9217 33.6088 14.9162 30.0603C17.9109 26.5117 23.4604 25.2364 27.3114 27.2121Z" fill="#BC1142"/>
<path d="M37.7059 26.8542C33.8551 28.8299 33.1609 33.3085 36.1554 36.857C39.1501 40.4057 44.6996 41.6809 48.5506 39.705C52.4016 37.7293 53.0959 33.2509 50.1011 29.7022C47.1066 26.1538 41.5571 24.8785 37.7059 26.8542Z" fill="#BC1142"/>
<path d="M8.06455 30.4422C12.2223 29.5695 9.4683 43.9117 6.0853 42.7349C2.36405 40.3912 1.16555 33.5273 8.06455 30.4422Z" fill="#BC1142"/>
<path d="M56.113 30.2635C51.9548 29.391 54.7093 43.7337 58.0923 42.5569C61.8135 40.213 63.012 33.3484 56.113 30.2635Z" fill="#BC1142"/>
<path d="M41.9863 19.5831C49.1616 18.6344 55.1321 21.9726 54.8911 28.0653C54.6551 30.4012 39.3428 19.9309 41.9863 19.5831Z" fill="#BC1142"/>
<path d="M22.1618 19.4044C14.9861 18.4555 9.01605 21.7945 9.25705 27.8868C9.49305 30.2225 24.8055 19.7523 22.1618 19.4044Z" fill="#BC1142"/>
<path d="M32.4689 17.9835C28.1864 17.8962 24.0764 20.4723 24.0664 21.9666C24.0547 23.7821 27.4524 25.6411 32.4982 25.6883C37.6507 25.7171 40.9387 24.2003 40.9552 22.3266C40.9742 20.2037 36.2689 17.9506 32.4689 17.9833V17.9835Z" fill="#BC1142"/>
<path d="M32.7296 55.2146C36.4633 55.0869 41.4733 56.1562 41.4833 57.5749C41.5453 58.9524 36.9396 62.0647 32.4821 62.0046C27.8656 62.1606 23.3388 59.0434 23.3981 57.963C23.3288 56.3788 29.0191 55.1419 32.7296 55.2146Z" fill="#BC1142"/>
<path d="M18.9393 46.8074C21.5976 49.3152 22.8096 53.7211 20.5911 55.02C18.4923 56.0116 13.3956 55.6032 9.77308 51.5279C7.32984 48.1083 7.64459 44.6285 9.36008 43.6062C11.9253 42.3826 15.8888 44.0355 18.9396 46.8074H18.9393Z" fill="#BC1142"/>
<path d="M45.9893 46.0124C43.113 48.6503 41.5115 53.4619 43.6095 55.0116C45.6158 56.2156 51.0013 56.0472 54.9793 51.7249C57.8678 48.8218 56.9 43.9736 55.25 42.6863C52.799 41.2018 49.2803 43.1017 45.9893 46.0116V46.0124Z" fill="#BC1142"/>
</svg>
