<svg width="65" height="64" viewBox="0 0 65 64" fill="none" xmlns="http://www.w3.org/2000/svg">
<path fill-rule="evenodd" clip-rule="evenodd" d="M61.9924 49.294C58.5771 51.379 40.884 59.8988 37.1171 62.1984C33.3505 64.4987 31.258 64.4764 28.2824 62.8104C25.3068 61.1444 6.47819 52.2372 3.08658 50.3387C1.39128 49.3897 0.5 48.5889 0.5 47.8323V40.2562C0.5 40.2562 25.0123 34.0065 28.9696 32.344C32.9268 30.6812 34.2998 30.6211 37.6674 32.0658C41.0353 33.5108 61.1716 37.7657 64.5 39.1934C64.5 39.1934 64.4985 45.9599 64.4985 46.6623C64.499 47.4113 63.731 48.2329 61.9924 49.294Z" fill="#912626"/>
<path fill-rule="evenodd" clip-rule="evenodd" d="M61.9912 41.7623C58.576 43.8463 40.8835 52.3664 37.1168 54.666C33.3503 56.9664 31.2578 56.9439 28.2823 55.2779C25.3065 53.6131 6.47878 44.7045 3.08729 42.8069C-0.30421 40.9082 -0.37546 39.6015 2.95629 38.0737C6.28778 36.5454 25.0123 27.9418 28.97 26.2791C32.927 24.6169 34.2998 24.5563 37.6673 26.0015C41.035 27.4461 58.622 35.6445 61.95 37.0718C65.2787 38.5009 65.4065 39.6773 61.9912 41.7623Z" fill="#C6302B"/>
<path fill-rule="evenodd" clip-rule="evenodd" d="M61.9924 37.0351C58.5771 39.1201 40.884 47.6399 37.1171 49.9404C33.3505 52.2398 31.258 52.2175 28.2824 50.5515C25.3065 48.8864 6.47819 39.9783 3.08658 38.0798C1.39128 37.1308 0.5 36.3309 0.5 35.5743V27.9973C0.5 27.9973 25.0123 21.7479 28.9696 20.0851C32.9268 18.4226 34.2998 18.3622 37.6674 19.8069C41.0353 21.2519 61.1716 25.5059 64.5 26.9339C64.5 26.9339 64.4985 33.7004 64.4985 34.4037C64.499 35.1524 63.731 35.974 61.9924 37.0351Z" fill="#912626"/>
<path fill-rule="evenodd" clip-rule="evenodd" d="M61.9912 29.5037C58.576 31.5883 40.8835 40.1079 37.1168 42.4083C33.3503 44.7079 31.2578 44.6853 28.2823 43.0194C25.3065 41.3546 6.47878 32.4462 3.08729 30.5484C-0.30421 28.6502 -0.37546 27.3432 2.95629 25.8149C6.28778 24.2874 25.0123 15.6832 28.97 14.0208C32.927 12.3583 34.2998 12.298 37.6673 13.7429C41.035 15.1875 58.622 23.3853 61.95 24.8132C65.2787 26.2417 65.4065 27.4187 61.9912 29.5034V29.5037Z" fill="#C6302B"/>
<path fill-rule="evenodd" clip-rule="evenodd" d="M61.9924 24.3218C58.5771 26.4068 40.884 34.9269 37.1171 37.2274C33.3505 39.5271 31.258 39.5045 28.2824 37.8385C25.3065 36.1734 6.47819 27.265 3.08658 25.3671C1.39128 24.4178 0.5 23.6176 0.5 22.8616V15.2843C0.5 15.2843 25.0123 9.03515 28.9696 7.37265C32.9268 5.70985 34.2998 5.64983 37.6674 7.09449C41.0353 8.53944 61.1716 12.7935 64.5 14.2215C64.5 14.2215 64.4985 20.988 64.4985 21.691C64.499 22.4391 63.731 23.2607 61.9924 24.3218Z" fill="#912626"/>
<path fill-rule="evenodd" clip-rule="evenodd" d="M61.9912 16.7902C58.576 18.8749 40.8835 27.395 37.1168 29.6948C33.3503 31.9944 31.2578 31.9718 28.2823 30.3065C25.3068 28.6411 6.47878 19.7333 3.08729 17.8352C-0.30421 15.937 -0.37546 14.6297 2.95629 13.1017C6.28778 11.5739 25.0123 2.97062 28.97 1.30758C32.927 -0.355158 34.2998 -0.414887 37.6673 1.03002C41.035 2.47493 58.622 10.6727 61.95 12.1006C65.2787 13.5283 65.4065 14.7056 61.9912 16.7902Z" fill="#C6302B"/>
<path fill-rule="evenodd" clip-rule="evenodd" d="M40.3209 9.42015L34.8186 10.0892L33.5867 13.5603L31.597 9.68685L25.2434 9.01808L29.9844 7.01582L28.562 3.94214L33.0006 5.97519L37.1851 4.37065L36.0542 7.54892L40.3209 9.42015Z" fill="white"/>
<path fill-rule="evenodd" clip-rule="evenodd" d="M33.2578 26.2606L22.9885 21.2724L37.7038 18.6272L33.2578 26.2606Z" fill="white"/>
<path fill-rule="evenodd" clip-rule="evenodd" d="M19.0203 11.3496C23.3641 11.3496 26.8854 12.9483 26.8854 14.9201C26.8854 16.8921 23.3641 18.4906 19.0203 18.4906C14.6768 18.4906 11.1553 16.8921 11.1553 14.9201C11.1553 12.9483 14.6768 11.3496 19.0203 11.3496Z" fill="white"/>
<path fill-rule="evenodd" clip-rule="evenodd" d="M46.8237 10.3691L55.5327 14.3998L46.8312 18.4264L46.8237 10.3691Z" fill="#621B1C"/>
<path fill-rule="evenodd" clip-rule="evenodd" d="M37.1887 14.8327L46.8237 10.3691L46.8311 18.4264L45.8865 18.8593L37.1887 14.8327Z" fill="#9A2928"/>
</svg>
