<svg width="65" height="64" viewBox="0 0 65 64" fill="none" xmlns="http://www.w3.org/2000/svg">
<path d="M53.6106 34.608C51.5599 34.6187 49.7839 35.1107 48.2959 35.8454C47.7519 34.7587 47.1999 33.8027 47.1079 33.092C46.9999 32.2627 46.8746 31.7667 47.0053 30.7787C47.1359 29.7907 47.7079 28.3907 47.6999 28.2854C47.6919 28.18 47.5719 27.6774 46.3893 27.668C45.2066 27.66 44.1946 27.896 44.0759 28.208C43.9573 28.52 43.7293 29.2227 43.5879 29.956C43.3813 31.028 41.2266 34.8534 40.0039 36.8534C39.6039 36.072 39.2639 35.384 39.1933 34.84C39.0853 34.0107 38.9599 33.5147 39.0906 32.5267C39.2213 31.5387 39.7933 30.1387 39.7853 30.0334C39.7773 29.928 39.6573 29.4254 38.4746 29.416C37.2919 29.408 36.2799 29.644 36.1613 29.956C36.0426 30.268 35.9146 30.9974 35.6733 31.704C35.4306 32.4094 32.5679 38.7894 31.8173 40.444C31.4346 41.2867 31.1026 41.964 30.8679 42.4254L30.8666 42.4227C30.8666 42.4227 30.8519 42.4534 30.8279 42.5054C30.6266 42.8987 30.5079 43.116 30.5079 43.116C30.5079 43.116 30.5093 43.1187 30.5119 43.124C30.3519 43.4134 30.1813 43.6814 30.0973 43.6814C30.0386 43.6814 29.9199 42.912 30.1226 41.856C30.5493 39.6427 31.5719 36.192 31.5626 36.072C31.5573 36.0107 31.7533 35.4094 30.8946 35.0947C30.0599 34.7894 29.7626 35.2987 29.6866 35.3C29.6133 35.3014 29.5586 35.48 29.5586 35.48C29.5586 35.48 30.4879 31.5987 27.7853 31.5987C26.0946 31.5987 23.7533 33.448 22.5999 35.124C21.8719 35.5214 20.3133 36.372 18.6613 37.28C18.0266 37.6294 17.3786 37.9854 16.7639 38.324C16.7226 38.2774 16.6799 38.232 16.6373 38.1854C13.3586 34.688 7.29994 32.2147 7.55594 27.512C7.64927 25.8027 8.24394 21.3014 19.1999 15.8427C28.1746 11.3707 35.3599 12.6014 36.6013 15.328C38.3746 19.2254 32.7613 26.4667 23.4413 27.512C19.8906 27.9107 18.0199 26.5334 17.5546 26.0214C17.0653 25.4814 16.9919 25.4574 16.8093 25.5587C16.5119 25.724 16.6999 26.2 16.8093 26.484C17.0879 27.208 18.2293 28.492 20.1759 29.132C21.8893 29.6947 26.0586 30.0027 31.0999 28.052C36.7479 25.868 41.1573 19.7907 39.8613 14.712C38.5439 9.5467 29.9786 7.84803 21.8719 10.728C17.0413 12.4427 11.8186 15.1334 8.0626 18.6454C3.59727 22.8214 2.88527 26.4574 3.1786 27.976C4.22127 33.3734 11.6599 36.888 14.6386 39.492C14.4919 39.5734 14.3533 39.6494 14.2279 39.7187C12.7346 40.4574 7.06394 43.4254 5.64527 46.56C4.03594 50.116 5.90127 52.668 7.13594 53.012C10.9613 54.076 14.8866 52.1614 16.9973 49.0147C19.1066 45.8694 18.8493 41.772 17.8813 39.9027C17.8693 39.88 17.8559 39.8574 17.8439 39.8334C18.2293 39.6054 18.6226 39.3734 19.0119 39.144C19.7719 38.6974 20.5186 38.2814 21.1653 37.9294C20.8026 38.9214 20.5373 40.112 20.3999 41.8307C20.2373 43.8494 21.0653 46.4587 22.1479 47.4854C22.6253 47.9374 23.1986 47.948 23.5613 47.948C24.8213 47.948 25.3959 46.9 26.0293 45.66C26.8053 44.14 27.4946 42.3694 27.4946 42.3694C27.4946 42.3694 26.6306 47.1507 28.9853 47.1507C29.8439 47.1507 30.7066 46.0374 31.0919 45.4707C31.0933 45.4774 31.0933 45.48 31.0933 45.48C31.0933 45.48 31.1159 45.4427 31.1599 45.3694C31.2493 45.2334 31.2999 45.1467 31.2999 45.1467C31.2999 45.1467 31.3013 45.1374 31.3039 45.1214C31.6493 44.5227 32.4146 43.1574 33.5613 40.9054C35.0439 37.996 36.4653 34.3507 36.4653 34.3507C36.4653 34.3507 36.5973 35.2414 37.0306 36.716C37.2853 37.5827 37.8266 38.5414 38.2546 39.4614C37.9106 39.9387 37.6999 40.212 37.6999 40.212C37.6999 40.212 37.7013 40.2174 37.7053 40.2267C37.4306 40.592 37.1226 40.9854 36.7999 41.3694C35.6293 42.7627 34.2359 44.3547 34.0493 44.8134C33.8293 45.3547 33.8813 45.752 34.3066 46.0734C34.6173 46.3067 35.1693 46.344 35.7466 46.3054C36.7986 46.2347 37.5373 45.9734 37.9026 45.8147C38.4719 45.6134 39.1346 45.2974 39.7559 44.84C40.9039 43.996 41.5959 42.7894 41.5293 41.1894C41.4919 40.308 41.2119 39.4347 40.8559 38.6107C40.9599 38.4614 41.0639 38.3094 41.1693 38.1574C42.9786 35.512 44.3826 32.6054 44.3826 32.6054C44.3826 32.6054 44.5146 33.496 44.9479 34.9707C45.1666 35.716 45.5999 36.5307 45.9893 37.328C44.2879 38.7107 43.2333 40.3174 42.8666 41.3707C42.1893 43.32 42.7199 44.2027 43.7146 44.404C44.1653 44.4947 44.8026 44.288 45.2813 44.0854C45.8773 43.888 46.5933 43.5587 47.2626 43.0667C48.4106 42.2227 49.5146 41.0414 49.4479 39.4427C49.4173 38.7147 49.2199 37.992 48.9519 37.2987C50.3946 36.6974 52.2613 36.364 54.6399 36.6414C59.7426 37.2374 60.7426 40.4227 60.5519 41.756C60.3599 43.0894 59.2906 43.8227 58.9319 44.044C58.5746 44.2654 58.4653 44.3427 58.4946 44.5067C58.5386 44.7454 58.7039 44.7374 59.0093 44.6854C59.4293 44.6147 61.6879 43.6014 61.7853 41.14C61.9066 38.012 58.9133 34.58 53.6106 34.608ZM14.2813 47.8667C12.5906 49.7107 10.2306 50.4067 9.21727 49.82C8.12394 49.1867 8.55727 46.472 10.6306 44.5147C11.8946 43.3227 13.5266 42.224 14.6093 41.548C14.8559 41.4 15.2173 41.1827 15.6573 40.9187C15.7306 40.8774 15.7719 40.8547 15.7719 40.8547L15.7706 40.852C15.8559 40.8014 15.9426 40.7494 16.0319 40.6947C16.7879 43.48 16.0559 45.932 14.2813 47.8667ZM26.5946 39.4974C26.0066 40.932 24.7746 44.604 24.0239 44.4067C23.3799 44.2374 22.9879 41.4467 23.8959 38.7C24.3519 37.3174 25.3279 35.6654 25.9013 35.024C26.8239 33.992 27.8399 33.6547 28.0866 34.0734C28.3999 34.6067 26.9639 38.5974 26.5946 39.4974ZM36.7666 44.3507C36.5173 44.4814 36.2879 44.5627 36.1826 44.5C36.1039 44.4534 36.2853 44.2814 36.2853 44.2814C36.2853 44.2814 37.5573 42.912 38.0586 42.2894C38.3506 41.9267 38.6879 41.496 39.0559 41.016C39.0586 41.064 39.0599 41.112 39.0599 41.1587C39.0573 42.7987 37.4733 43.9054 36.7666 44.3507ZM44.6026 42.564C44.4159 42.432 44.4479 42.004 45.0599 40.6694C45.2999 40.1454 45.8493 39.264 46.8013 38.4214C46.9119 38.768 46.9786 39.1 46.9773 39.4094C46.9653 41.4734 45.4933 42.244 44.6026 42.564Z" fill="#F06292"/>
</svg>
