<svg width="105" height="64" viewBox="0 0 105 64" fill="none" xmlns="http://www.w3.org/2000/svg">
<g clip-path="url(#clip0_2429_2195)">
<mask id="mask0_2429_2195" style="mask-type:luminance" maskUnits="userSpaceOnUse" x="0" y="0" width="105" height="63">
<path d="M0.181641 0H104.909V62.8364H0.181641V0Z" fill="white"/>
</mask>
<g mask="url(#mask0_2429_2195)">
<path fill-rule="evenodd" clip-rule="evenodd" d="M52.5453 0C38.5816 0 29.8544 6.98182 26.3635 20.9455C31.5998 13.9636 37.7089 11.3455 44.6907 13.0909C48.6742 14.0858 51.5213 16.9775 54.6728 20.1755C59.8064 25.3867 65.7487 31.4182 78.7271 31.4182C92.6907 31.4182 101.418 24.4364 104.909 10.4727C99.6725 17.4545 93.5635 20.0727 86.5816 18.3273C82.5981 17.3324 79.7511 14.4407 76.5996 11.2427C71.466 6.03151 65.5237 0 52.5453 0ZM26.3635 31.4182C12.3998 31.4182 3.67255 38.4 0.181641 52.3636C5.418 45.3818 11.5271 42.7636 18.5089 44.5091C22.4924 45.5059 25.3395 48.3956 28.491 51.5937C33.6245 56.8048 39.5669 62.8364 52.5453 62.8364C66.5089 62.8364 75.2362 55.8545 78.7271 41.8909C73.4907 48.8727 67.3816 51.4909 60.3998 49.7455C56.4163 48.7505 53.5693 45.8589 50.4178 42.6608C45.2842 37.4497 39.3419 31.4182 26.3635 31.4182Z" fill="#38BDF8"/>
</g>
</g>
<defs>
<clipPath id="clip0_2429_2195">
<rect width="104.727" height="64" fill="white" transform="translate(0.181641)"/>
</clipPath>
</defs>
</svg>
