<svg width="65" height="64" viewBox="0 0 65 64" fill="none" xmlns="http://www.w3.org/2000/svg">
<g clip-path="url(#clip0_2429_2143)">
<path d="M61.6365 0H3.63647C1.97962 0 0.636475 1.34315 0.636475 3V61C0.636475 62.6569 1.97962 64 3.63647 64H61.6365C63.2933 64 64.6365 62.6569 64.6365 61V3C64.6365 1.34315 63.2933 0 61.6365 0Z" fill="#3178C6"/>
<path fill-rule="evenodd" clip-rule="evenodd" d="M37.7676 49.734V56.747C38.9038 57.331 40.2475 57.7695 41.7988 58.0615C43.3502 58.354 44.9852 58.5 46.7041 58.5C48.3792 58.5 49.9706 58.3395 51.478 58.018C52.986 57.6965 54.3075 57.167 55.444 56.429C56.58 55.691 57.4795 54.727 58.1425 53.536C58.805 52.3455 59.1365 50.8735 59.1365 49.1203C59.1365 47.8493 58.947 46.7353 58.5685 45.7783C58.1895 44.8214 57.6435 43.9704 56.9295 43.2252C56.216 42.4801 55.36 41.8117 54.3625 41.22C53.3645 40.6283 52.2395 40.0694 50.9865 39.5435C50.0689 39.1636 49.2459 38.7947 48.5176 38.4368C47.7892 38.0788 47.1702 37.7136 46.6604 37.341C46.1505 36.9684 45.7572 36.574 45.4805 36.1576C45.2037 35.7413 45.0653 35.27 45.0653 34.7441C45.0653 34.2619 45.1891 33.8273 45.4368 33.4402C45.6844 33.053 46.034 32.7206 46.4856 32.443C46.9371 32.1655 47.4906 31.95 48.1461 31.7966C48.8016 31.6431 49.5299 31.5664 50.3311 31.5664C50.914 31.5664 51.529 31.6103 52.1775 31.6979C52.8255 31.7856 53.4775 31.9207 54.133 32.1034C54.7885 32.286 55.4255 32.5161 56.045 32.7937C56.664 33.0713 57.2355 33.3927 57.76 33.7579V27.2054C56.6965 26.7963 55.535 26.4931 54.275 26.2959C53.015 26.0986 51.5695 26 49.9378 26C48.2772 26 46.7041 26.1789 45.2183 26.5369C43.7325 26.8948 42.4252 27.4537 41.2963 28.2134C40.1674 28.9731 39.2752 29.941 38.6197 31.1171C37.9642 32.2932 37.6365 33.6995 37.6365 35.3358C37.6365 37.4251 38.2373 39.2074 39.4391 40.683C40.6408 42.1587 42.4652 43.4079 44.9124 44.4305C45.8738 44.825 46.7696 45.2122 47.5999 45.592C48.4302 45.9719 49.1476 46.3664 49.7521 46.7755C50.3566 47.1846 50.8335 47.6302 51.183 48.1123C51.533 48.5944 51.7075 49.1423 51.7075 49.7559C51.7075 50.209 51.5985 50.629 51.38 51.016C51.1615 51.403 50.83 51.739 50.3857 52.024C49.9414 52.309 49.3879 52.532 48.7251 52.6925C48.0624 52.853 47.2867 52.9335 46.3982 52.9335C44.8832 52.9335 43.3829 52.667 41.8971 52.1335C40.4114 51.6005 39.0349 50.8005 37.7676 49.734ZM25.9878 32.2772H35.1365V26.5H9.63647V32.2772H18.7404V58H25.9878V32.2772Z" fill="white"/>
</g>
<defs>
<clipPath id="clip0_2429_2143">
<rect width="64" height="64" fill="white" transform="translate(0.636475)"/>
</clipPath>
</defs>
</svg>
