<svg width="65" height="64" viewBox="0 0 65 64" fill="none" xmlns="http://www.w3.org/2000/svg">
<mask id="mask0_2431_2271" style="mask-type:alpha" maskUnits="userSpaceOnUse" x="0" y="0" width="65" height="64">
<path d="M45.7168 63.7264C46.7248 64.1212 47.8743 64.0958 48.8918 63.6038L62.0683 57.2307C63.4528 56.561 64.3333 55.1522 64.3333 53.607V10.3931C64.3333 8.84779 63.4528 7.43926 62.0683 6.76955L48.8918 0.396206C47.5565 -0.249608 45.9938 -0.0914239 44.822 0.764949C44.6545 0.887285 44.495 1.02387 44.3455 1.1744L19.1205 24.3068L8.13305 15.9232C7.11023 15.1428 5.67958 15.2067 4.72963 16.0753L1.20559 19.2976C0.0436189 20.36 0.0422864 22.1975 1.20271 23.2617L10.7314 31.9999L1.20271 40.7382C0.0422864 41.8024 0.0436189 43.6399 1.20559 44.7024L4.72963 47.9245C5.67958 48.7932 7.11023 48.857 8.13305 48.0768L19.1205 39.6931L44.3455 62.8255C44.7445 63.2269 45.213 63.5292 45.7168 63.7264ZM48.343 17.396L29.203 31.9999L48.343 46.6039V17.396Z" fill="white"/>
</mask>
<g mask="url(#mask0_2431_2271)">
<path d="M62.1073 6.77944L48.9206 0.397314C47.3943 -0.341415 45.5701 -0.0298027 44.3721 1.1743L1.20324 40.7382C0.0421089 41.8024 0.0434439 43.6399 1.20612 44.7023L4.73229 47.9244C5.68284 48.7932 7.11436 48.857 8.13779 48.0767L60.1231 8.43513C61.8671 7.10522 64.3721 8.35557 64.3721 10.556V10.4021C64.3721 8.85753 63.4918 7.44949 62.1073 6.77944Z" fill="#0065A9"/>
<path d="M62.1073 57.2204L48.9206 63.6026C47.3943 64.3411 45.5701 64.0295 44.3721 62.8256L1.20324 23.2617C0.0421089 22.1975 0.0434439 20.36 1.20612 19.2975L4.73229 16.0753C5.68284 15.2067 7.11436 15.1427 8.13779 15.9232L60.1231 55.5646C61.8671 56.8945 64.3721 55.6443 64.3721 53.4437V53.5977C64.3721 55.1422 63.4918 56.5502 62.1073 57.2204Z" fill="#007ACC"/>
<path d="M48.8791 63.6077C47.3523 64.3457 45.5281 64.0339 44.3301 62.8297C45.8061 64.3133 48.3301 63.2624 48.3301 61.1641V2.84386C48.3301 0.745538 45.8061 -0.305315 44.3301 1.17843C45.5281 -0.0257891 47.3523 -0.337841 48.8791 0.400235L62.0636 6.77359C63.4491 7.44329 64.3301 8.85183 64.3301 10.3971V53.6111C64.3301 55.1564 63.4491 56.5649 62.0636 57.2346L48.8791 63.6077Z" fill="#1F9CF0"/>
<path d="M45.7168 63.7264C46.7248 64.1209 47.8743 64.0958 48.8916 63.6037L62.0681 57.2304C63.4528 56.5607 64.3333 55.1522 64.3333 53.6069V10.3929C64.3333 8.84766 63.4528 7.43913 62.0683 6.76942L48.8916 0.396085C47.5566 -0.249731 45.9938 -0.0915463 44.8218 0.764826C44.6546 0.887162 44.4951 1.02375 44.3453 1.17428L19.1205 24.3067L8.13304 15.9231C7.11024 15.1427 5.67956 15.2066 4.72961 16.0752L1.20559 19.2974C0.0436189 20.3599 0.0422864 22.1974 1.20271 23.2616L10.7314 31.9998L1.20271 40.7381C0.0422864 41.8024 0.0436189 43.6398 1.20559 44.7023L4.72961 47.9244C5.67956 48.7931 7.11024 48.857 8.13304 48.0767L19.1205 39.693L44.3453 62.8255C44.7443 63.2268 45.2131 63.5291 45.7168 63.7264ZM48.3431 17.3958L29.2031 31.9998L48.3431 46.6039V17.3958Z" fill="url(#paint0_linear_2431_2271)" fill-opacity="0.25"/>
</g>
<defs>
<linearGradient id="paint0_linear_2431_2271" x1="32.3333" y1="-0.000122321" x2="32.3333" y2="63.9998" gradientUnits="userSpaceOnUse">
<stop stop-color="white"/>
<stop offset="1" stop-color="white" stop-opacity="0"/>
</linearGradient>
</defs>
</svg>
