<svg width="64" height="64" viewBox="0 0 64 64" fill="none" xmlns="http://www.w3.org/2000/svg">
<path d="M59.6611 17.3326L49.5398 4.01965H14.9377L4.31738 17.3326L31.0111 57.8335L59.6611 17.3326Z" fill="#142641"/>
<path d="M52.1362 5.67163L52.9126 5.10718L56.7778 13.5437L22.019 38.8318H35.6206V37.49H46.3843V38.9451H44.4517V44.0007H41.4224V48.283H21.3071V44.0007H18.4849V41.4031L18.3306 41.5154L14.4644 33.0779L43.4429 11.9958L42.9097 10.8347L51.604 4.50952L52.1362 5.67163ZM28.6772 1.31616L28.9575 1.11206L29.562 2.4314L29.7593 2.28784L30.312 3.49487L31.9702 2.28784L32.5044 3.45093L33.5962 2.65601L34.0532 3.65308L35.9292 2.28784L36.7241 4.02124L7.78955 25.071L6.99561 23.3376L6.63135 22.5417L6.53857 22.6091L6.15381 21.7712L5.9126 21.947L5.30811 20.6277L5.11182 20.7712L4.59619 19.6482L4.31689 19.8523L3.52295 18.1179L28.1636 0.193115L28.6772 1.31616Z" fill="#274D82"/>
<path fill-rule="evenodd" clip-rule="evenodd" d="M50.9014 0H13.6206L0 17.075L30.9235 64L33.391 60.5122L64 17.235L50.9014 0ZM49.5397 4.0201L59.661 17.3331L31.011 57.834L4.31729 17.3331L14.9376 4.0201H49.5397Z" fill="#3068B7"/>
</svg>
