<svg width="65" height="64" viewBox="0 0 65 64" fill="none" xmlns="http://www.w3.org/2000/svg">
<path d="M50.6727 50.7413C52.9363 49.766 55.6351 49.411 59.1173 49.4995C59.0194 48.8357 57.775 48.0474 56.8634 47.4698C56.5574 47.276 56.2888 47.1058 56.1138 46.9722C54.7208 45.9523 53.2407 44.8877 51.7609 43.9569C51.2842 43.6601 50.5978 43.4125 49.9373 43.1743C49.5124 43.021 49.0982 42.8715 48.7574 42.7153C48.4092 42.5708 47.9349 42.4262 47.4229 42.2701C46.2066 41.8994 44.7771 41.4637 44.3175 40.8087C43.1339 39.2411 42.3079 37.3456 41.4831 35.4527C41.3979 35.2572 41.3127 35.0617 41.2271 34.8666C40.7953 33.8611 40.315 32.8359 39.832 31.8048C39.2925 30.6533 38.7496 29.4945 38.2672 28.3481C38.057 27.8811 37.8972 27.4396 37.7399 27.005C37.5387 26.4493 37.3416 25.9049 37.0485 25.3328C33.8707 19.0805 29.17 13.8478 23.4676 10.1674C21.5957 8.9701 19.5067 7.86124 17.1994 7.10764C16.4949 6.8924 15.7143 6.85776 14.9261 6.82277C14.2534 6.79291 13.5751 6.7628 12.9337 6.61998H12.0195C11.4917 6.47062 11.0232 6.03949 10.5873 5.63844C10.3762 5.44415 10.1727 5.25691 9.97386 5.1122C8.62433 4.18111 7.27506 3.55991 5.66446 2.89505C5.09866 2.6291 3.48806 2.00819 2.92225 2.49613C2.5738 2.58487 2.39986 2.71784 2.31275 3.07253C1.96457 3.60471 2.2696 4.40282 2.48697 4.89048C2.91842 5.82817 3.46398 6.51418 4.02303 7.21714C4.31001 7.578 4.60055 7.94333 4.88103 8.34947C5.01499 8.54209 5.15466 8.73907 5.29667 8.93936C5.93914 9.84548 6.62961 10.8193 7.05744 11.7637C7.66114 13.0885 8.09146 14.4891 8.5202 15.8845C8.89512 17.1047 9.26883 18.3211 9.75624 19.4795C10.1478 20.4108 10.7573 21.4749 11.3231 22.3175C11.5006 22.5641 11.7319 22.7863 11.9661 23.0112C12.3637 23.393 12.7695 23.7827 12.9337 24.313C13.3571 25.0316 12.5799 27.0896 12.1077 28.34C11.9972 28.6326 11.9033 28.8811 11.8455 29.0577C10.7136 32.6936 10.9313 37.7489 12.2371 40.8971C12.2838 41.008 12.3301 41.1208 12.3768 41.2343C12.8524 42.3915 13.3629 43.6336 14.6312 43.9569C14.6706 43.9167 14.6744 43.9038 14.6829 43.8977C14.6931 43.8902 14.7102 43.8925 14.8054 43.8681C14.8691 43.3584 14.9233 42.8526 14.9767 42.3539C15.179 40.4663 15.3703 38.6807 16.0241 37.1725C16.3357 36.3937 16.8496 35.765 17.3506 35.1522C17.6198 34.8228 17.8852 34.4981 18.1134 34.1572C18.3897 34.326 18.4906 34.709 18.5943 35.1024C18.654 35.3289 18.7146 35.5589 18.8101 35.7534C18.8512 35.8532 18.8925 35.9538 18.934 36.0549C19.4649 37.3462 20.0359 38.7355 20.6817 40.0102C22.1181 42.8483 23.729 45.5973 25.5569 48.0807C26.1662 48.9676 27.037 49.9432 27.8204 50.7413C27.9396 50.8475 28.0638 50.9382 28.1862 51.0274C28.4214 51.199 28.6496 51.3656 28.8215 51.6282H28.9086V51.7614C28.0822 51.4526 27.4477 50.7887 26.8282 50.1405C26.4689 49.7645 26.1146 49.3938 25.7309 49.1008C23.7721 47.593 21.4218 45.3314 20.0722 43.1587C19.6472 42.2261 19.1976 41.3184 18.7419 40.3982C18.5909 40.0934 18.4393 39.7872 18.2877 39.4783C18.2877 39.4783 18.2879 39.4338 18.2877 39.3896C18.1213 39.6156 18.0963 39.8415 18.0663 40.1134C18.0491 40.2682 18.0304 40.438 17.9829 40.6311C17.8216 41.2634 17.7416 41.9208 17.6644 42.5562C17.4707 44.1492 17.2938 45.6035 15.8936 46.174C13.6738 47.1054 12.0195 44.666 11.3231 43.5577C9.10332 39.8773 8.49381 33.6692 10.0607 28.6585C10.1819 28.2729 10.2663 27.8604 10.3504 27.449C10.508 26.678 10.6648 25.9111 11.0621 25.3328C10.9748 24.7999 10.6741 24.5239 10.3803 24.2541C10.2341 24.1198 10.0896 23.9871 9.97388 23.825C9.36438 22.9827 8.84226 22.0071 8.36329 21.076C7.66732 19.6919 7.12295 18.1021 6.59538 16.5613C6.42991 16.0781 6.26609 15.5996 6.09977 15.1339C5.95118 14.7448 5.8544 14.3555 5.75891 13.9715C5.65854 13.5678 5.5596 13.1698 5.40342 12.7838C4.99195 11.8755 4.31058 10.9674 3.67799 10.1244C3.50748 9.8971 3.3405 9.67457 3.18332 9.45804C3.01375 9.21013 2.78923 8.9228 2.53894 8.60251C1.31163 7.03187 -0.535128 4.6685 0.441108 2.27442C2.26934 -2.29286 8.66833 1.16556 11.1489 2.76208C11.397 2.92455 11.6595 3.16042 11.9305 3.40397C12.3254 3.75883 12.7385 4.12998 13.1514 4.31409C13.6956 4.33635 14.2399 4.3696 14.7841 4.40285C15.3282 4.43609 15.8722 4.46932 16.416 4.49157C16.5942 4.53405 16.7714 4.57585 16.9475 4.6174C18.7932 5.05281 20.5173 5.45953 21.9876 6.30952C29.4745 10.7883 34.3497 15.3556 38.833 22.8939C39.4417 23.9084 39.857 24.9768 40.2799 26.0647C40.5224 26.6886 40.7674 27.3189 41.0529 27.9491C42.1411 30.521 43.3604 33.2255 44.6222 35.6647C44.7809 35.988 44.9293 36.3218 45.078 36.6562C45.4595 37.5145 45.8431 38.3771 46.407 39.0791C46.6097 39.3743 47.0633 39.5318 47.498 39.6827C47.7163 39.7585 47.9299 39.8327 48.1045 39.9218C48.6675 40.2172 49.2773 40.4854 49.892 40.7557C50.8456 41.1751 51.8109 41.5997 52.6315 42.1389C55.1561 43.7352 57.5939 45.6416 59.8137 47.5931C60.2624 48.0021 60.6343 48.5024 61.0058 49.002C61.319 49.4233 61.6318 49.8442 61.9901 50.2094V50.6083C61.2938 50.8301 60.5971 51.0518 59.9008 51.2293C59.1431 51.4277 58.4285 51.5054 57.7195 51.5826C57.0028 51.6606 56.2919 51.738 55.548 51.9386C55.4542 51.966 55.3581 51.9942 55.2601 52.023C54.4033 52.2748 53.4038 52.5687 52.5444 52.6483C52.5878 52.6925 52.6315 52.7368 52.6315 52.7368C53.0511 53.9534 54.835 54.9993 56.2971 55.8565C56.8067 56.1553 57.2773 56.4312 57.6373 56.6834C59.335 57.925 60.9019 59.4327 62.1643 61.1619C62.3813 61.383 62.5984 61.5931 62.8154 61.8031C63.0337 62.0144 63.252 62.2256 63.4702 62.448C63.6176 62.6627 63.714 62.9085 63.8089 63.1504C63.91 63.408 64.0093 63.6611 64.1665 63.867V64C63.7857 63.8615 63.5239 63.5843 63.2643 63.3094C63.1084 63.1444 62.9532 62.9802 62.7735 62.8472C62.3636 62.5624 61.9537 62.2532 61.5438 61.944C60.9962 61.5309 60.4486 61.1178 59.9008 60.763C59.0585 60.221 58.1485 59.7941 57.234 59.3651C56.3526 58.9516 55.4669 58.5361 54.6337 58.0137C53.6763 57.3928 52.762 56.6834 51.8481 55.974C51.0209 55.3531 50.1072 54.1555 49.5845 53.2689C49.4528 53.0582 49.3699 52.8308 49.2901 52.6119C49.1853 52.3244 49.0858 52.0514 48.8879 51.8499C48.9531 51.2199 49.5538 51.061 50.1257 50.9096C50.3186 50.8586 50.5081 50.8084 50.6727 50.7413Z" fill="white"/>
<path d="M12.9335 11.1873C13.4559 11.0543 13.978 10.9653 14.7181 10.9653C14.856 11.1059 15.0282 11.2256 15.2021 11.3464C15.467 11.5306 15.7358 11.7175 15.8934 11.9854C15.9901 12.1233 16.0524 12.2612 16.1147 12.3992C16.1926 12.5717 16.2706 12.7442 16.4158 12.9167C16.4158 13.9808 16.1113 14.6902 15.5015 15.1339C15.5015 15.1339 15.4581 15.1781 15.4147 15.2226C15.2407 14.8683 15.0777 14.514 14.9147 14.1597C14.7513 13.8044 14.5878 13.4492 14.4133 13.0939C14.2438 12.8523 14.048 12.6307 13.8515 12.4084C13.5433 12.0597 13.2334 11.7091 13.0207 11.276H12.9335V11.1873Z" fill="white"/>
</svg>
