<svg width="64" height="64" viewBox="0 0 64 64" fill="none" xmlns="http://www.w3.org/2000/svg">
<path d="M58.0259 13.7499L34.2404 0.864845C33.1865 0.298123 31.9933 0 30.7791 0C29.5649 0 28.3718 0.298123 27.3179 0.864845C26.2686 1.43476 25.397 2.25372 24.7902 3.23975C24.1835 4.22578 23.863 5.3443 23.8607 6.48336V8.1651L22.3102 7.3233C21.2563 6.75651 20.0631 6.45835 18.8488 6.45835C17.6345 6.45835 16.4413 6.75651 15.3873 7.3233C14.3367 7.89443 13.4644 8.7151 12.8577 9.70305C12.251 10.691 11.9313 11.8115 11.9306 12.9522V14.6317L10.3801 13.7918C9.3264 13.2254 8.13362 12.9274 6.91979 12.9274C5.70597 12.9274 4.51319 13.2254 3.4595 13.7918C2.40971 14.3619 1.53761 15.1811 0.930488 16.1675C0.323363 17.1539 0.00249801 18.2729 0 19.4125L0 59.7761C0.0015974 60.3496 0.174705 60.9112 0.499567 61.3967C0.82443 61.8822 1.28796 62.272 1.83726 62.5218C2.38656 62.7716 2.9995 62.8712 3.60613 62.8092C4.21276 62.7473 4.78864 62.5263 5.26806 62.1715L17.0611 53.4435L35.253 63.294C35.7493 63.5582 36.31 63.6971 36.8803 63.6971C37.4507 63.6971 38.0114 63.5582 38.5076 63.294C39.0014 63.0256 39.4115 62.6402 39.6971 62.1761C39.9826 61.7121 40.1336 61.1858 40.135 60.6497V36.3654C40.1313 34.4003 39.5782 32.4706 38.5313 30.7696C37.4843 29.0686 35.9801 27.656 34.1695 26.6735L28.2048 23.4422V6.48928C28.206 6.06404 28.3261 5.64657 28.553 5.2787C28.78 4.91084 29.1058 4.60552 29.4979 4.39335C29.89 4.18117 30.3345 4.06961 30.787 4.06983C31.2394 4.07005 31.6838 4.18205 32.0757 4.39461L55.8611 17.2737C57.0129 17.8992 57.9697 18.7979 58.636 19.88C59.3022 20.9622 59.6545 22.1897 59.6575 23.44V53.6861C59.6564 54.1109 59.5366 54.5279 59.3101 54.8955C59.0837 55.2631 58.7585 55.5684 58.3671 55.7808L52.0651 59.1946V29.8984C52.0611 27.9336 51.5079 26.0043 50.4609 24.3036C49.414 22.603 47.91 21.1908 46.0996 20.2084L31.4574 12.2804V16.9771L43.9313 23.7322C45.0836 24.3571 46.0409 25.2557 46.7072 26.3379C47.3736 27.4202 47.7255 28.6481 47.7277 29.8984V60.9527C47.7294 61.4886 47.8806 62.0148 48.1661 62.4788C48.4517 62.9428 48.8616 63.3283 49.355 63.5969C49.8513 63.8611 50.412 64 50.9823 64C51.5527 64 52.1134 63.8611 52.6097 63.5969L60.5409 59.3009C62.6733 58.1443 64 55.9937 64 53.678V23.4318C63.9905 21.4683 63.4341 19.5413 62.3861 17.8427C61.3381 16.144 59.8343 14.733 58.0259 13.7499ZM31.9905 30.1951C33.1431 30.8201 34.1005 31.7189 34.7668 32.8015C35.4332 33.884 35.785 35.1122 35.7869 36.3628V58.8939L20.7255 50.7374L25.5601 47.1654C26.3835 46.561 27.0491 45.7877 27.5059 44.9046C27.9628 44.0214 28.1989 43.0518 28.1961 42.0698V28.1463L31.9905 30.1951ZM23.8583 25.7906V42.0613C23.8597 42.4276 23.7718 42.7894 23.6014 43.1188C23.431 43.4483 23.1826 43.7367 22.8753 43.9619L4.3358 57.6729V19.4066C4.3365 18.9814 4.45619 18.5639 4.68286 18.1959C4.90953 17.828 5.23519 17.5225 5.62716 17.3103C6.01912 17.0981 6.4636 16.9865 6.91595 16.9868C7.36831 16.987 7.81263 17.0992 8.2043 17.3119L11.9302 19.3266V48.1717L16.266 44.9645V12.9481C16.2664 12.5226 16.3861 12.1047 16.6129 11.7365C16.8396 11.3682 17.1656 11.0626 17.5579 10.8502C17.9502 10.6379 18.3951 10.5265 18.8478 10.527C19.3005 10.5276 19.7451 10.6402 20.1368 10.8534L23.8583 12.8659V21.0883L19.5245 18.7392V23.4396L23.8583 25.7906Z" fill="white"/>
</svg>
