<svg width="65" height="64" viewBox="0 0 65 64" fill="none" xmlns="http://www.w3.org/2000/svg">
<g clip-path="url(#clip0_2427_1727)">
<path d="M63.8264 10.75L61.4462 44.75L39.4958 0L63.8264 10.75ZM48.4875 54.75L32.0908 63.75L15.4297 54.75L18.6032 47H45.314L48.4875 54.75ZM32.0908 17L40.5536 37H23.3635L32.0908 17ZM2.47099 44.75L0.0908203 10.75L24.4214 0L2.47099 44.75Z" fill="url(#paint0_linear_2427_1727)"/>
<path d="M63.8264 10.75L61.4462 44.75L39.4958 0L63.8264 10.75ZM48.4875 54.75L32.0908 63.75L15.4297 54.75L18.6032 47H45.314L48.4875 54.75ZM32.0908 17L40.5536 37H23.3635L32.0908 17ZM2.47099 44.75L0.0908203 10.75L24.4214 0L2.47099 44.75Z" fill="url(#paint1_linear_2427_1727)"/>
</g>
<defs>
<linearGradient id="paint0_linear_2427_1727" x1="14.1602" y1="57.975" x2="63.7946" y2="33.0088" gradientUnits="userSpaceOnUse">
<stop stop-color="#E40035"/>
<stop offset="0.2" stop-color="#F60A48"/>
<stop offset="0.4" stop-color="#F20755"/>
<stop offset="0.5" stop-color="#DC087D"/>
<stop offset="0.7" stop-color="#9717E7"/>
<stop offset="1" stop-color="#6C00F5"/>
</linearGradient>
<linearGradient id="paint1_linear_2427_1727" x1="11.8594" y1="7.675" x2="42.9545" y2="45.2344" gradientUnits="userSpaceOnUse">
<stop stop-color="#FF31D9"/>
<stop offset="1" stop-color="#FF5BE1" stop-opacity="0"/>
</linearGradient>
<clipPath id="clip0_2427_1727">
<rect width="64" height="64" fill="white" transform="translate(0.0908203)"/>
</clipPath>
</defs>
</svg>
