<svg width="65" height="64" viewBox="0 0 65 64" fill="none" xmlns="http://www.w3.org/2000/svg">
<path d="M13.3747 50.9478L2.42573 39.9988C1.1271 38.6673 0.32251 36.7852 0.32251 34.9454C0.32251 34.0938 0.802439 32.7622 1.16474 32L11.2715 10.949L13.3747 50.9478Z" fill="#01579B"/>
<path d="M50.8517 13.0522L39.9027 2.10322C38.9476 1.14336 36.9573 0 35.2728 0C33.8236 0 32.4027 0.291722 31.4852 0.842229L11.2764 10.949L50.8517 13.0522Z" fill="#40C4FF"/>
<path d="M26.4271 64H52.9549V52.6323L33.1649 46.3132L15.0593 52.6323L26.4271 64Z" fill="#40C4FF"/>
<path d="M11.2715 45.0522C11.2715 48.4305 11.695 49.2586 13.3747 50.9478L15.0592 52.6323H52.9548L34.4304 31.5812L11.2715 10.949V45.0522Z" fill="#29B6F6"/>
<path d="M44.9559 10.9443H11.2715L52.9548 52.6276H64.3225V26.5232L50.8468 13.0476C48.9554 11.1514 47.2756 10.9443 44.9559 10.9443Z" fill="#01579B"/>
<path opacity="0.2" d="M13.798 51.3666C12.1135 49.6774 11.6948 48.0118 11.6948 45.0522V11.3677L11.276 10.949V45.0522C11.2713 48.0118 11.2713 48.8305 13.798 51.3666L15.059 52.6276L13.798 51.3666Z" fill="white"/>
<path opacity="0.2" d="M63.9036 26.1045V52.2089H52.5359L52.9547 52.6324H64.3224V26.5233L63.9036 26.1045Z" fill="#263238"/>
<path opacity="0.2" d="M50.8515 13.0522C48.7624 10.9631 47.0544 10.949 44.5371 10.949H11.2761L11.6949 11.3677H44.5371C45.7934 11.3677 48.9647 11.156 50.8515 13.0522Z" fill="white"/>
<path opacity="0.2" d="M63.9037 26.1044L50.8515 13.0522L39.9025 2.10322C38.9474 1.14336 36.9571 0 35.2726 0C33.8234 0 32.4024 0.291722 31.4849 0.842229L11.2761 10.949L1.16938 32C0.807078 32.7669 0.327148 34.0985 0.327148 34.9454C0.327148 36.7852 1.13644 38.6626 2.43037 39.9988L12.5183 50.0162C12.7583 50.3126 13.0406 50.6137 13.3746 50.9478L13.7934 51.3666L15.0544 52.6276L26.0034 63.5765L26.4221 63.9953H52.5265H52.9453V52.6276H64.313V52.5993V26.5232L63.9037 26.1044Z" fill="url(#paint0_radial_2427_1651)"/>
<defs>
<radialGradient id="paint0_radial_2427_1651" cx="0" cy="0" r="1" gradientUnits="userSpaceOnUse" gradientTransform="translate(32.3201 31.994) scale(31.9953 31.9953)">
<stop stop-color="white" stop-opacity="0.1"/>
<stop offset="1" stop-color="white" stop-opacity="0"/>
</radialGradient>
</defs>
</svg>
