<svg width="65" height="64" viewBox="0 0 65 64" fill="none" xmlns="http://www.w3.org/2000/svg">
<path d="M15.8359 37.5675C17.1873 36.9474 18.3036 35.397 17.6279 34.3014C15.7772 34.8595 15.8653 36.1412 15.8359 37.5675Z" fill="#E3E3F8"/>
<path d="M30.0405 41.123C31.3067 40.7922 32.5221 39.6346 31.8384 38.4357C30.8508 38.9938 30.2178 39.7586 30.0405 41.123Z" fill="#E3E3F8"/>
<path d="M2.13025 58.2391C2.13025 59.5414 2.44945 60.9471 3.32725 61.4432C6.55916 63.3243 17.8908 61.8566 21.7412 60.9678C23.7561 60.4923 25.392 58.9419 27.2873 58.0944C31.5566 56.172 34.6488 54.6216 38.0603 52.0376C40.5341 50.1565 44.4643 44.8646 44.8832 41.7019L41.5117 40.9163C41.4319 44.4718 40.6538 45.278 37.6015 46.1049C35.5466 46.6837 31.5366 46.8077 29.4419 46.4356C26.6688 45.9602 25.412 44.4512 24.1551 42.7354C21.7212 39.3866 24.6938 37.0508 20.8434 36.8234C16.7935 41.9706 9.65142 38.2704 6.51926 37.7536C5.18261 39.7587 2.05045 52.7818 2.08997 55.7585C4.0255 55.0764 5.24246 55.8205 6.97811 56.5234C13.1227 58.9833 7.75617 61.1538 5.30231 60.513C3.6265 60.0996 3.1078 58.9626 2.13025 58.2391Z" fill="#FDFDFD"/>
<path d="M10.1702 28.5341C12.6639 29.0302 14.8784 30.1051 16.9931 31.2007C20.4444 32.9785 21.0629 32.7304 21.3821 35.211C21.422 35.6658 21.3422 35.9138 22.5991 36.3273C24.7138 37.0094 21.3821 35.7898 27.0479 35.8105C30.4195 35.8311 38.1402 37.2368 40.6339 38.8699C41.6713 39.552 41.4718 40.4202 44.983 40.3169C44.9431 36.0378 43.8459 29.6503 42.2299 25.7227C40.2549 20.9683 37.6414 20.2448 32.3147 18.467C29.2025 17.4334 20.0654 16.2965 17.2325 18.1156C14.5791 19.8313 14.0804 21.8778 11.6066 25.4747C10.8884 26.5289 10.629 27.3351 10.1702 28.5341Z" fill="#FDFDFD"/>
<path d="M32.1354 37.3194C34.1304 38.1669 32.0356 43.6449 29.2625 42.3219C28.3648 39.6966 30.4994 38.2083 31.078 37.03C29.881 36.8439 26.4695 36.2858 25.4521 36.6786C24.1354 37.1954 23.8361 40.1101 24.5144 41.4744C27.7064 47.9653 41.8111 46.5803 40.3149 41.5364C39.7164 39.4899 39.1578 39.1592 37.1428 38.4563C35.5269 37.8982 33.9109 37.3194 32.1354 37.3194Z" fill="#FDFDFD"/>
<path d="M7.05811 36.5959C8.65411 38.1876 12.2651 38.4357 14.5992 38.5597C14.8985 35.3556 15.1578 32.9577 17.6316 33.1438C18.8486 34.8595 18.2102 36.8853 16.9334 38.1876C19.1079 38.167 20.3648 36.4719 20.0456 34.012C18.2102 32.6477 12.6441 29.919 9.85111 29.5262C9.07306 30.3945 7.15786 35.1489 7.05811 36.5959Z" fill="#FDFDFD"/>
<path d="M3.30736 57.0608C4.62406 56.9368 8.05547 57.9703 8.33477 59.128C6.20012 59.3967 3.48691 59.19 3.30736 57.0608ZM2.13031 58.2391C3.10786 58.9626 3.62656 60.0995 5.30237 60.5129C7.75622 61.1538 13.1228 58.9832 6.97817 56.5233C5.24252 55.8205 4.02556 55.0763 2.09003 55.7585C2.05051 52.7818 5.18266 39.7587 6.51932 37.7535C9.65148 38.2703 16.7936 41.9705 20.8435 36.8233C24.6938 37.0507 21.7213 39.3866 24.1552 42.7354C25.412 44.4511 26.6689 45.9602 29.4419 46.4356C31.5367 46.8077 35.5467 46.6837 37.6015 46.1049C40.6539 45.278 41.4319 44.4718 41.5117 40.9163L44.8833 41.7018C44.4643 44.8646 40.5342 50.1565 38.0604 52.0376C34.6489 54.6215 31.5566 56.1719 27.2873 58.0944C25.3921 58.9419 23.7562 60.4923 21.7412 60.9677C17.8909 61.8566 6.55922 63.3243 3.32731 61.4432C2.44951 60.947 2.13031 59.5414 2.13031 58.2391ZM30.0404 41.123C30.2177 39.7587 30.8508 38.9938 31.8383 38.4357C32.522 39.6347 31.3066 40.7923 30.0404 41.123ZM32.1352 37.3194C33.9108 37.3194 35.5267 37.8982 37.1427 38.4564C39.1576 39.1592 39.7162 39.49 40.3147 41.5364C41.811 46.5803 27.7063 47.9653 24.5143 41.4744C23.836 40.1101 24.1352 37.1954 25.4519 36.6786C26.4694 36.2859 29.8808 36.844 31.0778 37.03C30.4993 38.2083 28.3646 39.6967 29.2624 42.322C32.0354 43.6449 34.1302 38.167 32.1352 37.3194ZM15.836 37.5675C15.8654 36.1412 15.7772 34.8595 17.628 34.3014C18.3036 35.397 17.1873 36.9474 15.836 37.5675ZM7.05797 36.5959C7.15772 35.1489 9.07293 30.3945 9.85098 29.5263C12.644 29.919 18.2101 32.6477 20.0455 34.012C20.3647 36.4719 19.1078 38.167 16.9333 38.1877C18.2101 36.8853 18.8485 34.8595 17.6315 33.1438C15.1577 32.9577 14.8983 35.3556 14.5991 38.5597C12.2649 38.4357 8.65398 38.1877 7.05797 36.5959ZM5.06296 34.9422C4.32481 32.8337 4.32481 29.5469 7.45697 29.2782L5.86097 33.888C5.44202 34.8802 5.44202 34.6528 5.06296 34.9422ZM10.1702 28.534C10.629 27.3351 10.8884 26.5289 11.6066 25.4746C14.0804 21.8778 14.5791 19.8313 17.2325 18.1156C20.0654 16.2965 29.2025 17.4334 32.3147 18.467C37.6414 20.2447 40.2549 20.9682 42.2299 25.7227C43.8459 29.6503 44.9431 36.0378 44.983 40.3168C41.4718 40.4202 41.6713 39.552 40.6339 38.8698C38.1402 37.2368 30.4195 35.8311 27.0479 35.8104C21.3821 35.7897 24.7138 37.0094 22.5991 36.3272C21.3422 35.9138 21.422 35.6657 21.3821 35.2109C21.0629 32.7304 20.4445 32.9784 16.9931 31.2007C14.8784 30.1051 12.6639 29.0301 10.1702 28.534ZM45.4818 27.5211C45.1027 26.2188 45.801 26.3015 47.0179 25.4126C47.7162 24.8958 48.2748 24.3584 49.1327 23.8623C52.3446 22.0018 58.3296 21.6917 60.8832 23.9036C61.9206 24.7925 63.6164 26.5289 63.357 28.8028C62.8184 33.3298 59.8259 35.8104 57.372 37.8776C54.8783 39.9861 50.7287 42.1566 46.4394 40.7096C46.0803 39.8 46.3596 34.0327 45.9406 31.9035C45.5616 30.0017 45.7611 29.795 46.8184 28.6581C49.9307 25.3093 56.6738 22.87 60.5042 25.7434C62.1201 26.9837 61.6613 27.4591 62.4992 28.41C63.5366 27.2524 61.6014 23.3661 54.4593 23.6142C49.6115 23.7796 47.5167 27.7072 45.4818 27.5211ZM16.4345 15.759C16.5343 12.8857 19.0879 6.93224 21.6415 4.86508C24.7337 2.38449 27.9656 0.0486067 32.7138 2.83927C33.8908 3.52143 33.831 3.87285 33.9507 5.56792C34.0504 7.20097 33.9108 7.80045 33.5118 9.12343C30.3596 19.6659 27.7262 13.6092 17.6315 16.1104C18.0106 12.6789 20.8834 9.61954 22.4794 8.02783C25.2125 5.27851 27.1876 3.50076 31.2973 4.07956C32.4345 6.04336 32.5541 7.28366 31.1776 9.5782C29.3422 12.6376 28.8833 12.4515 29.1626 14.5394C30.599 14.1673 31.0379 12.7203 31.6963 11.2733C35.7063 2.59121 29.8808 1.53696 26.3098 3.12867C23.9158 4.18292 19.6465 9.06141 18.25 11.9968C17.9707 12.5756 17.6714 13.3198 17.4121 13.9606L16.4345 15.759ZM32.2349 16.1931C32.6539 13.6092 35.1277 12.9683 35.1277 5.00978C35.1277 1.5783 31.0579 -1.50176 25.7312 0.792783C21.1627 2.73591 20.4644 4.22426 18.0305 8.02783C15.7362 11.6247 15.816 15.573 13.841 18.9011C13.2624 19.852 12.7437 20.1827 12.1053 21.1336C11.6465 21.8364 11.3073 22.7253 10.8485 23.5522C9.91083 25.1439 8.95323 26.3015 8.19512 28.2033C5.80112 28.2653 3.78616 28.3066 3.54676 30.8699C3.22756 34.3841 4.82356 35.2523 4.82356 36.5753C4.80361 38.0016 -0.782403 52.389 0.773701 60.9677C1.2126 63.3243 2.70886 63.345 5.10286 63.6344C10.8684 64.3579 18.3497 64.1098 23.5168 61.96L32.8933 57.3089C35.2674 55.9239 39.2574 53.2986 41.0329 51.3761C42.2898 50.0325 42.9481 48.8955 44.0254 47.3038C45.5017 45.0713 45.5416 45.1126 45.8608 42.0739C47.8159 42.446 51.4668 43.3349 52.6838 44.4305C52.5441 45.8568 51.8658 45.1746 51.8658 46.4563C52.6439 46.477 53.9406 45.464 54.2598 44.3478C53.4419 43.1075 52.584 43.3142 51.407 42.322C52.3446 41.5571 54.0404 41.2057 55.3371 40.6476C58.1301 39.4486 62.8982 35.8104 64.0752 32.503C65.0129 29.8363 64.3146 25.392 62.7984 23.6555C61.2024 21.8364 57.4917 20.9062 54.4593 20.9062C50.8484 20.9062 47.1177 23.5935 44.205 24.7511C43.0878 23.7382 43.008 22.5806 42.19 21.4644C41.2524 20.1414 35.1477 16.8339 32.2349 16.1931Z" fill="#020202"/>
<path d="M45.4817 27.5212C47.5166 27.7073 49.6114 23.7797 54.4592 23.6143C61.6014 23.3662 63.5365 27.2525 62.4991 28.4101C61.6612 27.4592 62.1201 26.9838 60.5041 25.7435C56.6737 22.8701 49.9306 25.3094 46.8184 28.6582C45.761 29.7951 45.5615 30.0018 45.9406 31.9036C46.3595 34.0328 46.0802 39.8001 46.4393 40.7097C50.7286 42.1567 54.8782 39.9862 57.372 37.8777C59.8258 35.8105 62.8183 33.3299 63.357 28.8029C63.6163 26.529 61.9206 24.7926 60.8832 23.9037C58.3296 21.6918 52.3445 22.0019 49.1326 23.8623C48.2747 24.3585 47.7161 24.8959 47.0179 25.4127C45.8009 26.3016 45.1027 26.2189 45.4817 27.5212Z" fill="#FDF2F2"/>
<path d="M16.4346 15.759L17.4121 13.9606C17.6715 13.3198 17.9707 12.5756 18.25 11.9968C19.6465 9.06141 23.9158 4.18292 26.3099 3.12867C29.8809 1.53696 35.7063 2.59121 31.6964 11.2733C31.038 12.7203 30.5991 14.1673 29.1627 14.5394C28.8834 12.4515 29.3423 12.6376 31.1777 9.5782C32.5542 7.28365 32.4345 6.04336 31.2974 4.07956C27.1877 3.50076 25.2126 5.27851 22.4794 8.02783C20.8834 9.61954 18.0106 12.6789 17.6316 16.1104C27.7263 13.6092 30.3597 19.6659 33.5118 9.12342C33.9108 7.80044 34.0505 7.20097 33.9507 5.56791C33.831 3.87284 33.8909 3.52143 32.7138 2.83927C27.9657 0.0486037 24.7338 2.38449 21.6415 4.86508C19.0879 6.93224 16.5343 12.8856 16.4346 15.759Z" fill="#FEF3F3"/>
<path d="M5.06281 34.9422C5.44186 34.6528 5.44186 34.8802 5.86081 33.888L7.45682 29.2782C4.32466 29.5469 4.32466 32.8337 5.06281 34.9422Z" fill="#EFEFEF"/>
<path d="M8.33479 59.1279C8.05549 57.9703 4.62408 56.9368 3.30737 57.0608C3.48692 59.19 6.20013 59.3967 8.33479 59.1279Z" fill="#FAF1F1"/>
</svg>
