<svg width="65" height="64" viewBox="0 0 65 64" fill="none" xmlns="http://www.w3.org/2000/svg">
<path d="M1.46805 34.6462C1.59311 36.5373 4.16926 35.656 5.31977 35.0685C6.42026 34.4993 6.74541 34.9767 6.84545 33.8751C6.92049 33.1406 7.02053 32.4246 6.97051 31.6902C5.29476 31.58 3.49396 31.8738 2.11834 32.6082C1.39302 32.9754 0.0924371 34.1872 1.46805 34.6462Z" fill="#F6D2A2"/>
<path d="M52.8159 57.8906C54.7918 58.7903 58.4184 61.5076 55.4421 62.8296C52.5908 64.7391 50.9901 60.7181 48.489 60.1673C49.5645 59.0841 50.9151 58.0926 52.8159 57.8906Z" fill="#F6D2A2"/>
<path d="M17.4502 60.9568C15.1242 61.2138 13.8236 62.7561 11.8727 63.5456C10.0469 64.3351 9.34659 63.2886 9.19653 63.0683C8.9214 62.9765 8.94641 63.1601 8.49621 62.8296C6.79545 60.865 10.247 59.4329 12.0478 58.4598C14.5489 58.0926 16.1246 59.6899 17.4502 60.9568Z" fill="#F6D2A2"/>
<path d="M63.7957 34.4077C63.6707 36.2988 61.0945 35.4175 59.944 34.83C58.8435 34.2608 58.5184 34.7382 58.4183 33.6365C58.3433 32.9021 58.2432 32.1861 58.2932 31.4516C59.969 31.3415 61.7698 31.6352 63.1454 32.3697C63.8457 32.7369 65.1713 33.9487 63.7957 34.4077Z" fill="#F6D2A2"/>
<path d="M56.9677 11.3467C65.8967 9.03326 58.9186 0.0549703 51.1401 4.02084C46.0379 0.807751 39.0097 0.220215 31.6314 0.220215C24.4032 0.642507 17.5251 1.61561 12.723 4.70018C4.96952 1.02808 -2.18368 9.84112 6.92039 12.0627C4.36925 19.3335 7.27054 26.7512 6.87037 34.1504C6.4952 40.7969 4.11914 49.7018 9.14638 55.669C13.4233 60.7732 22.6274 62.5909 30.2058 62.7928C39.8851 63.0499 51.6153 61.3056 56.3175 54.4204C60.8195 47.8657 59.5689 39.6953 58.9936 32.6265C58.4184 25.4843 59.4939 18.2319 56.9677 11.3467Z" fill="#69D7E2"/>
<path d="M64.4712 33.2876C64.2211 32.902 63.7459 32.4614 63.2957 32.2227C62.1451 31.6168 60.6695 31.2863 59.1438 31.2496C59.0938 30.1112 59.0438 28.8627 59.0438 27.2837V25.8516C59.0188 21.3349 58.9437 19.352 58.5936 16.8733C58.3184 14.9271 57.8932 13.1278 57.293 11.4386C59.3189 10.8694 60.6445 9.93304 61.1697 8.72124C61.6699 7.60125 61.4198 6.33438 60.5694 5.21439C59.6941 4.11275 58.2934 3.28653 56.6677 2.95604C54.9169 2.60719 53.0161 2.86424 51.1903 3.7639C49.5645 2.75408 47.6887 1.98294 45.5878 1.3954C41.8611 0.385571 37.5342 0 31.6565 0V0.183605L31.6315 0C25.3537 0.36721 20.7016 1.08327 16.8499 2.46031C15.2992 3.01112 13.9236 3.6721 12.7231 4.44324C10.8722 3.59866 8.94639 3.39669 7.17059 3.80063C5.51986 4.16784 4.09422 5.03078 3.24384 6.15077C2.39346 7.27076 2.19337 8.556 2.76863 9.65763C3.34389 10.7593 4.66948 11.6222 6.64536 12.1547C6.02008 14.0091 5.69494 15.9736 5.64491 18.1402C5.59489 20.2516 5.71995 21.9408 6.17015 25.7598C6.49529 28.6057 6.62035 29.9093 6.67037 31.4883C4.96961 31.4332 3.26885 31.7637 1.99328 32.443C1.54308 32.6817 1.04286 33.104 0.817757 33.5079C0.492612 34.022 0.617668 34.481 1.26796 34.7565C1.368 35.6378 2.0433 36.0417 3.06876 35.9682C3.8191 35.9132 4.7195 35.6194 5.49485 35.2155C5.66992 35.1237 5.845 35.0502 6.02008 34.9951C6.09511 34.9768 6.14514 34.9584 6.22017 34.9401C6.22017 34.9401 6.37024 34.9033 6.42026 34.885C6.49529 34.8666 6.57033 34.8483 6.62035 34.8115C6.57033 35.6745 6.47028 36.5741 6.24518 38.6305C5.99507 40.9439 5.87001 42.2108 5.81999 43.6246C5.59489 48.8757 6.44527 52.6947 8.99641 55.7242C9.79677 56.6789 10.7722 57.5235 11.9227 58.2946C11.6976 58.4048 10.7472 58.9189 10.4471 59.0841C9.39659 59.6717 8.67126 60.1674 8.24607 60.7182C7.69583 61.4343 7.69583 62.1503 8.32111 62.9031L8.34612 62.9215L8.37113 62.9398C8.64625 63.1418 8.79632 63.1969 8.99641 63.1969H9.02142H9.07144C9.09645 63.2336 9.12147 63.252 9.14648 63.2887C9.22151 63.3805 9.29655 63.4539 9.37158 63.5274C9.99686 64.0598 10.8722 64.1884 12.0478 63.6743C12.6731 63.4356 13.1233 63.1602 14.0737 62.5726C14.0987 62.5543 14.0987 62.5543 14.1237 62.5359C15.6494 61.5812 16.3997 61.2323 17.5252 61.1038L17.9254 61.0487C18.0755 61.1038 18.2255 61.1405 18.4006 61.1956C21.9522 62.2421 26.079 62.8113 30.2559 62.9215C35.6583 63.0684 40.8606 62.5726 45.2626 61.3976C46.4381 61.0854 47.5386 60.7182 48.5891 60.3143C49.2394 60.4979 49.7896 60.8835 50.8401 61.7831C50.8901 61.8198 50.8901 61.8198 50.9151 61.8566C50.9652 61.8933 50.9652 61.9116 50.9902 61.93C51.0402 61.9851 51.1152 62.0218 51.1652 62.0769C51.9906 62.793 52.5409 63.1418 53.1661 63.3438C53.9915 63.6008 54.7919 63.4723 55.6172 62.9215C57.0679 62.2605 57.1679 61.2323 56.2175 60.0572C55.5422 59.231 54.3667 58.3681 53.2662 57.8173C54.5668 56.8809 55.6923 55.7609 56.5677 54.494C58.9687 50.9688 59.8941 46.856 59.8441 41.5682C59.8191 39.6954 59.7191 38.0613 59.4439 34.9401V34.8483C59.569 34.885 59.6941 34.9401 59.8191 35.0135C60.5945 35.3991 61.4949 35.7112 62.2452 35.7663C63.2707 35.8397 63.946 35.4358 64.046 34.5545C64.6713 34.2607 64.7963 33.8017 64.4712 33.2876ZM56.5176 3.34161C58.0183 3.63538 59.3189 4.40652 60.1192 5.43471C60.9196 6.4629 61.1447 7.61961 60.6945 8.6478C60.2193 9.73107 59.0188 10.594 57.1429 11.1081C56.7677 10.1166 56.3175 9.14353 55.8173 8.20715C56.5426 7.74814 56.8928 7.17896 56.3175 6.3711C55.7423 5.56323 54.7418 5.47143 53.7164 5.71012C53.0661 5.08586 52.3408 4.53505 51.5904 4.02095C53.2412 3.24981 54.9419 3.02948 56.5176 3.34161ZM3.19382 9.54747C2.66858 8.556 2.84366 7.38093 3.64402 6.35274C4.44438 5.32455 5.74496 4.51669 7.29565 4.1862C8.89637 3.83735 10.6221 4.00259 12.3229 4.73701C11.3475 5.37963 10.4721 6.11405 9.72173 6.92191C8.42115 6.42618 7.09556 6.33438 6.34523 7.3442C5.56988 8.42747 6.47028 9.10681 7.74585 9.62091C7.57077 9.93304 7.3957 10.2635 7.24563 10.594C7.07055 10.9979 6.89547 11.4202 6.7454 11.8425C4.91959 11.3284 3.71905 10.5389 3.19382 9.54747ZM6.22017 34.5728C6.19516 34.5728 6.04509 34.6096 6.04509 34.6279C5.97006 34.6463 5.89502 34.6646 5.81999 34.7014C5.6199 34.7564 5.41981 34.8483 5.21972 34.9584C4.51941 35.3256 3.66903 35.601 3.01874 35.6378C2.26841 35.6928 1.84322 35.4542 1.76818 34.7932C2.29342 34.6646 2.51852 34.5728 2.71861 34.3525L2.31843 34.1322C2.16836 34.2791 2.01829 34.3342 1.56809 34.4443C1.54308 34.4443 1.54308 34.4443 1.51807 34.4627C1.11789 34.2974 1.04286 34.0404 1.26796 33.6732C1.46805 33.3427 1.91825 32.9571 2.29342 32.7552C3.49395 32.1125 5.09467 31.8004 6.69538 31.8738C6.69538 32.3329 6.72039 32.7919 6.69538 33.2325C6.69538 33.2876 6.69538 33.3243 6.67037 33.3794C6.64536 33.6365 6.64536 33.7466 6.62035 33.8751C6.54532 34.4076 6.49529 34.481 6.22017 34.5728ZM13.7735 62.2789C13.7485 62.2972 13.7485 62.2972 13.7235 62.3156C12.7981 62.9031 12.3479 63.1418 11.7727 63.3805C10.8222 63.8028 10.1719 63.711 9.72173 63.307C9.6467 63.252 9.59668 63.1785 9.54666 63.1234C9.52164 63.1051 9.49663 63.0684 9.47162 63.05C9.47162 63.05 9.47162 63.05 9.47162 63.0316C9.52164 62.7011 9.69672 62.4625 10.1469 61.9484C10.1719 61.93 10.1719 61.93 10.1719 61.9116C10.4471 61.6179 10.5721 61.4526 10.6972 61.2507L10.247 61.1038C10.1469 61.269 10.0219 61.4159 9.77176 61.7097C9.74675 61.728 9.74675 61.728 9.74675 61.7464C9.29655 62.2238 9.09646 62.5175 8.99641 62.848H8.9714C8.9714 62.848 8.9714 62.848 8.94639 62.848H8.89637C8.84634 62.8297 8.77131 62.7929 8.67126 62.7195C7.69583 61.5812 8.47118 60.608 10.6722 59.3963C10.9473 59.2494 11.8727 58.772 12.1228 58.6251C12.1728 58.6251 12.2229 58.6068 12.2729 58.5884C13.6235 59.433 15.1992 60.1674 16.95 60.7733C16.95 60.7917 16.975 60.81 17 60.8284C15.9745 61.012 15.1742 61.3976 13.7735 62.2789ZM55.7673 60.2776C56.5426 61.2323 56.5176 62.0035 55.5422 62.5359C55.4672 62.4257 55.4171 62.2972 55.3171 62.1136C55.3171 62.0953 55.3171 62.0953 55.2921 62.0769C54.9419 61.3792 54.7168 61.0854 54.2916 60.7549L53.9415 61.012C54.3167 61.269 54.4917 61.5444 54.8419 62.1871C54.8419 62.2054 54.8419 62.2054 54.8669 62.2238C54.992 62.4625 55.067 62.6093 55.142 62.7379C54.4917 63.1418 53.9165 63.2152 53.3162 63.0133C52.791 62.848 52.2907 62.4992 51.4904 61.8382C51.4404 61.8015 51.3903 61.7464 51.3403 61.6913C51.3153 61.673 51.2903 61.6546 51.2653 61.6179C51.2153 61.5812 51.2153 61.5812 51.1903 61.5444C50.2648 60.7549 49.7146 60.3326 49.1143 60.094C50.515 59.5064 51.7655 58.8454 52.891 58.0743C53.9415 58.6435 55.117 59.4881 55.7673 60.2776ZM56.1175 54.3288C53.9665 57.5051 50.1648 59.7451 45.0625 61.1038C40.7106 62.2605 35.5583 62.7379 30.2309 62.591C21.0518 62.3523 13.0982 60.0022 9.37158 55.5589C6.87046 52.6029 6.04509 48.839 6.27019 43.6613C6.34523 42.2475 6.44527 40.9807 6.69538 38.6672C6.9705 36.06 7.04554 35.3073 7.12057 34.1322C7.17059 33.2876 7.17059 32.4247 7.14558 31.5066C7.09556 29.8909 6.9705 28.6057 6.64536 25.7231C6.19516 21.9041 6.0701 20.2333 6.12013 18.1402C6.19516 15.3861 6.69538 12.9625 7.74585 10.6675C9.44661 6.94027 12.573 4.42488 17.075 2.7908C20.8517 1.43212 25.4287 0.73442 31.6565 0.36721C37.4841 0.36721 41.736 0.752781 45.4127 1.74425C49.8146 2.93768 53.0911 5.03078 55.3421 8.24387C56.7928 10.8511 57.6431 13.6602 58.0933 16.8917C58.4435 19.352 58.5185 21.3349 58.5435 25.8332V27.2654C58.5686 29.487 58.6186 31.0476 58.7436 32.6083C58.7937 33.2142 58.8187 33.4712 58.9437 34.9217C59.2188 38.043 59.3189 39.6587 59.3439 41.5315C59.3939 46.8009 58.4935 50.8586 56.1175 54.3288ZM63.7709 34.224C63.7459 34.224 63.7209 34.2056 63.6958 34.2056C63.2456 34.0955 63.0956 34.022 62.9455 33.8935L62.5453 34.1138C62.7704 34.3342 62.9955 34.426 63.4958 34.5545C63.3957 35.2155 62.9705 35.4541 62.2452 35.3991C61.5949 35.3623 60.7445 35.0686 60.0442 34.7197C59.8441 34.6096 59.644 34.5361 59.4439 34.4627C59.4189 34.4627 59.3939 34.4443 59.3689 34.4443C59.2689 33.4345 59.2689 33.1774 59.2188 32.645C59.1938 32.3145 59.1688 31.984 59.1438 31.6535C60.5444 31.6719 61.9201 31.984 62.9705 32.5532C63.3457 32.7552 63.7959 33.1407 63.996 33.4712C64.2461 33.7833 64.1961 34.0588 63.7709 34.224Z" fill="black"/>
<path d="M35.4234 19.1556C35.4484 20.092 35.6985 21.1202 35.4734 22.1116C35.1233 22.589 34.473 22.6441 33.8977 22.8277C33.0974 22.7359 32.4221 22.3503 32.0969 21.7995C31.8968 20.6795 32.147 19.6146 32.222 18.4946C32.222 18.4579 33.1724 18.513 34.0228 18.6966C34.7481 18.8618 35.4234 19.1372 35.4234 19.1556Z" fill="white"/>
<path d="M28.3454 19.229C27.6451 21.1753 29.2708 24.3516 31.947 21.7444C31.7469 20.6428 31.972 19.5779 32.0471 18.4946C32.0721 18.4028 28.3704 19.1005 28.3454 19.229Z" fill="white"/>
<path d="M35.7235 20.0183C35.6735 19.4675 35.6485 19.2471 35.6485 18.9717V18.8432L35.4734 18.8065L32.322 18.0904V17.9619L31.9969 18.017H31.9719V18.0354L28.4203 18.6963L28.2952 18.7147L28.2452 18.8065C27.695 19.7796 27.82 21.2484 28.5203 22.1481C29.3207 23.1763 30.6213 23.1947 31.9469 22.0196C32.322 22.552 33.0223 22.9193 33.8227 23.0111H33.8977L33.9728 22.9927C34.0728 22.956 34.1729 22.9376 34.3479 22.8825C34.3729 22.8825 34.3729 22.8825 34.398 22.8642C35.1233 22.6806 35.4234 22.5337 35.6735 22.1848L35.6985 22.1665V22.1297C35.7736 21.7993 35.7986 21.4504 35.7986 21.0648C35.7986 20.7894 35.7736 20.5324 35.7235 20.0183ZM31.7218 19.339C31.6967 19.6694 31.6717 19.798 31.6467 19.9816C31.5967 20.6609 31.5967 21.175 31.6717 21.6891C30.4962 22.7907 29.5708 22.7907 28.9455 21.9645C28.3453 21.1934 28.2202 19.8898 28.6704 19.0268L31.8218 18.4393C31.7968 18.678 31.7718 18.9167 31.7218 19.339ZM35.2233 22.0563C35.0482 22.2766 34.8231 22.3868 34.2229 22.5337C34.1979 22.5337 34.1979 22.5337 34.1729 22.552C34.0228 22.5888 33.9227 22.6255 33.8477 22.6438C33.1724 22.552 32.5972 22.2216 32.322 21.7625C32.247 21.2668 32.247 20.7527 32.297 20.0734C32.322 19.8898 32.322 19.7612 32.3721 19.4308C32.4221 19.0085 32.4471 18.7514 32.4471 18.5127L35.1733 19.1186C35.1733 19.3573 35.1983 19.5776 35.2483 20.055C35.2984 20.5507 35.3234 20.8078 35.3234 21.1016C35.3234 21.4504 35.2984 21.7625 35.2233 22.0563Z" fill="black"/>
<path d="M13.2896 11.1563C15.5907 17.7293 29.9221 16.0402 29.3718 9.44874C28.7215 1.55372 11.0886 3.07764 13.2896 11.1563Z" fill="white"/>
<path d="M29.6219 9.43018C29.4718 7.52068 28.3213 6.03348 26.4204 5.0971C24.7197 4.25251 22.4687 3.92202 20.2427 4.12399C18.0167 4.34431 15.9658 5.07873 14.6152 6.23545C13.1145 7.52068 12.5392 9.20985 13.0645 11.1561L13.2896 11.1193L13.0645 11.1561C15.4155 17.9127 30.1721 16.2786 29.6219 9.43018ZM13.5147 11.1193C13.0145 9.26493 13.5647 7.68593 14.9653 6.49249C16.2409 5.40922 18.1668 4.69316 20.2927 4.4912C22.4187 4.28923 24.5446 4.60136 26.1453 5.40922C27.9211 6.29053 28.9966 7.66757 29.1467 9.48526C29.6719 15.8931 15.7407 17.4354 13.5147 11.1193Z" fill="black"/>
<path d="M17.2415 12.0007C18.5814 12.0007 19.6676 11.1376 19.6676 10.0729C19.6676 9.00815 18.5814 8.14502 17.2415 8.14502C15.9016 8.14502 14.8154 9.00815 14.8154 10.0729C14.8154 11.1376 15.9016 12.0007 17.2415 12.0007Z" fill="black"/>
<path d="M18.3419 11.0093C18.6596 11.0093 18.9171 10.7873 18.9171 10.5136C18.9171 10.2398 18.6596 10.0178 18.3419 10.0178C18.0242 10.0178 17.7666 10.2398 17.7666 10.5136C17.7666 10.7873 18.0242 11.0093 18.3419 11.0093Z" fill="white"/>
<path d="M33.3881 9.92723C35.1639 17.4734 51.9714 15.4721 49.5454 7.87085C47.3694 1.04074 32.7879 2.93188 33.3881 9.92723Z" fill="white"/>
<path d="M49.7706 7.83418C47.5446 0.802108 32.5379 2.72996 33.1381 9.94564V9.964C33.9635 13.5259 38.2904 15.3436 43.0676 14.7561C45.2435 14.4807 47.1944 13.7095 48.47 12.5712C49.8706 11.3043 50.3708 9.67024 49.7706 7.83418ZM48.0948 12.3509C46.8943 13.4158 45.0685 14.1502 42.9925 14.4072C38.4655 14.9581 34.4137 13.2505 33.6133 9.90892C33.0631 3.11553 47.2194 1.29784 49.3204 7.90763C49.8706 9.65187 49.4204 11.1758 48.0948 12.3509Z" fill="black"/>
<path d="M37.515 11.5247C38.8272 11.5247 39.891 10.6615 39.891 9.5968C39.891 8.53207 38.8272 7.66895 37.515 7.66895C36.2027 7.66895 35.1389 8.53207 35.1389 9.5968C35.1389 10.6615 36.2027 11.5247 37.515 11.5247Z" fill="black"/>
<path d="M38.6157 10.533C38.9196 10.533 39.1659 10.311 39.1659 10.0372C39.1659 9.76345 38.9196 9.5415 38.6157 9.5415C38.3118 9.5415 38.0654 9.76345 38.0654 10.0372C38.0654 10.311 38.3118 10.533 38.6157 10.533Z" fill="white"/>
<path d="M28.8617 15.2625C26.8858 15.391 25.2851 17.0986 26.3106 18.4572C27.6612 20.2566 30.6875 18.292 32.5634 18.4756C34.7393 18.5123 36.5151 20.1648 38.2409 18.7694C40.1668 17.2271 37.4155 15.7215 35.2396 15.0605L28.8617 15.2625Z" fill="#F6D2A2"/>
<path d="M38.4912 16.4929C37.8159 15.8686 36.6404 15.2994 35.3648 14.9139L35.3148 14.8955H35.2647L28.8619 15.0791C26.6359 15.226 25.0352 17.1171 26.1107 18.5492C26.5358 19.1001 27.1111 19.3755 27.8864 19.4122C28.4617 19.4306 29.062 19.3388 29.9874 19.1001C30.0624 19.0817 30.1625 19.0633 30.2875 19.0266C31.5381 18.7145 32.0383 18.6227 32.5385 18.6778H32.5635C33.1638 18.6778 33.664 18.8063 34.6145 19.0817C35.6649 19.3938 35.9901 19.4856 36.5153 19.5224C37.2406 19.5591 37.8659 19.3755 38.4412 18.9165C39.4166 18.127 39.3666 17.2824 38.4912 16.4929ZM38.066 18.6594C37.5908 19.045 37.1156 19.1735 36.5403 19.1551C36.0901 19.1368 35.79 19.045 34.7895 18.7512C33.7891 18.4391 33.2388 18.3289 32.5885 18.3106C31.9633 18.2555 31.438 18.3473 30.1124 18.6778C29.9874 18.7145 29.8873 18.7329 29.8123 18.7512C27.9865 19.2102 27.1111 19.1735 26.5108 18.3656C25.6104 17.1722 26.986 15.5565 28.8619 15.428L35.1897 15.2444C36.3902 15.6116 37.4657 16.144 38.091 16.7132C38.8413 17.3742 38.8663 18.0352 38.066 18.6594Z" fill="#231F20"/>
<path d="M35.7399 14.473C34.9645 12.3799 28.4616 12.692 28.6117 15.189C28.9368 17.0434 36.4902 16.5477 35.7399 14.473Z" fill="black"/>
</svg>
