<svg width="65" height="64" viewBox="0 0 65 64" fill="none" xmlns="http://www.w3.org/2000/svg">
<path fill-rule="evenodd" clip-rule="evenodd" d="M38.3107 7.33428L53.0973 14.9324C53.5136 14.5398 54 14.1933 54.5517 13.9081C57.6184 12.3391 61.5298 13.2707 63.311 16C65.0739 18.7293 64.0272 22.2104 60.9605 23.7957C60.413 24.0758 59.838 24.2762 59.2527 24.4009V39.603C59.8316 39.728 60.4004 39.9271 60.9421 40.2043C64.0272 41.7896 65.0739 45.2707 63.2926 48C61.5298 50.7293 57.6 51.6609 54.5333 50.0919C53.9228 49.7796 53.3923 49.3908 52.9481 48.9468L38.2518 56.4985C38.4619 57.0635 38.5756 57.6679 38.5756 58.2962C38.5756 61.4341 35.7109 64 32.1667 64C28.6226 64 25.7579 61.4505 25.7579 58.2962C25.7579 57.7355 25.8484 57.194 26.0172 56.6824L11.2346 49.0864C10.8227 49.4712 10.3431 49.8113 9.80018 50.0919C6.71513 51.6609 2.80374 50.7293 1.04086 48C-0.722026 45.2707 0.324685 41.7896 3.39137 40.2043C3.93358 39.9269 4.50221 39.7276 5.08079 39.6027V24.4009C4.49552 24.2762 3.9205 24.0758 3.373 23.7957C0.306322 22.2268 -0.740389 18.7293 1.02249 16C2.78538 13.2707 6.71513 12.3391 9.78181 13.9081C10.3305 14.1917 10.8146 14.5361 11.2294 14.926L26.0199 7.32583C25.8494 6.81186 25.7579 6.26748 25.7579 5.70378C25.7579 2.54954 28.6226 0 32.1667 0C35.7109 0 38.5756 2.54954 38.5756 5.70378C38.5756 6.27057 38.4831 6.81783 38.3107 7.33428ZM36.7702 9.67528L51.5919 17.2914C51.1337 18.7235 51.3019 20.3115 52.2012 21.7038C53.1034 23.1006 54.5732 24.0266 56.2044 24.3874V39.6085C56.1213 39.6267 56.0385 39.6463 55.9563 39.6674L36.5981 9.82741C36.6565 9.77766 36.7139 9.72694 36.7702 9.67528ZM27.7395 9.83086L8.38158 39.6703C8.29789 39.6487 8.21371 39.6286 8.12911 39.61V24.3874C9.7603 24.0266 11.2301 23.1006 12.1323 21.7038C13.0334 20.3087 13.2004 18.7173 12.7389 17.2829L27.5564 9.66893C27.6162 9.72399 27.6773 9.77798 27.7395 9.83086ZM33.9574 11.1827L53.311 41.0154C52.8778 41.3829 52.4961 41.8112 52.1828 42.2962C51.8714 42.7784 51.6476 43.2845 51.5072 43.7998H12.8266C12.6862 43.2849 12.4624 42.7788 12.1507 42.2962C11.8362 41.8143 11.4552 41.3884 11.0243 41.0225L30.3815 11.1841C30.948 11.3296 31.547 11.4076 32.1667 11.4076C32.7885 11.4076 33.3893 11.3291 33.9574 11.1827ZM36.9063 54.4536L51.6318 46.8869C51.5876 46.7634 51.5481 46.6386 51.5134 46.5128H12.8184C12.7979 46.5867 12.7758 46.6603 12.7519 46.7334L27.5497 54.3373C28.7148 53.2611 30.3517 52.5924 32.1667 52.5924C34.0463 52.5924 35.7348 53.3095 36.9063 54.4536Z" fill="#E535AB"/>
</svg>
