<svg width="65" height="64" viewBox="0 0 65 64" fill="none" xmlns="http://www.w3.org/2000/svg">
<path d="M30.0215 26.5004H34.9786L36.2103 24.8048V11.526H28.7908V24.8062L30.0215 26.5004Z" fill="#8A4182"/>
<path d="M26.8265 32.4228L28.3578 27.709L27.1261 26.014L14.496 21.9108L12.2036 28.9661L24.8351 33.0702L26.8265 32.4228Z" fill="#8A4182"/>
<path d="M31.4721 37.2922L27.4622 34.3783L25.469 35.0262L17.6636 45.7695L23.6657 50.1298L31.4721 39.3862V37.2922Z" fill="#8A4182"/>
<path d="M37.5388 34.3779L33.5278 37.2913L33.5287 39.3866L41.3344 50.1298L47.3369 45.7695L39.5299 35.0253L37.5388 34.3779Z" fill="#8A4182"/>
<path d="M36.6416 27.7081L38.1738 32.4222L40.1667 33.0692L52.797 28.9661L50.504 21.9103L37.8733 26.0144L36.6416 27.7081Z" fill="#8A4182"/>
<path d="M32.5016 3.8147e-06C14.8561 3.8147e-06 0.5 14.3529 0.5 31.9948C0.5 49.6431 14.8561 64 32.5016 64C50.1454 64 64.5 49.6431 64.5 31.9948C64.5 14.3529 50.1454 3.8147e-06 32.5016 3.8147e-06ZM32.5016 6.47845C46.593 6.47845 58.0203 17.901 58.0203 31.9948C58.0203 46.0931 46.593 57.5207 32.5016 57.5207C18.4055 57.5207 6.97968 46.0931 6.97968 31.9948C6.97968 17.901 18.4055 6.47845 32.5016 6.47845Z" fill="#8A4182"/>
<path d="M51.8834 39.1064L42.2825 35.9867L42.9172 34.0312L52.5182 37.1509L51.8834 39.1064Z" fill="#8A4182"/>
<path d="M39.6384 23.6937L37.9746 22.4854L43.9079 14.3187L45.5717 15.527L39.6384 23.6937Z" fill="#8A4182"/>
<path d="M25.4648 23.6195L19.5322 15.4523L21.1961 14.244L27.1287 22.4107L25.4648 23.6195Z" fill="#8A4182"/>
<path d="M13.0775 38.9845L12.4424 37.029L22.0424 33.9106L22.6776 35.8662L13.0775 38.9845Z" fill="#8A4182"/>
<path d="M31.4087 52.3953H33.4649V42.3004H31.4087V52.3953Z" fill="#8A4182"/>
</svg>
