<svg width="64" height="64" viewBox="0 0 64 64" fill="none" xmlns="http://www.w3.org/2000/svg">
<path d="M59.993 31.511C59.993 28.221 57.0475 25.554 53.4139 25.554C53.1802 25.554 52.9497 25.5653 52.7225 25.5869L61.7587 1.45483H23.3576L32.3813 25.5659C32.2489 25.5586 32.1158 25.554 31.9815 25.554C28.348 25.554 25.4024 28.221 25.4024 31.511C25.4024 34.1704 27.3272 36.4218 29.9837 37.1878C28.5807 39.3885 26.8151 41.3705 24.8106 43.083C22.085 45.4113 18.9655 47.1767 15.5915 48.2647C11.5746 46.3961 9.6776 42.2407 11.3893 38.5972C11.5825 38.1857 11.78 37.7687 11.9684 37.3535C14.8787 36.7385 17.0471 34.3763 17.0471 31.5538C17.0471 28.2638 14.1016 25.5967 10.468 25.5967C6.8345 25.5967 3.88888 28.2638 3.88888 31.5538C3.88888 33.5713 4.99758 35.3533 6.69213 36.4309C5.06379 39.788 2.67011 43.3014 1.92439 47.3734C1.03067 52.2535 1.92149 57.4336 6.58287 60.359C17.4388 67.1718 29.2229 56.1355 41.6476 53.3613C46.1506 52.3558 51.0933 52.5178 55.0605 50.4373C58.0397 48.8749 60.0037 46.2857 60.5612 43.3788C61.1118 40.507 60.309 37.6478 58.4628 35.3294C59.4177 34.2954 59.993 32.9643 59.993 31.511Z" fill="#99425B"/>
<path d="M58.9781 43.1298C58.4941 45.6535 56.7727 47.858 54.2551 49.1783C51.9084 50.409 49.0961 50.7764 46.1187 51.1651C44.5236 51.3733 42.8742 51.5888 41.2629 51.9486C37.0024 52.8998 32.8758 54.7559 28.8851 56.5507C20.8987 60.1426 14.0016 63.2442 7.49821 59.1631C2.73448 56.1736 2.95445 50.6424 3.50945 47.6114C4.02379 44.8032 5.41433 42.2171 6.75907 39.716C6.99142 39.2835 7.2191 38.8591 7.44069 38.4384C8.10719 38.6795 8.81612 38.844 9.55509 38.9188C8.18625 43.0093 10.3389 47.457 14.8573 49.5588L15.4756 49.8464L16.1305 49.6353C19.7025 48.4834 22.9939 46.6351 25.9133 44.1411C27.8003 42.529 29.4229 40.7456 30.7564 38.8399C31.1562 38.8945 31.5651 38.9232 31.9814 38.9232C36.1283 38.9232 39.5624 36.116 40.0938 32.4905C41.7912 32.4342 43.5942 32.4338 45.3015 32.4899C45.8325 36.1158 49.2668 38.9232 53.4138 38.9232C55.1477 38.9232 56.7561 38.4311 58.0811 37.5953C59.001 39.3003 59.3444 41.2187 58.9781 43.1298ZM10.4679 27.0516C13.2098 27.0516 15.4402 29.0713 15.4402 31.5539C15.4402 32.4456 15.1513 33.2771 14.6551 33.9773C13.8284 35.1445 12.4239 35.9445 10.8095 36.0443C10.6966 36.0513 10.5828 36.0561 10.4679 36.0561C9.85702 36.0561 9.27165 35.9551 8.73048 35.772C7.63575 35.401 6.72356 34.6898 6.14977 33.7816C5.73441 33.1241 5.49563 32.364 5.49563 31.5539C5.49563 29.0713 7.72622 27.0516 10.4679 27.0516ZM27.0091 31.5111C27.0091 29.2555 28.8506 27.3826 31.2434 27.0587C31.4843 27.026 31.7308 27.0088 31.9814 27.0088C33.5754 27.0088 34.9945 27.6926 35.9048 28.7521C36.131 29.0153 36.3272 29.3009 36.4852 29.6059C36.7852 30.1849 36.9537 30.8303 36.9537 31.5111C36.9537 31.871 36.9055 32.2209 36.817 32.5566C36.3324 34.3934 34.6026 35.7973 32.4831 35.9905C32.3182 36.0055 32.1508 36.0133 31.9814 36.0133C30.9887 36.0133 30.0639 35.7475 29.2866 35.2918C27.9176 34.4889 27.0091 33.0946 27.0091 31.5111ZM47.7617 26.1574C46.6965 27.0803 45.9044 28.2593 45.5099 29.5852C43.6686 29.5226 41.7162 29.5226 39.8855 29.5852C39.465 28.172 38.5928 26.9253 37.4197 25.9783L42.5647 16.5581L47.7617 26.1574ZM25.5987 2.90984H59.5171L51.506 24.3038C51.1588 24.3794 50.8201 24.4744 50.4913 24.5886L42.5774 9.97071L34.6412 24.5013C34.2981 24.3943 33.9446 24.3082 33.5828 24.2429L25.5987 2.90984ZM58.3861 31.5111C58.3861 31.9625 58.3116 32.3983 58.1745 32.8097C57.848 33.7886 57.1628 34.6274 56.258 35.2009C55.4514 35.7122 54.4709 36.0133 53.4138 36.0133C51.118 36.0133 49.1813 34.5967 48.612 32.6782C48.5014 32.3058 48.4415 31.9147 48.4415 31.5111C48.4415 30.8956 48.5789 30.3089 48.8268 29.7742C48.9546 29.4986 49.114 29.2382 49.297 28.9935C50.1918 27.7977 51.7019 27.0088 53.4138 27.0088C53.5708 27.0088 53.7257 27.0162 53.879 27.0292C56.4035 27.2422 58.3861 29.1705 58.3861 31.5111ZM61.5997 31.5111C61.5997 27.8924 58.7203 24.8732 54.9277 24.228L64 0H21.1165L30.2025 24.2774C26.5416 25.015 23.7955 27.9772 23.7955 31.5111C23.7955 34.1646 25.3443 36.4955 27.6654 37.8052C26.549 39.3113 25.2249 40.7286 23.7079 42.0246C21.3017 44.08 18.6212 45.6386 15.7314 46.6642C12.8206 45.0087 11.5901 41.8865 12.868 39.1666L12.9681 38.9534C13.0308 38.8203 13.0935 38.6869 13.156 38.5535C16.3531 37.5438 18.6539 34.7884 18.6539 31.5539C18.6539 27.4667 14.9816 24.1418 10.4679 24.1418C5.95422 24.1418 2.282 27.4667 2.282 31.5539C2.282 33.6168 3.21845 35.4849 4.72565 36.83C4.45249 37.3571 4.16487 37.8932 3.86969 38.4422C2.49169 41.005 0.929862 43.9098 0.339196 47.1353C-0.833941 53.5413 1.05841 58.6622 5.66756 61.5547C8.46455 63.3099 11.3048 64 14.1631 64C19.5453 64 24.9897 61.5517 30.3147 59.1567C34.1497 57.4321 38.1153 55.6485 42.0324 54.7738C43.4898 54.4483 44.9896 54.2525 46.5774 54.0452C49.726 53.6339 52.9819 53.2087 55.8658 51.6963C59.2088 49.943 61.4972 47.002 62.1443 43.6276C62.6998 40.7308 62.0313 37.8292 60.4009 35.3687C61.1609 34.2441 61.5997 32.9232 61.5997 31.5111Z" fill="white"/>
</svg>
