<svg width="64" height="64" viewBox="0 0 64 64" fill="none" xmlns="http://www.w3.org/2000/svg">
<path d="M53.9428 43.7C54.4931 43.3344 54.8333 42.6572 54.8353 41.9231L54.8673 30.0216C54.8693 29.2875 55.2095 28.6103 55.7598 28.2448L61.3368 24.5388C61.8869 24.1733 62.5637 24.1747 63.1127 24.5423C63.6618 24.9099 64 25.588 64 26.3218V47.9592C64 48.6955 63.6595 49.3755 63.1075 49.7422L42.0598 63.727C41.5128 64.0903 40.8403 64.091 40.2927 63.729L23.7749 52.8004C23.221 52.4344 22.8791 51.7531 22.8789 51.0152V40.1051C22.8789 40.0927 22.8913 40.0845 22.902 40.0907C22.9109 40.0968 22.9233 40.0907 22.9233 40.0763V40.0639C22.9233 40.0557 22.9269 40.0475 22.934 40.0434L36.5379 31.0026C36.5504 30.9944 36.545 30.9718 36.5308 30.9718C36.5229 30.9718 36.5166 30.9644 36.5166 30.9553L36.5432 20.259C36.5458 19.5228 36.2079 18.8412 35.6574 18.4718C35.1069 18.1025 34.4277 18.1017 33.8765 18.4698L23.766 25.2092C23.2168 25.575 22.5409 25.575 21.9917 25.2092L11.8492 18.4534C11.2993 18.087 10.6222 18.0876 10.0727 18.4548C9.52326 18.8221 9.18464 19.5003 9.18426 20.2344V39.5662C9.18469 40.2995 8.84756 40.9776 8.29942 41.346C7.75128 41.7143 7.07507 41.7171 6.52463 41.3534L0.89603 37.631C0.341038 37.2643 -0.00106665 36.5811 2.49865e-06 35.8418L0.0497842 2.05211C0.051163 1.31901 0.389785 0.642188 0.938594 0.275596C1.4874 -0.0909949 2.16341 -0.0919215 2.71297 0.273164L21.9935 13.0836C22.5418 13.4478 23.216 13.4478 23.7642 13.0836L43.0394 0.273164C43.5898 -0.0924681 44.2669 -0.0909513 44.8161 0.277144C45.3653 0.64524 45.7031 1.32408 45.7026 2.05828V35.8562C45.7029 36.5921 45.3632 37.272 44.8119 37.6392L34.7174 44.3643C34.1655 44.7323 33.826 45.4138 33.8275 46.1507C33.829 46.8876 34.1712 47.5673 34.7245 47.9324L40.2927 51.5993C40.8402 51.9599 41.5118 51.9583 42.0581 51.5952L53.9428 43.7ZM55.1109 13.3818C55.1114 14.1223 55.4559 14.8052 56.0129 15.1699C56.5699 15.5347 57.2535 15.5249 57.8025 15.1443L63.136 11.4425C63.6715 11.0712 63.9995 10.4022 64 9.67998V2.13643C63.9989 1.39637 63.6541 0.714091 63.0972 0.349856C62.5403 -0.0143802 61.8571 -0.00439831 61.3084 0.375993L55.9749 4.07784C55.4393 4.44908 55.1114 5.11809 55.1109 5.84034V13.3839V13.3818Z" fill="#007FFF"/>
</svg>
