<svg width="64" height="64" viewBox="0 0 64 64" fill="none" xmlns="http://www.w3.org/2000/svg">
<path d="M62.0488 49.2453L33.9513 63.5364C32.7415 64.1545 31.2585 64.1545 30.0488 63.5364L1.95125 49.2453C0.7415 48.6269 0 47.4933 0 46.291V17.709C0 16.4724 0.7415 15.3731 1.95125 14.7547L30.0488 0.463644C31.2585 -0.154548 32.7415 -0.154548 33.9513 0.463644L62.0488 14.7547C63.2585 15.3731 64 16.5067 64 17.709V46.291C63.961 47.4933 63.2195 48.6269 62.0488 49.2453Z" fill="#8D6748"/>
<path d="M31.9608 4.3457C31.3755 4.3457 30.79 4.48303 30.2828 4.7579L6.00954 17.0907C4.95579 17.6061 4.33154 18.6022 4.33154 19.6328V44.2984C4.33154 45.3633 4.95579 46.3253 6.00954 46.8407L30.2828 59.1735C30.79 59.4484 31.3755 59.5857 31.9608 59.5857C32.546 59.5857 33.1315 59.4484 33.6388 59.1735L57.912 46.8407C58.9658 46.3253 59.59 45.329 59.59 44.2986V19.6328C59.59 18.5679 58.9658 17.6061 57.912 17.0907L33.6388 4.7579C33.1315 4.48303 32.546 4.3457 31.9608 4.3457ZM31.9608 5.37632C32.351 5.37632 32.7023 5.47931 33.0535 5.65119L57.3265 17.984C57.99 18.3275 58.4193 18.9803 58.4193 19.6673V44.333C58.4193 45.02 57.99 45.6726 57.3265 46.0161L33.0535 58.3489C32.7023 58.5208 32.351 58.6238 31.9608 58.6238C31.5705 58.6238 31.1803 58.5208 30.868 58.3489L6.59504 46.0161C5.93154 45.6726 5.50229 45.02 5.50229 44.333V19.6673C5.50229 18.9803 5.93154 18.3275 6.59504 17.984L30.868 5.65119C31.2193 5.47931 31.6095 5.37632 31.9608 5.37632ZM29.7168 26.8815H32.9948C33.1121 26.8815 33.1901 26.847 33.2681 26.7783C35.2193 24.8546 35.4146 20.8352 35.4146 19.6329C35.4146 19.4612 35.2583 19.2893 35.0243 19.2893H31.3558H27.6876C27.4926 19.2893 27.2973 19.4267 27.2973 19.6329C27.2973 20.8008 27.4926 24.8203 29.4438 26.7783C29.5218 26.847 29.5998 26.8815 29.7168 26.8815ZM28.8193 20.3543H31.3948H33.9706C34.1656 20.3543 34.3608 20.4916 34.3608 20.6978C34.3608 21.6598 34.1656 24.3735 32.8388 25.782C32.7218 25.8509 32.6438 25.8852 32.5266 25.8852H30.2243C30.1071 25.8852 30.0291 25.8509 29.9511 25.782C28.6241 24.4081 28.4681 21.6598 28.4291 20.6978C28.4291 20.5262 28.5851 20.3543 28.8193 20.3543ZM32.0974 18.6023C32.0974 18.6023 33.5024 17.8809 32.6436 16.5754C32.1364 15.8883 31.9024 15.3045 32.0974 15.0639C31.5901 15.6137 30.7316 16.1975 31.6681 17.4344C31.9804 17.7436 32.1364 18.3961 32.0974 18.6023ZM30.5364 18.7053C30.5364 18.7053 31.4729 18.2245 30.8877 17.3312C30.5364 16.8846 30.3804 16.4724 30.5364 16.3349C30.1852 16.7128 29.6389 17.0906 30.2632 17.9496C30.4584 18.1213 30.5364 18.568 30.5364 18.7053ZM30.4193 25.4729H32.3706C32.4486 25.4729 32.5266 25.4386 32.6046 25.3699C33.2681 24.6829 33.5803 23.6179 33.7363 22.6903C33.7363 22.6903 33.6973 22.9995 32.7608 23.3087C31.4731 23.7209 29.2096 23.446 29.2096 23.446C29.4046 24.1674 29.7168 24.8545 30.1851 25.3699C30.2241 25.4386 30.3413 25.4729 30.4193 25.4729ZM15.7462 35.1262V28.2557H14.3022L11.9217 31.4848L9.54117 28.2557H8.09742V35.1605H9.46317V30.248L11.8827 33.4428H11.9217L14.3804 30.2137V35.1262H15.7462ZM24.4877 28.3931C23.9802 28.2212 23.434 28.1182 22.8487 28.1182C22.2632 28.1182 21.717 28.1869 21.2095 28.3931C20.7022 28.5647 20.273 28.8396 19.9217 29.1488C19.5315 29.4923 19.2585 29.8702 19.0632 30.2824C18.8682 30.729 18.751 31.1755 18.751 31.6566V31.6909C18.751 32.1718 18.8682 32.6528 19.0632 33.0651C19.2585 33.5116 19.5315 33.8895 19.8827 34.1987C20.234 34.5079 20.6632 34.7827 21.1705 34.9544C21.678 35.1263 22.2242 35.2293 22.8095 35.2293C23.395 35.2293 23.9412 35.1606 24.4487 34.9544C24.956 34.7827 25.3852 34.5079 25.7365 34.1987C26.1267 33.8551 26.3997 33.4773 26.595 33.0651C26.79 32.6185 26.9072 32.1718 26.9072 31.6909V31.6566C26.9072 31.1755 26.79 30.6946 26.595 30.2824C26.3997 29.8359 26.1267 29.458 25.7755 29.1488C25.4242 28.8396 24.995 28.5647 24.4877 28.3931ZM25.4242 31.7252C25.4242 32.0344 25.3462 32.3436 25.229 32.6528C25.073 32.9275 24.917 33.2024 24.6827 33.4086C24.4487 33.6146 24.1755 33.7865 23.8632 33.9238C23.551 34.0613 23.1997 34.13 22.8095 34.13C22.4585 34.13 22.0682 34.0613 21.756 33.9238C21.4437 33.7865 21.1705 33.6146 20.9365 33.4086C20.7022 33.168 20.5072 32.9275 20.39 32.6185C20.273 32.3093 20.195 32.0001 20.195 31.6566V31.6222C20.195 31.313 20.273 31.0038 20.39 30.6946C20.5462 30.4197 20.7022 30.1451 20.9365 29.9389C21.1705 29.7327 21.4437 29.561 21.756 29.4235C22.0682 29.2861 22.4192 29.2175 22.8095 29.2175C23.1997 29.2175 23.551 29.2861 23.8632 29.4235C24.1755 29.561 24.4487 29.7327 24.6827 29.9389C24.917 30.1794 25.112 30.4197 25.229 30.7289C25.3462 31.0382 25.4242 31.3474 25.4242 31.6909V31.7252ZM31.1998 30.6946C31.3558 30.4197 31.5121 30.1449 31.7461 29.9389C31.9803 29.7327 32.2536 29.561 32.5656 29.4235C32.8778 29.2861 33.1901 29.2175 33.5803 29.2175C34.0486 29.2175 34.4388 29.2861 34.7901 29.4578C35.1413 29.6297 35.4536 29.8359 35.7656 30.0762L36.6633 29.1831C36.4681 29.0113 36.2731 28.8739 36.0778 28.7364C35.8828 28.5991 35.6486 28.4961 35.4146 28.3929C35.1413 28.3242 34.9071 28.2555 34.5948 28.1869C34.2828 28.1525 33.9706 28.1182 33.6193 28.1182C32.9948 28.1182 32.4876 28.2212 31.9803 28.3929C31.4731 28.5647 31.0438 28.8396 30.6926 29.1488C30.3413 29.4923 30.0681 29.8702 29.8731 30.2824C29.6778 30.6946 29.5608 31.1755 29.5608 31.6566V31.6909C29.5608 32.1718 29.6778 32.6183 29.8731 33.0651C30.0681 33.5116 30.3413 33.8895 30.6926 34.1987C31.0438 34.5079 31.4731 34.7827 31.9413 34.9544C32.4096 35.1263 32.9168 35.2293 33.5023 35.2293C33.8536 35.2293 34.2046 35.2293 34.5558 35.1606C34.8291 35.1263 35.1413 35.0231 35.3753 34.9201C35.6096 34.8171 35.8438 34.7139 36.0778 34.5422C36.3121 34.3703 36.5071 34.233 36.7023 34.0268L35.8048 33.2367C35.4536 33.5116 35.1023 33.7178 34.7901 33.8895C34.4778 34.0613 34.0486 34.13 33.5803 34.13C33.2291 34.13 32.8778 34.0268 32.5656 33.9238C32.2536 33.8208 31.9803 33.6146 31.7461 33.4086C31.5121 33.168 31.3168 32.9275 31.1998 32.6183C31.0828 32.3093 31.0046 32.0001 31.0046 31.6566V31.6222C31.0046 31.313 31.0828 31.0038 31.1998 30.6946ZM39.434 28.2556V35.1261H40.7997V32.2405H44.5462V35.1261H45.912V28.2556H44.5462V31.1069H40.7997V28.2556H39.434ZM54.4194 33.4773L55.1999 35.1263H56.6437L53.2097 28.2212H51.9607L48.5267 35.1263H49.9314L50.7509 33.4773H54.4194ZM52.5852 29.664L53.9119 32.4123H51.2584L52.5852 29.664ZM7.12182 37.6683H56.8778V37.2904H7.12182V37.6683ZM35.7266 24.3736C35.7266 24.511 35.6876 24.6142 35.6876 24.7515H56.8779V24.3736H35.7266ZM27.0242 24.3736H7.12169V24.7515H27.0632C27.0632 24.6142 27.0242 24.511 27.0242 24.3736Z" fill="white"/>
</svg>
