<svg width="65" height="64" viewBox="0 0 65 64" fill="none" xmlns="http://www.w3.org/2000/svg">
<path d="M50.673 50.7413C52.9365 49.766 55.6353 49.411 59.1176 49.4995C59.0196 48.8357 57.7753 48.0474 56.8636 47.4698C56.5576 47.276 56.2891 47.1058 56.114 46.9722C54.7211 45.9523 53.241 44.8877 51.7612 43.9569C51.2845 43.6601 50.5981 43.4125 49.9376 43.1743C49.5127 43.021 49.0984 42.8715 48.7576 42.7153C48.4094 42.5708 47.9352 42.4262 47.4231 42.2701C46.2068 41.8994 44.7774 41.4637 44.3177 40.8087C43.1341 39.2411 42.3082 37.3456 41.4833 35.4527C41.3981 35.2572 41.3129 35.0617 41.2273 34.8666C40.7956 33.8611 40.3152 32.8359 39.8322 31.8048C39.2927 30.6533 38.7498 29.4945 38.2675 28.3481C38.0573 27.8811 37.8974 27.4396 37.7401 27.005C37.539 26.4493 37.3419 25.9049 37.0487 25.3328C33.8709 19.0805 29.1702 13.8478 23.4679 10.1674C21.5959 8.9701 19.5069 7.86124 17.1997 7.10764C16.4951 6.8924 15.7146 6.85776 14.9264 6.82277C14.2537 6.79291 13.5754 6.7628 12.934 6.61998H12.0197C11.4919 6.47062 11.0234 6.03949 10.5876 5.63844C10.3764 5.44415 10.1729 5.25691 9.97411 5.1122C8.62457 4.18111 7.2753 3.55991 5.66471 2.89505C5.09891 2.6291 3.48831 2.00819 2.92249 2.49613C2.57405 2.58487 2.4001 2.71784 2.31299 3.07253C1.96482 3.60471 2.26985 4.40282 2.48721 4.89048C2.91867 5.82817 3.46423 6.51418 4.02328 7.21714C4.31026 7.578 4.60079 7.94333 4.88127 8.34947C5.01524 8.54209 5.1549 8.73907 5.29691 8.93936C5.93938 9.84548 6.62986 10.8193 7.05768 11.7637C7.66139 13.0885 8.0917 14.4891 8.52044 15.8845C8.89536 17.1047 9.26908 18.3211 9.75648 19.4795C10.1481 20.4108 10.7576 21.4749 11.3234 22.3175C11.5008 22.5641 11.7322 22.7863 11.9664 23.0112C12.3639 23.393 12.7697 23.7827 12.934 24.313C13.3573 25.0316 12.5801 27.0896 12.1079 28.34C11.9974 28.6326 11.9036 28.8811 11.8458 29.0577C10.7139 32.6936 10.9315 37.7489 12.2374 40.8971C12.284 41.008 12.3304 41.1208 12.377 41.2343C12.8527 42.3915 13.3632 43.6336 14.6314 43.9569C14.6709 43.9167 14.6747 43.9038 14.6831 43.8977C14.6934 43.8902 14.7105 43.8925 14.8057 43.8681C14.8693 43.3584 14.9235 42.8526 14.977 42.3539C15.1792 40.4663 15.3705 38.6807 16.0244 37.1725C16.3359 36.3937 16.8499 35.765 17.3508 35.1522C17.62 34.8228 17.8855 34.4981 18.1137 34.1572C18.3899 34.326 18.4909 34.709 18.5945 35.1024C18.6542 35.3289 18.7148 35.5589 18.8103 35.7534C18.8514 35.8532 18.8927 35.9538 18.9343 36.0549C19.4651 37.3462 20.0362 38.7355 20.682 40.0102C22.1183 42.8483 23.7292 45.5973 25.5572 48.0807C26.1664 48.9676 27.0372 49.9432 27.8207 50.7413C27.9398 50.8475 28.0641 50.9382 28.1864 51.0274C28.4216 51.199 28.6499 51.3656 28.8218 51.6282H28.9089V51.7614C28.0825 51.4526 27.4479 50.7887 26.8285 50.1405C26.4691 49.7645 26.1148 49.3938 25.7311 49.1008C23.7724 47.593 21.422 45.3314 20.0725 43.1587C19.6474 42.2261 19.1979 41.3184 18.7421 40.3982C18.5912 40.0934 18.4396 39.7872 18.2879 39.4783C18.2879 39.4783 18.2881 39.4338 18.2879 39.3896C18.1216 39.6156 18.0966 39.8415 18.0665 40.1134C18.0494 40.2682 18.0306 40.438 17.9832 40.6311C17.8218 41.2634 17.7419 41.9208 17.6646 42.5562C17.4709 44.1492 17.2941 45.6035 15.8939 46.174C13.674 47.1054 12.0197 44.666 11.3234 43.5577C9.10356 39.8773 8.49406 33.6692 10.061 28.6585C10.1822 28.2729 10.2665 27.8604 10.3506 27.449C10.5083 26.678 10.6651 25.9111 11.0623 25.3328C10.975 24.7999 10.6744 24.5239 10.3806 24.2541C10.2344 24.1198 10.0898 23.9871 9.97413 23.825C9.36462 22.9827 8.84251 22.0071 8.36353 21.076C7.66756 19.6919 7.12319 18.1021 6.59562 16.5613C6.43015 16.0781 6.26633 15.5996 6.10001 15.1339C5.95143 14.7448 5.85465 14.3555 5.75915 13.9715C5.65878 13.5678 5.55984 13.1698 5.40367 12.7838C4.99219 11.8755 4.31082 10.9674 3.67824 10.1244C3.50772 9.8971 3.34075 9.67457 3.18356 9.45804C3.01399 9.21013 2.78947 8.9228 2.53919 8.60251C1.31187 7.03187 -0.534884 4.6685 0.441352 2.27442C2.26959 -2.29286 8.66857 1.16556 11.1492 2.76208C11.3972 2.92455 11.6597 3.16042 11.9308 3.40397C12.3257 3.75883 12.7387 4.12998 13.1516 4.31409C13.6959 4.33635 14.2401 4.3696 14.7844 4.40285C15.3284 4.43609 15.8724 4.46932 16.4163 4.49157C16.5945 4.53405 16.7717 4.57585 16.9478 4.6174C18.7935 5.05281 20.5175 5.45953 21.9878 6.30952C29.4747 10.7883 34.3499 15.3556 38.8333 22.8939C39.4419 23.9084 39.8572 24.9768 40.2802 26.0647C40.5227 26.6886 40.7677 27.3189 41.0531 27.9491C42.1413 30.521 43.3606 33.2255 44.6225 35.6647C44.7811 35.988 44.9295 36.3218 45.0782 36.6562C45.4598 37.5145 45.8433 38.3771 46.4073 39.0791C46.61 39.3743 47.0635 39.5318 47.4982 39.6827C47.7166 39.7585 47.9301 39.8327 48.1047 39.9218C48.6677 40.2172 49.2775 40.4854 49.8922 40.7557C50.8458 41.1751 51.8112 41.5997 52.6318 42.1389C55.1563 43.7352 57.5941 45.6416 59.8139 47.5931C60.2627 48.0021 60.6346 48.5024 61.006 49.002C61.3192 49.4233 61.632 49.8442 61.9903 50.2094V50.6083C61.294 50.8301 60.5974 51.0518 59.901 51.2293C59.1433 51.4277 58.4287 51.5054 57.7197 51.5826C57.0031 51.6606 56.2922 51.738 55.5482 51.9386C55.4544 51.966 55.3583 51.9942 55.2604 52.023C54.4036 52.2748 53.4041 52.5687 52.5447 52.6483C52.5881 52.6925 52.6318 52.7368 52.6318 52.7368C53.0513 53.9534 54.8353 54.9993 56.2973 55.8565C56.807 56.1553 57.2775 56.4312 57.6375 56.6834C59.3352 57.925 60.9021 59.4327 62.1646 61.1619C62.3816 61.383 62.5986 61.5931 62.8157 61.8031C63.034 62.0144 63.2523 62.2256 63.4704 62.448C63.6178 62.6627 63.7143 62.9085 63.8092 63.1504C63.9102 63.408 64.0095 63.6611 64.1667 63.867V64C63.7859 63.8615 63.5242 63.5843 63.2645 63.3094C63.1086 63.1444 62.9535 62.9802 62.7738 62.8472C62.3638 62.5624 61.9539 62.2532 61.544 61.944C60.9965 61.5309 60.4489 61.1178 59.901 60.763C59.0588 60.221 58.1488 59.7941 57.2342 59.3651C56.3528 58.9516 55.4672 58.5361 54.634 58.0137C53.6765 57.3928 52.7623 56.6834 51.8483 55.974C51.0212 55.3531 50.1075 54.1555 49.5848 53.2689C49.4531 53.0582 49.3702 52.8308 49.2903 52.6119C49.1855 52.3244 49.086 52.0514 48.8882 51.8499C48.9533 51.2199 49.5541 51.061 50.126 50.9096C50.3188 50.8586 50.5083 50.8084 50.673 50.7413Z" fill="#00546B"/>
<path d="M12.9338 11.1873C13.4562 11.0543 13.9783 10.9653 14.7183 10.9653C14.8563 11.1059 15.0284 11.2256 15.2023 11.3464C15.4672 11.5306 15.736 11.7175 15.8936 11.9854C15.9903 12.1233 16.0526 12.2612 16.1149 12.3992C16.1929 12.5717 16.2708 12.7442 16.416 12.9167C16.416 13.9808 16.1116 14.6902 15.5018 15.1339C15.5018 15.1339 15.4584 15.1781 15.4149 15.2226C15.241 14.8683 15.078 14.514 14.915 14.1597C14.7515 13.8044 14.5881 13.4492 14.4136 13.0939C14.2441 12.8523 14.0482 12.6307 13.8517 12.4084C13.5435 12.0597 13.2337 11.7091 13.0209 11.276H12.9338V11.1873Z" fill="#00546B"/>
</svg>
