<svg width="67" height="64" viewBox="0 0 67 64" fill="none" xmlns="http://www.w3.org/2000/svg">
<path fill-rule="evenodd" clip-rule="evenodd" d="M38.9003 1.06177C38.4485 1.06177 38.029 1.15886 37.6418 1.2883C38.4647 1.83845 38.9164 2.5666 39.1423 3.39183C39.1585 3.50509 39.1907 3.586 39.2069 3.69926C39.2231 3.79635 39.2391 3.89344 39.2391 3.99053C39.3037 5.41445 38.868 5.59244 38.5615 6.43385C38.0935 7.51798 38.2226 8.68301 38.7874 9.6215C38.8358 9.73477 38.9003 9.86421 38.981 9.97748C38.3678 5.8837 41.7723 5.26882 42.4016 3.99053C42.45 2.87404 41.5303 2.12971 40.8042 1.61192C40.1104 1.19122 39.4812 1.06177 38.9003 1.06177ZM44.0312 1.98408C43.9667 2.35624 44.0151 2.25916 43.999 2.45333C43.9828 2.58278 43.9828 2.74459 43.9668 2.87404C43.9345 3.00348 43.9022 3.13293 43.8538 3.26238C43.8216 3.39183 43.7731 3.52128 43.7247 3.65072C43.6602 3.78018 43.6118 3.89344 43.5472 4.02288C43.4988 4.08764 43.4666 4.15233 43.4182 4.21706C43.3859 4.2656 43.3536 4.31414 43.3214 4.36269C43.2407 4.47596 43.16 4.58922 43.0793 4.6863C42.9825 4.78339 42.9018 4.89666 42.7889 4.97757V4.99377C42.6921 5.07467 42.5953 5.17176 42.4823 5.25266C42.1435 5.51155 41.7563 5.70573 41.4013 5.94844C41.2883 6.02935 41.1754 6.09407 41.0786 6.19116C40.9656 6.27206 40.8688 6.35296 40.772 6.45005C40.6591 6.54714 40.5784 6.64423 40.4816 6.75749C40.4009 6.85458 40.3041 6.96784 40.2396 7.08111C40.1589 7.19438 40.0782 7.30765 40.0137 7.42091C39.9491 7.55035 39.9007 7.66363 39.8362 7.79307C39.7878 7.92252 39.7394 8.03579 39.7071 8.16523C39.6587 8.31086 39.6264 8.44031 39.5942 8.56976C39.578 8.63451 39.578 8.71539 39.5619 8.78011C39.5457 8.84486 39.5457 8.90956 39.5297 8.97429C39.5297 9.10373 39.5135 9.24936 39.5135 9.37881C39.5135 9.47589 39.5135 9.57298 39.5297 9.67007C39.5297 9.79951 39.5458 9.92896 39.5781 10.0746C39.5942 10.204 39.6265 10.3335 39.6588 10.4629C39.7072 10.5924 39.7394 10.7218 39.7878 10.8513C39.8201 10.9322 39.8685 11.0131 39.9008 11.0778L36.1897 9.6377C35.5604 9.45971 34.9473 9.29791 34.3181 9.15228C33.9792 9.07137 33.6404 8.99046 33.3015 8.90956C32.3334 8.71539 31.3492 8.56976 30.365 8.47268C30.3327 8.47268 30.3166 8.45647 30.2843 8.45647C29.3162 8.35939 28.3642 8.31085 27.3961 8.31085C26.6862 8.31085 25.9762 8.34318 25.2824 8.39175C24.2982 8.4565 23.314 8.58592 22.3297 8.74773C22.0877 8.78007 21.8457 8.82864 21.6036 8.87718C21.1035 8.97426 20.6194 9.08753 20.1515 9.2008C19.9095 9.26555 19.6674 9.33025 19.4254 9.39497C19.1834 9.49205 18.9575 9.60532 18.7316 9.70241C18.5541 9.78331 18.3766 9.86422 18.1992 9.94513C18.1669 9.96133 18.1346 9.96133 18.1185 9.97746C17.9571 10.0584 17.8119 10.1231 17.6667 10.204C17.6183 10.2202 17.586 10.2363 17.5538 10.2525C17.3763 10.3334 17.1988 10.4305 17.0536 10.5114C16.9406 10.56 16.8277 10.6247 16.7309 10.6732C16.6825 10.7056 16.6179 10.738 16.5856 10.7541C16.4404 10.8351 16.2952 10.916 16.1661 10.9969C16.0209 11.0778 15.8918 11.1587 15.7789 11.2396C15.666 11.3205 15.553 11.3852 15.4562 11.4661C15.44 11.4823 15.4239 11.4823 15.4078 11.4984C15.311 11.5632 15.198 11.6441 15.1012 11.725C15.1012 11.725 15.0851 11.7412 15.069 11.7573C14.9883 11.8221 14.9076 11.8868 14.827 11.9515C14.7947 11.9677 14.7624 12 14.7301 12.0162C14.6495 12.081 14.5688 12.1619 14.4881 12.2266C14.472 12.2589 14.4397 12.2751 14.4236 12.2913C14.3267 12.3884 14.2299 12.4693 14.1331 12.5664C14.117 12.5664 14.117 12.5826 14.1009 12.5988C14.0041 12.6797 13.9073 12.7767 13.8104 12.8738C13.7943 12.89 13.7943 12.9062 13.7782 12.9062C13.6975 12.9871 13.6169 13.068 13.5362 13.1651C13.5039 13.1974 13.4555 13.2298 13.4232 13.2621C13.3426 13.3592 13.2457 13.4563 13.1489 13.5534C13.1328 13.5857 13.1005 13.6019 13.0844 13.6343C12.9553 13.7638 12.8423 13.8932 12.7133 14.0227C12.6971 14.0389 12.681 14.055 12.6649 14.0712C12.4067 14.3463 12.1324 14.6213 11.842 14.8641C11.5515 15.123 11.245 15.3657 10.9384 15.576C10.6157 15.8026 10.3091 15.9967 9.97031 16.1909C9.64761 16.3689 9.30877 16.5307 8.9538 16.6763C8.61496 16.822 8.26 16.9514 7.90503 17.0647C7.22735 17.2103 6.53354 17.4854 5.93655 17.5339C5.80747 17.5339 5.66225 17.5663 5.53317 17.5825C5.38796 17.6148 5.25888 17.6472 5.1298 17.6796C5.00072 17.7281 4.87164 17.7766 4.74256 17.8252C4.61348 17.8737 4.4844 17.9384 4.35532 18.0032C4.24237 18.0841 4.11329 18.1488 4.00035 18.2297C3.8874 18.3106 3.77446 18.4077 3.67764 18.5048C3.5647 18.5857 3.45176 18.699 3.35494 18.796C3.25813 18.9093 3.16132 19.0064 3.08065 19.1197C2.99998 19.2491 2.90317 19.3624 2.83862 19.4918C2.75795 19.6051 2.67728 19.7345 2.61273 19.864C2.54817 20.0096 2.48365 20.1391 2.43525 20.2847C2.38684 20.4141 2.33844 20.5598 2.29003 20.7054C2.25779 20.8348 2.22547 20.9643 2.20936 21.0937C2.20936 21.11 2.1932 21.1261 2.1932 21.1423C2.16095 21.2879 2.16095 21.4821 2.14479 21.5792C2.12863 21.6924 2.11255 21.7895 2.11255 21.9028C2.11255 21.9675 2.11255 22.0484 2.12871 22.1131C2.14487 22.2264 2.16095 22.3235 2.19327 22.4206C2.22552 22.5177 2.25784 22.6147 2.30622 22.7118V22.728C2.35462 22.8251 2.41916 22.9222 2.4837 23.0193C2.54827 23.1164 2.61279 23.2135 2.69346 23.3106C2.77413 23.3915 2.87094 23.4885 2.96775 23.5695C3.06457 23.6665 3.16138 23.7474 3.27432 23.8283C3.66156 24.1681 3.75837 24.2814 4.25856 24.5403C4.33923 24.5889 4.41991 24.6212 4.51672 24.6698C4.53288 24.6698 4.54897 24.686 4.56513 24.686C4.56513 24.7183 4.56513 24.7345 4.58129 24.7669C4.59745 24.8963 4.62969 25.0258 4.66196 25.1552C4.69421 25.3008 4.74264 25.4303 4.79105 25.5436C4.83945 25.6406 4.87172 25.7377 4.92013 25.8348C4.93629 25.8672 4.95237 25.8996 4.96853 25.9157C5.0331 26.0452 5.09761 26.1584 5.16215 26.2717C5.24283 26.385 5.3235 26.4982 5.40417 26.6115C5.48485 26.7086 5.58166 26.8219 5.67847 26.9189C5.77528 27.016 5.87209 27.0969 5.98504 27.194C5.98504 27.194 6.0012 27.2102 6.01728 27.2102C6.1141 27.2911 6.21091 27.3721 6.30772 27.4368C6.42066 27.5177 6.53361 27.5824 6.66269 27.6471C6.77563 27.7119 6.90471 27.7766 7.03379 27.8251C7.1306 27.8737 7.24354 27.906 7.35649 27.9384C7.37265 27.9546 7.38874 27.9546 7.42106 27.9707C7.48562 27.987 7.56627 28.0031 7.63081 28.0193C7.5824 28.893 7.56624 29.7183 7.69538 30.0095C7.84058 30.3331 8.55053 29.3461 9.26047 28.2134C9.16366 29.3299 9.09912 30.6406 9.26047 31.0289C9.43796 31.4334 10.4061 30.1713 11.2451 28.7798C22.6848 26.1261 33.1242 34.0548 34.2214 45.252C34.0116 43.5044 31.8657 42.5336 30.8814 42.7763C30.3974 43.9737 29.5745 45.5109 28.2514 46.4656C28.3644 45.3976 28.316 44.2973 28.0901 43.2294C27.7351 44.718 27.0413 46.1096 26.0893 47.307C24.5565 47.4202 23.0237 46.6759 22.2169 45.5594C22.1523 45.5109 22.1362 45.4138 22.0878 45.3491C22.0394 45.2358 21.991 45.1226 21.9587 45.0093C21.9103 44.896 21.8781 44.7827 21.8619 44.6695C21.8458 44.5562 21.8458 44.4429 21.8458 44.3135C21.8458 44.2326 21.8458 44.1517 21.8458 44.0708C21.8619 43.9575 21.8942 43.8442 21.9264 43.731C21.9587 43.6177 21.991 43.5044 22.0394 43.3912C22.104 43.2779 22.1523 43.1646 22.233 43.0514C22.5073 42.2747 22.5073 41.6436 22.0071 41.2715C21.9103 41.2067 21.8135 41.1582 21.7006 41.1097C21.636 41.0935 21.5553 41.0611 21.4908 41.0449C21.4424 41.0287 21.4101 41.0126 21.3617 40.9964C21.2488 40.964 21.1358 40.9316 21.0229 40.9155C20.9099 40.8831 20.797 40.8669 20.684 40.8669C20.5711 40.8507 20.442 40.8346 20.3291 40.8346C20.2484 40.8346 20.1677 40.8508 20.087 40.8508C19.958 40.8508 19.845 40.867 19.7321 40.8993C19.6191 40.9156 19.5062 40.9317 19.3932 40.9641C19.2803 40.9964 19.1674 41.0288 19.0544 41.0774C18.9415 41.1259 18.8447 41.1744 18.7317 41.223C18.6349 41.2715 18.5381 41.3362 18.4251 41.3848C14.6657 43.8443 16.9084 49.6047 19.4739 51.2714C18.5058 51.4493 17.5216 51.6597 17.2473 51.8701C17.2311 51.8863 17.215 51.9024 17.215 51.9024C17.9088 52.3231 18.6349 52.6791 19.3933 52.9865C20.4259 53.3263 21.5231 53.6338 22.0071 53.7632V53.7794C23.3464 54.0545 24.7017 54.1516 26.0732 54.0707C33.221 53.5691 39.078 48.1161 40.1429 40.9317C40.1752 41.0773 40.2075 41.2068 40.2397 41.3524C40.2881 41.6437 40.3527 41.9511 40.3849 42.2586V42.2748C40.4172 42.4204 40.4334 42.566 40.4495 42.6955V42.7602C40.4657 42.9059 40.4818 43.0515 40.4818 43.1809C40.4979 43.3589 40.514 43.5369 40.514 43.7149V43.9738C40.514 44.0547 40.5302 44.1518 40.5302 44.2327C40.5302 44.3298 40.514 44.4269 40.514 44.524V44.7505C40.514 44.8638 40.4978 44.9608 40.4978 45.0741C40.4978 45.1389 40.4978 45.2036 40.4817 45.2845C40.4817 45.3977 40.4655 45.511 40.4655 45.6404C40.4493 45.689 40.4493 45.7375 40.4493 45.7861C40.4332 45.9155 40.4171 46.0288 40.4009 46.1582C40.4009 46.2068 40.4009 46.2553 40.3848 46.3039C40.3686 46.4657 40.3364 46.6113 40.3202 46.7731V46.7893V46.8055C40.288 46.9512 40.2556 47.113 40.2234 47.2586V47.3072C40.1912 47.4528 40.1588 47.5984 40.1266 47.744C40.1266 47.7603 40.1104 47.7926 40.1104 47.8088C40.0782 47.9544 40.0459 48.1 39.9975 48.2457V48.2942C39.9491 48.456 39.9007 48.6016 39.8684 48.7473C39.8523 48.7635 39.8523 48.7796 39.8523 48.7796C39.8038 48.9414 39.7554 49.1032 39.707 49.265C39.6425 49.4269 39.5941 49.5725 39.5296 49.7343C39.465 49.8961 39.4166 50.0579 39.3521 50.2035C39.2875 50.3654 39.223 50.511 39.1585 50.6728H39.1423C39.0777 50.8184 39.0132 50.9802 38.9325 51.1259C38.9163 51.1744 38.9003 51.2068 38.8841 51.2391C38.868 51.2553 38.868 51.2715 38.8519 51.2877C37.8031 53.4074 36.2541 55.2682 34.3179 56.7245C34.1888 56.8054 34.0598 56.9025 33.9307 56.9995C33.8984 57.0319 33.85 57.0481 33.8177 57.0804C33.7048 57.1614 33.5918 57.2423 33.4628 57.3232L33.5112 57.4203H33.5273C33.7532 57.3879 33.9791 57.3555 34.205 57.3232H34.2212C34.6407 57.2584 35.0602 57.1775 35.4797 57.0966C35.5926 57.0804 35.7217 57.0481 35.8347 57.0157C35.9153 56.9995 35.9799 56.9834 36.0605 56.9672C36.1735 56.951 36.2864 56.9186 36.3994 56.9024C36.4962 56.8701 36.593 56.8539 36.6898 56.8215C38.3033 56.4332 39.8684 55.8992 41.369 55.2682C38.8035 58.7794 35.3667 61.6111 31.3491 63.4719C33.2046 63.3425 35.0602 63.035 36.8512 62.5172C43.3536 60.5917 48.8234 56.2066 52.0988 50.3006C51.4372 54.0384 49.9528 57.5982 47.7584 60.705C49.3235 59.6694 50.7596 58.472 52.0665 57.1128C55.6807 53.3264 58.0526 48.5207 58.8593 43.359C59.4079 45.9156 59.5693 48.5531 59.3273 51.1582C70.9768 34.8639 60.2954 17.971 55.826 13.5213C55.8098 13.4889 55.7937 13.4727 55.7937 13.4404C55.7775 13.4566 55.7775 13.4566 55.7775 13.4727C55.7775 13.4565 55.7775 13.4565 55.7614 13.4404C55.7614 13.6345 55.7452 13.8287 55.7291 14.0229C55.6807 14.395 55.6323 14.751 55.5678 15.107C55.4871 15.463 55.3903 15.8189 55.2935 16.1749C55.1805 16.5147 55.0515 16.8707 54.9062 17.2105C54.761 17.5341 54.5997 17.8739 54.4222 18.1976C54.2447 18.505 54.0511 18.8286 53.8413 19.1199C53.6316 19.4273 53.4057 19.7186 53.1798 19.9936C52.9378 20.2849 52.6796 20.5438 52.4215 20.8027C52.2601 20.9483 52.1149 21.0778 51.9535 21.2072C51.8245 21.3205 51.7115 21.4176 51.5824 21.5308C51.292 21.7574 51.0016 21.9677 50.6789 22.1619C50.3723 22.3561 50.0496 22.5502 49.7269 22.712C49.3881 22.8739 49.0492 23.0195 48.7104 23.1651C48.3716 23.2946 48.0166 23.4078 47.6616 23.5049C47.3066 23.602 46.9355 23.6829 46.5806 23.7476C46.2095 23.8124 45.8384 23.8447 45.4834 23.8771C45.2252 23.8933 44.9671 23.9094 44.7089 23.9094C44.3378 23.9094 43.9667 23.8771 43.6117 23.8447C43.2406 23.8123 42.8695 23.7638 42.5145 23.6828C42.1434 23.6181 41.7885 23.521 41.4335 23.4078H41.4173C41.7723 23.3754 42.1273 23.343 42.4823 23.2783C42.8534 23.2136 43.2083 23.1327 43.5633 23.0356C43.9183 22.9385 44.2732 22.8253 44.6121 22.6958C44.967 22.5664 45.3059 22.4046 45.6286 22.2427C45.9674 22.0809 46.274 21.9029 46.5967 21.7088C46.9033 21.4984 47.2098 21.2881 47.5002 21.0615C47.7907 20.835 48.065 20.5923 48.3231 20.3334C48.5974 20.0907 48.8395 19.8156 49.0815 19.5405C49.3235 19.2493 49.5494 18.958 49.7592 18.6667C49.7914 18.6182 49.8237 18.5535 49.856 18.5049C50.0173 18.246 50.1787 17.9871 50.3239 17.7282C50.5014 17.4046 50.6627 17.081 50.8079 16.7412C50.9531 16.4014 51.0822 16.0616 51.1952 15.7056C51.3081 15.3658 51.3888 15.0098 51.4695 14.6539C51.534 14.2817 51.5985 13.9257 51.6308 13.5697C51.6631 13.1976 51.6954 12.8254 51.6954 12.4694C51.6954 12.2105 51.6792 11.9516 51.6631 11.6928C51.6309 11.3206 51.5825 10.9646 51.5341 10.6086C51.4695 10.2365 51.3888 9.88049 51.292 9.5245C51.1791 9.18471 51.0661 8.82872 50.9371 8.48893C50.808 8.14912 50.6466 7.80932 50.4853 7.4857C50.3078 7.16208 50.1303 6.83846 49.9367 6.53103C49.7269 6.22359 49.5172 5.93233 49.2913 5.64107C49.0493 5.36599 48.8072 5.09092 48.5491 4.81584C48.42 4.6864 48.2748 4.54077 48.1296 4.41132C47.4035 3.84498 46.6451 3.31101 45.8868 2.82558C45.7739 2.76084 45.677 2.71232 45.5641 2.66377C45.0316 2.32397 44.5314 2.14589 44.0312 1.98408Z" fill="#E0234E"/>
</svg>
