<svg width="65" height="64" viewBox="0 0 65 64" fill="none" xmlns="http://www.w3.org/2000/svg">
<path d="M64.5718 36.0633C66.8114 18.5304 54.4296 2.50132 36.9288 0.26172C19.4279 -1.97788 3.33481 10.4039 1.09522 27.9047C-1.14438 45.4056 11.2374 61.4667 28.7382 63.7383C46.2711 65.9779 62.3002 53.5961 64.5718 36.0633Z" fill="#FF6C37"/>
<path d="M44.3836 20.5451L30.882 34.0467L27.0747 30.2394C40.3523 16.9618 41.6641 18.1136 44.3836 20.5451Z" fill="white"/>
<path d="M30.8819 34.3667C30.7859 34.3667 30.7219 34.3347 30.6579 34.2707L26.8186 30.4634C26.6907 30.3354 26.6907 30.1434 26.8186 30.0154C40.3202 16.5139 41.728 17.7936 44.5754 20.3532C44.6394 20.4172 44.6714 20.4812 44.6714 20.5771C44.6714 20.6731 44.6394 20.7371 44.5754 20.8011L31.0739 34.2707C31.0419 34.3347 30.9459 34.3667 30.8819 34.3667ZM27.5225 30.2394L30.8819 33.5988L43.9036 20.5771C41.536 18.4655 39.9363 17.8256 27.5225 30.2394Z" fill="#FF6C37"/>
<path d="M34.7533 37.918L31.074 34.2386L44.5755 20.7371C48.1909 24.3844 42.7839 30.3033 34.7533 37.918Z" fill="white"/>
<path d="M34.7532 38.238C34.6572 38.238 34.5932 38.206 34.5292 38.142L30.8499 34.4627C30.7859 34.3987 30.7859 34.3347 30.7859 34.2387C30.7859 34.1428 30.8179 34.0788 30.8819 34.0148L44.3834 20.5132C44.5114 20.3852 44.7034 20.3852 44.8314 20.5132C45.6632 21.2811 46.1111 22.3689 46.0791 23.4887C46.0151 27.04 41.9839 31.5512 35.0091 38.142C34.9131 38.206 34.8172 38.238 34.7532 38.238ZM31.5218 34.2387C33.5694 36.3184 34.4332 37.1502 34.7532 37.4702C40.1282 32.3511 45.3433 27.104 45.3753 23.4887C45.4073 22.6568 45.0873 21.825 44.5434 21.1851L31.5218 34.2387Z" fill="#FF6C37"/>
<path d="M27.1386 30.3354L29.8581 33.0549C29.9221 33.1189 29.9221 33.1829 29.8581 33.2469C29.8261 33.2789 29.8261 33.2789 29.7941 33.2789L24.1631 34.4947C23.8751 34.5267 23.6192 34.3347 23.5552 34.0467C23.5232 33.8868 23.5872 33.7268 23.6832 33.6308L26.9466 30.3674C27.0106 30.3034 27.1066 30.2714 27.1386 30.3354Z" fill="white"/>
<path d="M24.0672 34.8146C23.5873 34.8146 23.2354 34.4307 23.2354 33.9508C23.2354 33.7268 23.3313 33.5028 23.4913 33.3429L26.7547 30.0795C26.9467 29.9195 27.2026 29.9195 27.3946 30.0795L30.1141 32.799C30.3061 32.9589 30.3061 33.2469 30.1141 33.4388C30.0501 33.5028 29.9861 33.5348 29.8902 33.5668L24.2592 34.7826C24.1952 34.7826 24.1312 34.8146 24.0672 34.8146ZM27.0427 30.6873L23.9072 33.8228C23.8432 33.8868 23.8112 33.9827 23.8752 34.0787C23.9072 34.1747 24.0032 34.2067 24.0992 34.1747L29.3782 33.0229L27.0427 30.6873Z" fill="#FF6C37"/>
<path d="M51.5182 13.0584C49.4705 11.0748 46.1751 11.1388 44.1915 13.2184C42.2078 15.298 42.2718 18.5614 44.3515 20.5451C46.0471 22.1768 48.6067 22.4647 50.6223 21.2489L46.975 17.6016L51.5182 13.0584Z" fill="white"/>
<path d="M47.9349 22.3048C44.8954 22.3048 42.4319 19.8413 42.4319 16.8018C42.4319 13.7624 44.8954 11.2988 47.9349 11.2988C49.3426 11.2988 50.7184 11.8427 51.7422 12.8346C51.8062 12.8985 51.8382 12.9625 51.8382 13.0585C51.8382 13.1545 51.8062 13.2185 51.7422 13.2825L47.423 17.6017L50.8144 20.9931C50.9424 21.1211 50.9424 21.313 50.8144 21.441C50.7824 21.473 50.7824 21.473 50.7504 21.505C49.9185 22.0169 48.9267 22.3048 47.9349 22.3048ZM47.9349 11.9707C45.2474 11.9707 43.0718 14.1463 43.1038 16.8338C43.1038 19.5213 45.2794 21.697 47.9669 21.665C48.7028 21.665 49.4386 21.505 50.1105 21.1531L46.7511 17.8257C46.6871 17.7617 46.6551 17.6977 46.6551 17.6017C46.6551 17.5057 46.6871 17.4417 46.7511 17.3777L51.0383 13.0905C50.1745 12.3546 49.0867 11.9707 47.9349 11.9707Z" fill="#FF6C37"/>
<path d="M51.6143 13.1546L51.5503 13.0906L46.9751 17.6018L50.5904 21.2171C50.9424 20.9932 51.2943 20.7372 51.5823 20.4493C53.6299 18.4336 53.6299 15.1702 51.6143 13.1546Z" fill="white"/>
<path d="M50.6223 21.5689C50.5263 21.5689 50.4623 21.5369 50.3984 21.473L46.751 17.8256C46.687 17.7616 46.655 17.6976 46.655 17.6016C46.655 17.5057 46.687 17.4417 46.751 17.3777L51.2942 12.8345C51.4222 12.7065 51.6141 12.7065 51.7421 12.8345L51.8381 12.8985C53.9817 15.0421 53.9817 18.4975 51.8701 20.6731C51.5501 20.993 51.1982 21.281 50.8143 21.5049C50.7183 21.5369 50.6543 21.5689 50.6223 21.5689ZM47.4229 17.6016L50.6543 20.8331C50.9103 20.6731 51.1662 20.4491 51.3582 20.2572C53.1819 18.4335 53.2778 15.458 51.5182 13.5384L47.4229 17.6016Z" fill="#FF6C37"/>
<path d="M44.9274 21.1211C44.1595 20.3532 42.9117 20.3532 42.1439 21.1211L30.082 33.1829L32.0977 35.1985L44.8634 24.0005C45.6952 23.2967 45.7592 22.0489 45.0553 21.217C44.9913 21.1851 44.9593 21.1531 44.9274 21.1211Z" fill="white"/>
<path d="M32.0658 35.5186C31.9698 35.5186 31.9058 35.4866 31.8418 35.4226L29.8262 33.407C29.6982 33.279 29.6982 33.087 29.8262 32.959L41.888 20.8972C42.7839 20.0014 44.2236 20.0014 45.1195 20.8972C46.0153 21.7931 46.0153 23.2328 45.1195 24.1286C45.0875 24.1606 45.0555 24.1926 45.0235 24.2246L32.2578 35.4226C32.2258 35.4866 32.1618 35.5186 32.0658 35.5186ZM30.5301 33.183L32.0978 34.7507L44.6395 23.7447C45.3434 23.1688 45.4074 22.113 44.8315 21.4091C44.2556 20.7053 43.1998 20.6413 42.4959 21.2172C42.4639 21.2492 42.4319 21.2812 42.3679 21.3131L30.5301 33.183Z" fill="#FF6C37"/>
<path d="M20.8358 46.9084C20.7078 46.9724 20.6438 47.1004 20.6758 47.2283L21.2197 49.5319C21.3477 49.8519 21.1557 50.2358 20.8038 50.3318C20.5479 50.4278 20.2599 50.3318 20.0999 50.1398L16.5806 46.6524L28.0665 35.1665L32.0338 35.2305L34.7213 37.918C34.0814 38.4619 30.2101 42.2052 20.8358 46.9084Z" fill="white"/>
<path d="M20.5799 50.6518C20.324 50.6518 20.068 50.5559 19.9081 50.3639L16.4207 46.8765C16.3567 46.8125 16.3247 46.7485 16.3247 46.6526C16.3247 46.5566 16.3567 46.4926 16.4207 46.4286L27.9066 34.9427C27.9706 34.8787 28.0666 34.8467 28.1306 34.8467L32.0979 34.9107C32.1938 34.9107 32.2578 34.9427 32.3218 35.0067L35.0093 37.6942C35.0733 37.7582 35.1053 37.8541 35.1053 37.9501C35.1053 38.0461 35.0733 38.1101 34.9773 38.1741L34.7534 38.366C31.362 41.3415 26.7548 44.317 21.0279 47.1645L21.5718 49.4361C21.6677 49.852 21.4758 50.2999 21.0918 50.5239C20.8999 50.6198 20.7399 50.6518 20.5799 50.6518ZM17.0606 46.6526L20.356 49.916C20.452 50.0759 20.6439 50.1399 20.8039 50.0439C20.9639 49.948 21.0279 49.756 20.9319 49.596L20.388 47.2924C20.324 47.0045 20.452 46.7485 20.7079 46.6206C26.3709 43.7731 30.9461 40.8296 34.3055 37.9181L31.9379 35.5506L28.2586 35.4866L17.0606 46.6526Z" fill="#FF6C37"/>
<path d="M13.8609 49.4039L16.6124 46.6523L20.7077 50.7476L14.1809 50.2997C13.8929 50.2677 13.701 50.0117 13.733 49.7238C13.733 49.5958 13.765 49.4678 13.8609 49.4039Z" fill="white"/>
<path d="M20.7078 51.0357L14.149 50.5878C13.6691 50.5558 13.3491 50.1398 13.3811 49.6599C13.4131 49.468 13.4771 49.276 13.6371 49.148L16.3886 46.3965C16.5165 46.2685 16.7085 46.2685 16.8365 46.3965L20.9317 50.4918C21.0277 50.5878 21.0597 50.7157 20.9957 50.8437C20.9317 50.9717 20.8358 51.0357 20.7078 51.0357ZM16.6125 47.1004L14.085 49.6279C13.989 49.6919 13.989 49.8519 14.085 49.9159C14.117 49.9479 14.149 49.9799 14.213 49.9799L19.8759 50.3638L16.6125 47.1004Z" fill="#FF6C37"/>
<path d="M26.9467 36.6383C26.7547 36.6383 26.6267 36.4784 26.6267 36.3184C26.6267 36.2224 26.6587 36.1584 26.7227 36.0944L29.8261 32.991C29.9541 32.863 30.1461 32.863 30.2741 32.991L32.2897 35.0066C32.3857 35.1026 32.4177 35.1986 32.3857 35.3266C32.3537 35.4226 32.2577 35.5185 32.1297 35.5505L27.0106 36.6383C26.9786 36.6383 26.9467 36.6383 26.9467 36.6383ZM30.0501 33.6629L27.9385 35.7745L31.3939 35.0386L30.0501 33.6629Z" fill="#FF6C37"/>
<path d="M32.0338 35.2305L28.5144 35.9983C28.2585 36.0623 28.0025 35.9023 27.9385 35.6464C27.9065 35.4864 27.9385 35.3265 28.0665 35.1985L30.0182 33.2468L32.0338 35.2305Z" fill="white"/>
<path d="M28.4502 36.3184C28.0023 36.3184 27.6504 35.9665 27.6504 35.5185C27.6504 35.2946 27.7464 35.1026 27.8743 34.9426L29.826 32.991C29.954 32.863 30.1459 32.863 30.2739 32.991L32.2896 35.0066C32.3855 35.1026 32.4175 35.1986 32.3855 35.3266C32.3535 35.4226 32.2576 35.5185 32.1296 35.5505L28.6102 36.3184C28.5462 36.3184 28.4822 36.3184 28.4502 36.3184ZM30.05 33.6629L28.3223 35.3906C28.2583 35.4546 28.2583 35.5185 28.2903 35.5825C28.3223 35.6465 28.3863 35.6785 28.4822 35.6785L31.4257 35.0386L30.05 33.6629Z" fill="#FF6C37"/>
<path d="M51.6462 16.2259C51.5822 16.0339 51.3583 15.9379 51.1663 16.0019C50.9743 16.0659 50.8784 16.2899 50.9423 16.4818C50.9423 16.5138 50.9743 16.5458 50.9743 16.5778C51.1663 16.9617 51.1023 17.4417 50.8464 17.7936C50.7184 17.9536 50.7504 18.1775 50.8784 18.3055C51.0383 18.4335 51.2623 18.4015 51.3903 18.2415C51.8702 17.6336 51.9662 16.8658 51.6462 16.2259Z" fill="#FF6C37"/>
</svg>
