<svg width="65" height="64" viewBox="0 0 65 64" fill="none" xmlns="http://www.w3.org/2000/svg">
<path fill-rule="evenodd" clip-rule="evenodd" d="M1.27411 43.9292C0.475335 42.9022 0.463267 41.5941 1.243 40.5572L30.6015 1.52142C32.2344 -0.649731 36.1774 -0.45989 37.4854 1.85284L64.3058 49.2763C65.3008 51.0359 64.1553 53.1062 61.8784 53.663L20.1573 63.8654C18.4787 64.2757 16.67 63.7257 15.7317 62.5192L1.27411 43.9292ZM33.9888 12.9352C34.2717 11.7868 36.202 11.6212 36.7721 12.6964L55.2724 47.5907C55.6205 48.2477 55.1872 49.0053 54.3458 49.2099L25.5198 56.224C24.4602 56.4818 23.4453 55.7272 23.663 54.8434L33.9888 12.9352Z" fill="#2D3748"/>
</svg>
