<svg width="71" height="64" viewBox="0 0 71 64" fill="none" xmlns="http://www.w3.org/2000/svg">
<g clip-path="url(#clip0_2429_2148)">
<path d="M35.3637 38.7725C39.036 38.7725 42.0131 35.7404 42.0131 32C42.0131 28.2597 39.036 25.2275 35.3637 25.2275C31.6914 25.2275 28.7144 28.2597 28.7144 32C28.7144 35.7404 31.6914 38.7725 35.3637 38.7725Z" fill="#087EA4"/>
<path d="M35.3637 47.238C53.7254 47.238 68.6105 40.4157 68.6105 31.9999C68.6105 23.5842 53.7254 16.7618 35.3637 16.7618C17.002 16.7618 2.11694 23.5842 2.11694 31.9999C2.11694 40.4157 17.002 47.238 35.3637 47.238Z" stroke="#087EA4" stroke-width="3"/>
<path d="M22.4071 39.619C31.588 55.8152 44.8314 65.5336 51.9871 61.3257C59.1429 57.1178 57.5012 40.5771 48.3204 24.3809C39.1396 8.18475 25.8961 -1.53366 18.7404 2.67422C11.5846 6.88211 13.2263 23.4228 22.4071 39.619Z" stroke="#087EA4" stroke-width="3"/>
<path d="M22.4069 24.3808C13.2261 40.577 11.5845 57.1177 18.7402 61.3256C25.896 65.5335 39.1394 55.8151 48.3202 39.6189C57.5011 23.4228 59.1427 6.88205 51.987 2.67416C44.8312 -1.53372 31.5878 8.18469 22.4069 24.3808Z" stroke="#087EA4" stroke-width="3"/>
</g>
<defs>
<clipPath id="clip0_2429_2148">
<rect width="69.8182" height="64" fill="white" transform="translate(0.45459)"/>
</clipPath>
</defs>
</svg>
