<svg width="65" height="64" viewBox="0 0 65 64" fill="none" xmlns="http://www.w3.org/2000/svg">
<path fill-rule="evenodd" clip-rule="evenodd" d="M53.9142 30.5858C54.6953 31.3668 54.6953 32.6332 53.9142 33.4142L33.9142 53.4142C33.1332 54.1953 31.8668 54.1953 31.0858 53.4142C30.3047 52.6332 30.3047 51.3668 31.0858 50.5858L51.0858 30.5858C51.8668 29.8047 53.1332 29.8047 53.9142 30.5858Z" fill="#09090B"/>
<path fill-rule="evenodd" clip-rule="evenodd" d="M49.9142 8.58579C50.6953 9.36683 50.6953 10.6332 49.9142 11.4142L11.9142 49.4142C11.1332 50.1953 9.86683 50.1953 9.08579 49.4142C8.30474 48.6332 8.30474 47.3668 9.08579 46.5858L47.0858 8.58579C47.8668 7.80474 49.1332 7.80474 49.9142 8.58579Z" fill="#09090B"/>
</svg>
