<svg width="64" height="64" viewBox="0 0 64 64" fill="none" xmlns="http://www.w3.org/2000/svg">
<path d="M9.73582 8.9866C22.3806 -3.28617 42.599 -2.95625 54.8486 9.77839C56.2316 7.93088 57.4171 5.88542 58.2732 3.77397C62.2906 16.0467 64.7273 26.34 63.8053 34.3239C63.3443 41.0542 60.71 47.5205 56.3633 52.6671C45.0358 66.1276 24.8832 67.8431 11.4481 56.4941L11.1911 56.265L11.1774 56.256C11.1354 56.2266 11.0939 56.196 11.053 56.1642C10.9304 56.0686 10.819 55.9646 10.7189 55.8535L10.6829 55.8124L10.2627 55.4384C9.8529 55.0865 9.44312 54.7346 9.07959 54.3363L8.94553 54.1847C-3.30408 41.516 -2.90893 21.2594 9.73582 8.9866ZM14.4776 51.9413C13.2922 51.0175 11.5798 51.1495 10.6578 52.3372C9.8471 53.3815 9.85109 54.834 10.6698 55.7974L10.6829 55.8124L11.1911 56.265L11.241 56.299C12.3921 57.0574 13.9409 56.9007 14.8244 55.8288L14.8728 55.7683C15.7948 54.5806 15.5972 52.865 14.4776 51.9413ZM57.9439 7.07311C54.651 14.0013 46.4846 19.2799 39.4378 20.9295C32.7861 22.513 26.9906 21.1934 20.8658 23.5688C6.90393 28.9134 7.16736 45.541 14.8069 49.302L15.2679 49.5659C15.2679 49.5659 20.7861 48.4666 26.2431 47.015L26.7105 46.8897C28.8901 46.3012 31.0343 45.6597 32.7861 45.0131C41.8746 41.648 51.885 33.3342 55.1779 23.7007C53.4656 33.7301 44.8382 43.4295 36.2108 47.8504C31.6007 50.2257 28.0444 50.7536 20.4707 53.3929C19.5487 53.7228 18.8242 54.0527 18.8242 54.0527C18.9167 54.04 19.0091 54.0275 19.1013 54.0154L19.2853 53.9915L19.4684 53.9684C21.141 53.7607 22.644 53.6568 22.644 53.6568C33.3789 53.129 50.2385 56.692 58.0757 46.2008C66.1103 35.5116 61.632 18.2242 57.9439 7.07311Z" fill="#6DB33F"/>
<path d="M14.4776 51.9413C15.5972 52.8651 15.7947 54.5806 14.8727 55.7683C13.9507 56.956 12.2384 57.0879 11.053 56.1642C9.86751 55.2404 9.7358 53.5249 10.6578 52.3372C11.5798 51.1495 13.2921 51.0175 14.4776 51.9413ZM57.9439 7.07312C61.632 18.2242 66.1103 35.5116 58.0756 46.2008C50.2385 56.6921 33.3788 53.129 22.644 53.6569C22.644 53.6569 21.141 53.7607 19.4684 53.9684L19.2853 53.9915C19.1323 54.011 18.9782 54.0315 18.8242 54.0527C18.8242 54.0527 19.5487 53.7228 20.4707 53.3929C28.0443 50.7536 31.6007 50.2258 36.2107 47.8504C44.8382 43.4295 53.4656 33.7301 55.1779 23.7007C51.885 33.3342 41.8745 41.648 32.7861 45.0131C26.5296 47.3225 15.2679 49.5659 15.2679 49.5659L14.8069 49.302C7.16733 45.541 6.9039 28.9134 20.8658 23.5688C26.9906 21.1934 32.7861 22.5131 39.4378 20.9295C46.4846 19.2799 54.651 14.0013 57.9439 7.07312Z" fill="white"/>
</svg>
