<svg width="64" height="64" viewBox="0 0 64 64" fill="none" xmlns="http://www.w3.org/2000/svg">
<path d="M4.54859 31.999C4.54859 42.8653 10.8631 52.255 20.0196 56.7054L6.92521 20.827C5.35549 24.3422 4.54562 28.1492 4.54859 31.999ZM50.5306 30.6137C50.5306 27.221 49.312 24.8715 48.2668 23.0428C46.8753 20.7816 45.5716 18.8666 45.5716 16.6054C45.5716 14.0819 47.4849 11.7329 50.1806 11.7329C50.3023 11.7329 50.4178 11.7481 50.5369 11.7549C45.6525 7.28046 39.1458 4.54858 31.9993 4.54858C22.4092 4.54858 13.972 9.46909 9.06364 16.9219C9.70767 16.9413 10.3151 16.9543 10.8302 16.9543C13.7014 16.9543 18.146 16.6059 18.146 16.6059C19.6257 16.5187 19.8002 18.6922 18.3225 18.8672C18.3225 18.8672 16.8349 19.0421 15.1802 19.1288L25.1766 48.8634L31.1844 30.8461L26.9071 19.1283C25.4289 19.0416 24.0285 18.8666 24.0285 18.8666C22.5492 18.7799 22.7226 16.5182 24.2019 16.6054C24.2019 16.6054 28.7352 16.9538 31.4325 16.9538C34.3033 16.9538 38.7483 16.6054 38.7483 16.6054C40.2292 16.5182 40.4031 18.6916 38.9244 18.8666C38.9244 18.8666 37.4342 19.0416 35.7825 19.1283L45.7027 48.6378L48.4402 39.4878C49.6275 35.6909 50.5306 32.9637 50.5306 30.6137Z" fill="#00749A"/>
<path d="M32.4808 34.4002L24.2446 58.333C26.7626 59.0751 29.3741 59.4519 31.9992 59.4519C35.1959 59.4519 38.2615 58.8987 41.115 57.8958C41.0384 57.776 40.973 57.6494 40.9196 57.5176L32.4808 34.4002ZM56.0861 18.8285C56.2041 19.7029 56.271 20.6421 56.271 21.6513C56.271 24.4369 55.7508 27.5684 54.1838 31.4839L45.7987 55.7276C53.9597 50.9685 59.4489 42.1267 59.4489 31.9989C59.4562 27.3955 58.2994 22.8649 56.0861 18.8285Z" fill="#00749A"/>
<path d="M31.9992 0C14.3553 0 0 14.3546 0 31.999C0 49.6454 14.3548 64 31.9992 64C49.6426 64 64 49.6459 64 31.999C63.9995 14.3546 49.6426 0 31.9992 0ZM31.9992 62.5327C15.1644 62.5327 1.46724 48.8352 1.46724 31.999C1.46724 15.1642 15.1639 1.46779 31.9992 1.46779C48.8335 1.46779 62.5296 15.1642 62.5296 31.999C62.5296 48.8352 48.833 62.5327 31.9992 62.5327Z" fill="#00749A"/>
</svg>
