<svg width="65" height="64" viewBox="0 0 65 64" fill="none" xmlns="http://www.w3.org/2000/svg">
<g id="circleci">
<g id="circleci_2">
<path id="Vector" fill-rule="evenodd" clip-rule="evenodd" d="M32.0135 -0.000244141C16.8485 -0.000244141 4.12241 10.2342 0.54077 24.0709C0.516502 24.1716 0.5 24.2743 0.5 24.3813C0.5 25.2228 1.19277 25.9049 2.04733 25.9049H15.141C15.7646 25.9049 16.2981 25.5383 16.5444 25.015C19.2346 19.2464 25.1459 15.2369 32.0135 15.2369C41.409 15.2369 49.0298 22.7434 49.0298 32.0001C49.0298 41.2571 41.409 48.7635 32.0135 48.7635C25.1459 48.7635 19.2368 44.7534 16.5466 38.9832L16.5444 38.9865C16.2981 38.4622 15.7646 38.0961 15.141 38.0961H2.04733C1.19277 38.0961 0.5 38.7764 0.5 39.6201C0.5 39.7242 0.516502 39.8238 0.538505 39.9235C4.11917 53.7611 16.8456 63.9998 32.0135 63.9998C49.9537 63.9998 64.5 49.671 64.5 32.0001C64.5 14.3273 49.9537 -0.000244141 32.0135 -0.000244141ZM24.2778 32.0001C24.2778 27.7933 27.7421 24.3813 32.0135 24.3813C36.2847 24.3813 39.7474 27.7933 39.7474 32.0001C39.7474 36.2072 36.2847 39.6201 32.0135 39.6201C27.7421 39.6201 24.2778 36.2072 24.2778 32.0001Z" fill="white"/>
</g>
</g>
</svg>
