<svg width="65" height="64" viewBox="0 0 65 64" fill="none" xmlns="http://www.w3.org/2000/svg">
<g clip-path="url(#clip0_2431_2741)">
<path d="M64.29 49.59C61.962 50.182 60.522 49.616 59.23 47.676L50.042 34.964L48.714 33.204L37.984 47.718C36.758 49.464 35.472 50.224 33.184 49.606L46.924 31.162L34.132 14.502C36.332 14.074 37.852 14.292 39.202 16.262L48.732 29.132L58.332 16.332C59.562 14.586 60.884 13.922 63.092 14.566L58.132 21.142L51.412 29.892C50.612 30.892 50.722 31.576 51.458 32.542L64.29 49.59ZM0.306039 30.854L1.43004 25.326C4.49004 14.386 17.03 9.84002 25.678 16.6C30.732 20.576 31.988 26.2 31.738 32.5H3.25004C2.82204 43.84 10.984 50.684 21.39 47.192C25.04 45.966 27.19 43.108 28.266 39.532C28.812 37.74 29.716 37.46 31.4 37.972C30.54 42.444 28.6 46.18 24.5 48.518C18.374 52.018 9.63004 50.886 5.03004 46.022C2.29004 43.2 1.15804 39.624 0.650039 35.8C0.570039 35.168 0.410039 34.566 0.290039 33.96C0.300706 32.9254 0.306039 31.8907 0.306039 30.856V30.854ZM3.30204 30.094H29.046C28.878 21.894 23.772 16.07 16.794 16.02C9.13404 15.96 3.63404 21.646 3.30204 30.094Z" fill="white"/>
</g>
<defs>
<clipPath id="clip0_2431_2741">
<rect width="64" height="64" fill="white" transform="translate(0.290039)"/>
</clipPath>
</defs>
</svg>
