<svg width="65" height="64" viewBox="0 0 65 64" fill="none" xmlns="http://www.w3.org/2000/svg">
<mask id="mask0_2431_2354" style="mask-type:alpha" maskUnits="userSpaceOnUse" x="0" y="0" width="65" height="64">
<path d="M45.717 63.7264C46.725 64.1212 47.8745 64.0958 48.892 63.6038L62.0685 57.2307C63.453 56.561 64.3335 55.1522 64.3335 53.607V10.3931C64.3335 8.84779 63.453 7.43926 62.0685 6.76955L48.892 0.396206C47.5567 -0.249608 45.994 -0.0914239 44.8222 0.764949C44.6547 0.887285 44.4952 1.02387 44.3457 1.1744L19.1207 24.3068L8.1333 15.9232C7.11047 15.1428 5.67982 15.2067 4.72987 16.0753L1.20584 19.2976C0.043863 20.36 0.0425306 22.1975 1.20296 23.2617L10.7316 31.9999L1.20296 40.7382C0.0425306 41.8024 0.043863 43.6399 1.20584 44.7024L4.72987 47.9245C5.67982 48.7932 7.11047 48.857 8.1333 48.0768L19.1207 39.6931L44.3457 62.8255C44.7447 63.2269 45.2132 63.5292 45.717 63.7264ZM48.3432 17.396L29.2032 31.9999L48.3432 46.6039V17.396Z" fill="white"/>
</mask>
<g mask="url(#mask0_2431_2354)">
<path d="M62.1076 6.77944L48.9208 0.397314C47.3946 -0.341415 45.5703 -0.0298027 44.3723 1.1743L1.20349 40.7382C0.042353 41.8024 0.0436881 43.6399 1.20637 44.7023L4.73253 47.9244C5.68308 48.7932 7.11461 48.857 8.13803 48.0767L60.1233 8.43513C61.8673 7.10522 64.3723 8.35557 64.3723 10.556V10.4021C64.3723 8.85753 63.4921 7.44949 62.1076 6.77944Z" fill="#0065A9"/>
<path d="M62.1076 57.2204L48.9208 63.6026C47.3946 64.3411 45.5703 64.0295 44.3723 62.8256L1.20349 23.2617C0.042353 22.1975 0.0436881 20.36 1.20637 19.2975L4.73253 16.0753C5.68308 15.2067 7.11461 15.1427 8.13803 15.9232L60.1233 55.5646C61.8673 56.8945 64.3723 55.6443 64.3723 53.4437V53.5977C64.3723 55.1422 63.4921 56.5502 62.1076 57.2204Z" fill="#007ACC"/>
<path d="M48.8796 63.6077C47.3528 64.3457 45.5286 64.0339 44.3306 62.8297C45.8066 64.3133 48.3306 63.2624 48.3306 61.1641V2.84386C48.3306 0.745538 45.8066 -0.305315 44.3306 1.17843C45.5286 -0.0257891 47.3528 -0.337841 48.8796 0.400235L62.0641 6.77359C63.4496 7.44329 64.3306 8.85183 64.3306 10.3971V53.6111C64.3306 55.1564 63.4496 56.5649 62.0641 57.2346L48.8796 63.6077Z" fill="#1F9CF0"/>
</g>
</svg>
